<svg xmlns="http://www.w3.org/2000/svg" viewBox="0 0 400 400" id="Boasting--Streamline-Manila.svg" height="400" width="400"><desc>Boasting Streamline Illustration: https://streamlinehq.com</desc><g><path d="M72.164 243.872c-2.728 2.922 0.584 5.26 2.144 3.312 4.286 -5.456 11.152 -5.896 14.418 -2.728 1.384 1.342 2.922 0.584 2.532 -1.17 -1.168 -3.886 -10.716 -8.378 -19.094 0.586Z" fill="#3d9cfb" stroke-width="1"></path><path d="M71.97 230.038c-3.314 -5.456 -8.964 -14.418 -15 -13.056 -18.704 4.092 -36.24 31.37 -31.564 30.786 1.752 -0.2 8.378 -10.326 16.756 -17.926 5.066 -4.48 12.276 -8.182 15.588 -7.988 3.312 0.39 9.742 7.8 12.664 11.886 2.724 4.092 4.866 1.754 1.556 -3.702Z" fill="#3d9cfb" stroke-width="1"></path><path d="M57.94 194.576c6.43 3.702 8.768 3.118 14.8 -0.778 10.326 -6.626 25.386 -20.224 27.668 -23.382C103.612 166 101.2 138.072 96.714 133.2c-4.286 -4.482 -33.902 -0.78 -38 2.726 -4.482 3.704 -21.822 35.852 -19.874 41.698 1.56 4.288 11.696 12.666 19.1 16.952Zm32.54 -56.504c5.26 1.948 2.532 10.716 -2.534 8.964 -5.65 -1.754 -3.312 -11.302 2.534 -8.964Z" fill="#3d9cfb" stroke-width="1"></path><path d="M118.146 231.8a20.044 20.044 0 0 0 -13.444 6.818c-1.558 1.948 -0.2 4.092 1.754 2.534 9.546 -7.6 16.562 -6.82 24.16 -0.4 1.558 1.364 3.154 -0.6 1.558 -2.922a14.948 14.948 0 0 0 -14.028 -6.03Z" fill="#3d9cfb" stroke-width="1"></path><path d="M73.528 265.888c-8.184 -4.092 -20.264 -10.132 -26.888 -7.4 -6.04 2.532 -12.08 31.954 -8.572 31.564 0.972 0 1.362 -0.39 1.558 -1.364 0.584 -5.26 5.844 -25.524 9.156 -26.692 4.676 -1.56 21.2 5.548 26.304 7.988 2.114 1.016 3.114 -1.952 -1.558 -4.096Z" fill="#3d9cfb" stroke-width="1"></path><path d="M120.68 192.044c-3.898 -2.534 -20.654 -5.846 -54.166 13.638a27.022 27.022 0 0 0 -4.286 -1.948c-11.886 -3.702 -30.6 13.248 -39.554 23.77 -16.884 19.248 -18.328 29.446 4.48 41.306 -4.286 15 -7.8 27.28 -1.948 34.682 3.118 3.898 13.446 7.016 19.874 6.236 3.898 -0.39 2.924 -3.898 -0.388 -4.092 -7.8 -0.4 -15.784 -4.288 -16.172 -5.066 -6.43 -5.066 8.962 -51.828 16.56 -53.582 4.288 -1.364 19.096 5.066 39.748 15 2.922 1.362 7.8 0 -3.118 -5.846 -21.042 -11.302 -33.512 -16.172 -38.772 -14.612 -6.04 1.948 -11.886 15.39 -14.418 22.4 -7.21 -3.896 -12.276 -7.988 -14.03 -12.08 -1.168 -2.534 2.338 -10.912 11.692 -21.434 11.3 -12.664 19.874 -19.094 26.888 -21.236 4.286 -1.364 11.106 -2.924 27.278 14.028 6.818 7.2 13.054 17.34 18.898 27.862 0.976 1.754 5.066 1.754 3.508 -1.558C93.986 231.4 81.32 215.62 70.8 208.41c31.174 -17.536 44.424 -13.64 46.762 -12.08 7.6 5.066 21.822 43.644 23.382 47.346 0.778 1.948 4.87 3.312 4.09 0.2 -2.728 -10.136 -19.678 -48.716 -24.354 -51.832Z" fill="#3d9cfb" stroke-width="1"></path><path d="M374.168 272.708c-0.39 1.168 -1.558 6.234 -1.948 7.4a95.26 95.26 0 0 0 -15.4 -21.434 8.482 8.482 0 0 0 -3.896 -2.532c0.974 -2.142 3.118 -7.988 2.532 -9.936 -0.584 -1.56 -2.922 -1.56 -4.286 1.754 -1.754 4.09 -4.092 11.69 -17.926 27.472 -15.2 17.146 -39.356 28.252 -57.866 28.446 -3.118 0 -0.2 4.092 2.922 4.092 12.274 -0.2 25.524 -4.676 37.6 -12.276 1.948 8.574 12.08 21.628 18.51 26.11a90.4 90.4 0 0 1 -32.344 10.326c-2.918 0.256 0.39 3.702 3.312 3.702 30.848 -2.882 64.846 -24.754 70.924 -55.14 1.762 -7.79 -1.356 -10.322 -2.134 -7.984Zm-5.65 16.172c-3.988 12.182 -16.562 24.548 -27.668 29.42 -6.236 2.728 -16.756 -14.028 -19.874 -21.432a4.33 4.33 0 0 1 1.558 -5.26 102.4 102.4 0 0 0 26.498 -27.862 3.158 3.158 0 0 1 4.872 -0.586c5.456 5.456 12.276 17.536 13.64 19.29 2.142 1.75 1.606 4.496 0.974 6.43Z" fill="#3d9cfb" stroke-width="1"></path><path d="M321.366 322.588c-3.07 -2.974 -9.234 -12.536 -12.08 -17.538a1.786 1.786 0 0 0 -2.534 -0.778c-4.092 1.558 8.574 18.51 13.64 21.822 1.364 0.78 2.558 -1.974 0.974 -3.506Z" fill="#3d9cfb" stroke-width="1"></path><path d="M110.742 205.878c5.286 1.052 8.262 9.21 11.106 15.2 0.562 1.18 2.924 0.586 2.728 -0.778 -1.17 -5.846 -4.872 -11.302 -7.4 -15 -5.26 -7.2 -19.874 -1.558 -25.72 1.754 -4.87 2.922 -6.078 6.546 -1.752 4.482 4.246 -2.036 14.442 -6.974 21.038 -5.658Z" fill="#3d9cfb" stroke-width="1"></path><path d="M344.552 286.542a51.18 51.18 0 0 0 -10.132 -0.586c-2.142 0.2 -2.338 2.34 -0.4 2.924a72.308 72.308 0 0 0 8.962 1.364 4.754 4.754 0 0 0 2.338 4.092 111.318 111.318 0 0 0 -3.7 11.494c-0.78 3.898 2.338 4.092 3.7 1.17 1.95 -4.872 2.34 -7.014 4.092 -12.276a5.102 5.102 0 0 0 3.118 -7.988c-1.548 -2.536 -6.614 -3.118 -7.978 -0.194Z" fill="#3d9cfb" stroke-width="1"></path><path d="M281.618 104.17c2.534 -7.014 -2.534 -17.73 -12.664 -21.822 0 -8.768 -12.276 -32.54 -37.6 -20.264 -7.016 -18.9 -30.786 -28.058 -42.866 -13.444 -23.576 -18.51 -45 -8.572 -52.022 14.614 -25.33 -14.8 -53.2 6.234 -46.372 27.668 -15.786 6.04 -17.15 28.056 -4.094 33.902 5.844 2.726 15.782 0.2 19.874 -13.056 14.418 8.378 50.854 15 68.2 -12.664 14.8 7.6 38.384 2.338 49.294 -6.234 12.666 12.858 28.448 7.8 37.214 3.312 -3.904 14.218 18.894 13.832 21.036 7.988Z" fill="#3d9cfb" stroke-width="1"></path><path d="M175.624 88c-5.26 18.9 -25.328 27.668 -40.332 27.862 -13.834 0 -28.056 -4.87 -36.824 -16.366 -2.338 -3.118 -4.676 3.896 3.116 9.936a41.7 41.7 0 0 1 -3.702 7.4c-1.948 3.118 3.898 2.34 7.99 -4.482 25.126 15.936 55.948 8 68.778 -10.326 13.25 6.236 36.826 3.898 46.958 -6.43 9.936 8.574 25.524 10.718 36.628 3.898 0.78 1.948 2.924 6.04 5.652 6.04 1.948 0 -2.338 -2.532 -1.364 -10.522 0.584 -4.286 -1.56 -6.04 -4.288 -2.142 -5.844 8.572 -24.548 7.2 -33.316 -0.4 3.896 -5.846 1.362 -10.718 0.2 -8.38 -7.4 14.03 -29.226 20.07 -47.93 13.64 2.72 -8.756 -0.59 -13.042 -1.566 -9.728Z" fill="#001434" stroke-width="1"></path><path d="M184.588 229.842c35.07 0.584 51.826 -13.834 53.2 -24.94 1.56 -11.494 -0.778 -20.068 -10.13 -22.212 -13.25 -3.116 -23.188 9.742 -39.748 9.742 -13.444 0 -31.37 -7.2 -39.944 -2.338 -9.352 5.262 -5.65 17.732 -3.506 21.824 4.472 8.378 15.772 17.534 40.128 17.924Zm-36.826 -29.226c-0.39 -5.65 3.702 -7.988 8.572 -6.818 23.382 4.87 37.6 6.818 57.868 -3.704 12.666 -6.624 17.148 -0.2 17.536 3.508 -2.922 4.676 -14.612 8.768 -9.352 10.326 1.364 0.4 7.21 -0.778 11.106 -4.09 -1.558 14.8 -23.186 24.16 -43.84 24.744 -32.538 0.974 -41.306 -13.834 -41.89 -18.12 6.624 2.728 11.106 3.312 13.056 0.78 1.558 -1.95 -7.218 -2.73 -13.056 -6.626Z" fill="#001434" stroke-width="1"></path><path d="M56 161.064c2.144 4.676 6.43 5.066 10.132 5.454a116.892 116.892 0 0 0 4.868 13.446 8.186 8.186 0 0 1 -7.2 -2.534c-0.78 -0.78 -2.356 -0.788 -2.728 0 -0.82 1.736 3.118 7.99 11.3 6.04 0.78 1.95 0.974 2.922 1.754 3.312 1.558 0.2 3.508 -1.168 2.144 -4.87 4.87 -2.922 7.6 -8.964 4.48 -14.03C78 163.4 73.528 163.2 69.24 163.012c-0.2 -0.39 -2.92 -9.158 -3.896 -12.274 6.04 -1.56 6.43 2.922 9.158 1.558 0.778 -0.39 1 -1.184 0.4 -2.144 -2.256 -3.56 -7.2 -3.896 -10.716 -2.922 -0.78 -1.558 -1.364 -3.312 -3.118 -3.312 -0.974 0 -1.948 0.778 -1.56 1.754a13.158 13.158 0 0 0 1.17 3.116C56.382 151.322 53.654 156.2 56 161.064Zm21.238 8.962a6.036 6.036 0 0 1 -2.338 8.184c-1.364 -3.702 -3.314 -8 -4.676 -11.496 2.524 0.39 5.446 0.78 7.006 3.312Zm-15.588 -17.536c0.974 2.924 2.144 6.236 3.118 9.936a5.848 5.848 0 0 1 -5.456 -3.116 5.422 5.422 0 0 1 2.33 -6.82Z" fill="#001434" stroke-width="1"></path><path d="M90.48 138.072c-6.04 -2.338 -8.184 7.21 -2.534 8.964 5.066 1.752 7.794 -6.82 2.534 -8.964Z" fill="#001434" stroke-width="1"></path><path d="M362.282 240.364a3.874 3.874 0 0 1 -1.364 -3.508c3.314 -22.212 -15.588 -56.504 -42.474 -45.982a34.046 34.046 0 0 0 -2.924 -2.534 15.35 15.35 0 0 0 2.728 -4.87c13.64 1.558 10.91 -19.484 1.17 -31.758 7.988 -6.236 8.182 -27.084 -2.924 -35.268 3.118 -18.898 -10.716 -43.254 -33.318 -44.812 -2.142 -20.458 -26.108 -35.656 -46.956 -29.812 -22.8 -23.574 -92.16 -34.682 -116.126 0.78 -23.38 -7.6 -56.894 9.742 -57.672 37.41a49.8 49.8 0 0 0 -20.654 24.94c-6.624 16.756 0.036 37.294 3.118 35.85 1.184 -0.554 0.974 -1.754 0.584 -3.702a47.49 47.49 0 0 1 19.484 -53.386 5.372 5.372 0 0 0 2.144 -3.898c0.488 -26.706 41.89 -44.812 60.6 -27.276 2.338 2.142 3.702 -3.118 -2.922 -7.99 27.666 -33.708 88.458 -17.73 108.916 0a6.248 6.248 0 0 0 5.26 1.364c18.12 -4.092 39.748 11.496 39.358 27.862a2.698 2.698 0 0 0 2.142 2.534c26.5 2.922 31.954 23.574 30.98 39.746a4.74 4.74 0 0 0 2.534 4.482c7.8 5.65 7.014 23.576 2.728 27.862 -37.8 -43.448 -35.266 -41.11 -110.476 -29.8 -11.3 1.754 -7.8 9.352 -15.2 10.912 -8.38 1.754 -10.104 1.298 -12.666 0.2 -5.784 -2.488 -3.116 -8.768 -16.562 -7.4 -12.47 1.364 -60 3.118 -69.948 9.352a10.2 10.2 0 0 1 4.482 1.56c4.05 4.05 6.514 26.612 4.676 35.07a5.678 5.678 0 0 1 -2.142 3.702c11.3 19.096 60.984 13.054 68.388 -4.676 0.2 7.21 6.236 13.054 14.418 14.418 10.522 1.754 21.742 -5.246 21.044 -9.546 -0.222 -1.36 -1.364 -1.95 -3.312 -0.2 -5.456 4.872 -15.784 5.456 -22.212 1.754 -4.678 -2.728 -5.846 -8.768 -3.118 -16.56 2.532 -7.016 10.326 -18.512 23.77 -9.744 6.43 4.092 10.326 16.756 20.068 23 10.912 7.014 35.268 3.118 45.6 -1.558 8.768 -3.898 12.276 -30.786 12.276 -30.786 13.444 3.508 19.678 -0.2 27.472 6.234 13.638 11.108 17.924 29.812 8.574 40.918 -37.6 -29.226 -60.2 -4.676 -40.918 28.836 -13.25 9.938 -20.458 22.4 -22.8 35.852 -25.914 12.08 -63.908 14.8 -90.6 6.234 -28.836 -19.29 -61.18 -1.17 -75.4 23a3.8 3.8 0 0 1 -4.092 1.364c-14.028 -3.118 -22.6 2.532 -26.302 10.91a26.82 26.82 0 0 0 4.086 26.662c-2.728 9.156 -14.03 27.276 -17.926 36.824 -2.534 6.04 2.728 5.066 6.04 -0.778a304.622 304.622 0 0 0 16.95 -32.734C86 335.252 139.578 361.554 171.922 356.88c-8.962 18.12 -13.248 24.548 -8.184 23s16.368 -26.694 21.824 -40.332c11.106 -26.888 13.054 -53.776 -15.978 -75.6 27.474 3.702 51.634 2.338 77.938 -8.378 -3.12 45.786 45.982 101.706 92.354 100.538 63.124 -1.762 61.96 -75.802 22.406 -115.744ZM128.862 171.78c-3.118 0.584 -6.43 -2.338 -18.9 -14.224 -4.676 -4.48 0.78 -6.624 6.82 -1.168 12.47 11.106 14.618 15.012 12.08 15.392Zm11.886 -5.65c-6.43 -5.846 -20.654 -18.9 -25.914 -24.746s0.4 -6.04 5.846 -1.364c6.818 6.04 17.73 15.782 24.16 22.6 5.26 5.848 3.312 10.524 -4.092 3.51Zm-5.066 -25.72c-5.65 -5.456 -2.922 -8.378 2.532 -4.092 5.456 4.482 16.562 12.08 17.148 17.732s-14.03 -7.99 -19.68 -13.64ZM229.6 161.258c-4.264 1.066 -14.614 -9.546 -18.12 -13.444 -2.728 -3.118 -2.728 -9.936 3.506 -4.092 12.466 11.302 18.92 16.458 14.614 17.536Zm22.6 -3.506c-2.532 0.584 -4.48 -0.4 -12.664 -6.626a242.774 242.774 0 0 1 -19.094 -16.172c-5.26 -5.26 -2.728 -9.74 1.17 -6.624 32.144 25.914 33.118 28.838 30.588 29.422Zm5.262 -12.664c-4.482 -0.586 -12.86 -8.184 -18.314 -12.666 -5.262 -4.482 -3.898 -9.938 2.142 -4.872s23.182 18.316 16.168 17.538Zm-86.9 126.06c-11.69 8.378 -19.094 21.628 -15.4 22.4s9.548 -11.886 19.68 -18.51c22.016 22.4 12.858 48.71 -0.2 76.572 -25.524 5.456 -68.778 -9.352 -112.034 -35.266 -4.87 -2.924 -10.326 -13.638 -6.428 -23 7.012 -16.756 24.548 -1.362 30.2 -10.52 9.156 -15.4 31.954 -34.682 54.944 -28.252 -11.3 5.844 -23.38 24.16 -15.782 22.99 3.118 -0.39 8.574 -11.884 22.018 -20.848a91.948 91.948 0 0 1 22.998 14.434Zm155.874 79.106c-19.484 -5.066 -43.45 -20.654 -63.324 -51.438a85.112 85.112 0 0 1 -8.574 -21.432c-3.702 -14.418 -2.922 -27.668 1.754 -37.02 8.574 -0.2 18.12 7.21 20.848 9.548s4.678 -1.364 2.924 -3.508c-3.314 -4.092 -14.224 -9.742 -21.044 -10.716 4.288 -9.158 10.522 -15.782 15.782 -16.952 5.65 -1.168 13.64 4.286 21.238 9.354 2.922 1.948 4.234 -2.286 1.95 -4.676 -4.2 -4.388 -16.368 -10.718 -22.4 -11.108 -4.688 -6.818 -14.43 -33.306 7.01 -33.706 10.716 0 25.33 8.184 44.618 27.084 0.976 0.974 2.924 0.2 2.73 -1.17 -0.39 -3.312 -3.12 -6.428 -7.4 -9.742 24.356 -5.454 34.292 24.15 33.904 43.062a9.086 9.086 0 0 0 2.532 6.624c55.118 57.356 19.08 118.656 -32.552 105.796Z" fill="#001434" stroke-width="1"></path></g></svg>