<svg xmlns="http://www.w3.org/2000/svg" viewBox="0 0 400 400" id="Bots--Streamline-Manila.svg" height="400" width="400"><desc>Bots Streamline Illustration: https://streamlinehq.com</desc><g><path d="M26.098 43.68c5.844 0.132 -4.678 10.914 1.558 10.33 5.262 -0.4 14 -8.472 17.542 -9.552 3.482 -1.062 12.28 1.17 17.152 -1.364 6.432 -3.314 7.016 -23.39 1.95 -26.894 -2.924 -1.948 -13.06 -2.534 -21.83 -2.534 -15 0.2 -20.66 1.754 -23 3.9 -4.484 4.092 -3.702 22.024 -0.584 24.362a11.812 11.812 0 0 0 7.212 1.752Z" fill="#3d9cfb" stroke-width="1"></path><path d="M78.722 157.506C71.12 151.854 18.886 153.6 14.8 159.65c-5.458 7.8 -6.626 34.694 -1.558 38.4a13.826 13.826 0 0 0 8 2.534c9.162 0 -3.314 13.254 2.924 14.23 4.678 0.778 18.516 -11.5 23.974 -13.254 5.458 -1.56 20.66 1.558 28.262 -2.34 9.922 -5.07 9.922 -36.062 2.32 -41.714Z" fill="#3d9cfb" stroke-width="1"></path><path d="M47.926 125.54c10.308 6.042 35.046 -2.8 41.518 6.432 7.99 11.89 10.914 16.764 16.76 15 5.264 -1.56 4.678 -12.67 5.264 -18.128 0.4 -5.068 12.438 -1.666 18.516 -3.702 3.682 -1.236 6.042 -13.06 5.652 -25.924 -0.584 -23.39 -2.728 -30.99 -8.382 -34.11 -9.16 -4.676 -70.876 -5.63 -81.86 2.34 -9.466 6.878 -11.306 49.908 2.532 58.092Zm0.4 -54.184c3.898 -3.118 16.372 -4.678 34.108 -5.458 28.066 -1.364 38.6 1.756 43.074 2.924 6.822 1.56 8 48.922 2.146 52.04 -5.264 2.924 -18.106 -2.296 -20.076 7.6 -0.702 3.524 0 13.644 -2.924 14.034 -3.118 0.4 -7.6 -9.94 -14.034 -15.2a17.556 17.556 0 0 0 -12.092 -3.896c-12.084 0.2 -23.2 1.168 -27.872 -1.56 -4.092 -2.34 -7.016 -8.772 -7.8 -19.882 -1.166 -15.594 0.978 -27.094 5.462 -30.602Z" fill="#3d9cfb" stroke-width="1"></path><path d="M327.232 19.51c-2.144 -0.584 -14.814 -1.754 -33.33 -1.56 -19.88 0.4 -24.364 1.754 -27.288 4.094 -5.262 4.094 -4.482 18.712 -3.896 26.898 0.584 10.33 2.924 14.034 7.8 15.982 6.432 2.534 16.372 1.17 25.728 2.144 17.152 12.67 20.076 15.6 24.752 14.814 8.382 -1.364 1.95 -10.916 0.976 -16.178 2.924 -0.78 7.99 0.4 10.72 -1.56C336.2 61.612 336 54.4 336.2 46.018c0.2 -11.5 0.2 -23.974 -8.968 -26.508Zm1.95 40.152c-3.51 1.558 -9.746 0 -11.5 2.338 -2.34 2.73 4.288 14.618 3.118 15.6 -2.73 1.754 -17.348 -15 -25.144 -15.4 -8.38 -0.4 -19.1 0.4 -23.584 -1.95 -2.922 -1.558 -4.676 -4.092 -5.262 -12.084 -1.522 -25.894 1.126 -25.128 29.432 -25.534 21.05 -0.584 28.066 1.17 30.4 2.146 3.508 1.364 5.164 2.33 5.458 18.71 0.144 7.79 -1.164 15.588 -2.918 16.174Z" fill="#3d9cfb" stroke-width="1"></path><path d="M121.4 315c-0.586 -2.534 6.238 -15.4 3.898 -17.93s-12.668 7.212 -14.618 7.4c-2.144 0.2 -9.16 -10.136 -12.864 -8s-0.4 14.034 -0.974 17.152 -14.618 12.864 -13.254 16.568c0.974 2.728 14.228 0 15 1.364 1.558 3.118 1.558 16.958 4.482 17.152 3.9 0.2 7.4 -14.424 9.552 -15.788s22.024 3.704 24.168 0.2c3.134 -4.482 -14.602 -15.59 -15.39 -18.118Z" fill="#3d9cfb" stroke-width="1"></path><path d="M316.122 338.576c-22.024 -5.066 -27.678 5.458 -37.812 16.764 -6.238 7.016 -6.432 10.134 2.534 11.108 3.312 0.4 5.066 -3.702 7.6 -3.508a93.494 93.494 0 0 1 9.746 1.56c1.754 0.584 0.586 4.482 2.924 5.652s10.526 0.974 12.67 0.39c1.558 -0.586 4.286 -16.372 5.456 -25.144 0.78 -3.702 0.586 -5.846 -3.118 -6.822Z" fill="#3d9cfb" stroke-width="1"></path><path d="M213.6 248.724c-6.432 2.924 -6.626 32.55 -0.584 36.252 8.966 6.628 50.48 11.304 56.718 4.874 4.482 -5.264 3.508 -32.16 -1.17 -37.032 -5.652 -3.9 -46.778 -7.018 -54.964 -4.094Z" fill="#3d9cfb" stroke-width="1"></path><path d="M387.85 153.024c-6.238 -17.932 -9.942 -30.4 -24.364 -26.704a11.484 11.484 0 0 0 -6.042 3.704c-6.238 -11.304 -17.154 -10.914 -23.974 -6.238 -10.33 -11.304 -60.618 -34.108 -76.4 -31.77 -8.382 -10.914 -30.8 1.95 -28.458 -22.22 0.2 -1.558 0 -3.312 -1.56 -2.728 -2.728 0.78 -3.508 15.788 1.17 19.88 5.458 4.678 20.66 3.314 24.948 8 -10.33 8 -47.168 10.72 -55.158 4.678 2.922 -4.484 17.15 -6.432 19.49 -11.304 3.118 -6.628 -0.974 -18.712 -4.288 -19.296 -1.364 -0.2 -0.974 1.558 -0.4 2.924 1.95 4.676 1.874 10.872 0.2 14.032 -0.614 1.154 -4.678 2.728 -7.4 3.704 -7.4 2.728 -11.306 5.456 -12.28 8.186C148.11 115.4 114 154.972 131.738 182.844a15.576 15.576 0 0 0 -11.5 4.094c-18.906 4.872 -33.914 17.93 -37.422 32.354 -3.12 12.67 6.236 26.898 19.88 26.898a14.818 14.818 0 0 0 4.484 4.872c-3.118 -0.4 -50.092 -5.652 -65.88 -6.042 -15 -0.4 -21.636 0.586 -24.168 7.4 -4.094 11.5 3.312 81.278 11.694 95.506 7.8 13.058 28.068 17.542 47.364 23a246.106 246.106 0 0 0 58.276 9.356 36.434 36.434 0 0 0 15.788 -2.73c57.108 -26.116 74.846 -32.744 79.718 -44.244 4.288 -10.33 -10.136 -17.932 -61 -28.652 -7.018 -1.558 -9.552 1.754 -5.458 2.73 21.246 4.482 62.956 14.422 61.98 22.024 -1.168 9.94 -31.574 22.22 -68.8 39.566 2.34 -8.77 0.076 -23.418 -1.558 -46 -0.6 -8.4 -1.56 -20.076 -2.534 -30.99 23.214 8.44 28.932 -18.6 24.752 -42.882 -1.558 -8.38 -5.652 -8.574 -4.872 -4.482 2.924 14.23 1.754 38.4 -7.016 42.686 -5.068 2.534 -11.11 0 -13.45 -1.17 -1.17 -11.11 -2.864 -20.902 -5.848 -24.754a16.136 16.136 0 0 0 -6.626 -4.482 44.874 44.874 0 0 0 17.738 -10.136c2.534 5.262 5.056 9.386 6.626 9.94 1.744 0.618 3.704 0.4 2.338 -3.118 -1.168 -3.118 -2.144 -4.872 -4.872 -11.5a45.078 45.078 0 0 0 8 -15.6c8.492 -26.73 -14.62 -53.99 -26.898 -38 -30.212 -26.508 5.458 -66.854 51.456 -85.76 3.704 3.508 12.864 5.068 22.8 4.874 10.136 -0.2 35.278 -1.366 39.956 -10.72 27.094 2.924 55.55 17.93 72.508 30.4a12.106 12.106 0 0 0 -2.73 7.6c-7.212 -1.95 -17.346 2.728 -17.736 11.696 -0.2 4.678 4.094 20.66 8.966 29.236 -15.4 0.974 -18.518 14.618 -5.264 23.388 5.652 3.704 14.23 7.018 27.288 7.018 3.704 14.228 5.652 23.388 6.238 30.016 -13.45 -13.254 -26.898 -32.55 -40.346 -5.848 -7.018 14.424 7.212 30.21 24.558 39.176 9.55 5.068 21.44 6.434 28.846 6.628 28.458 0.974 31.576 -27.482 13.838 -79.718 14.998 -10.512 20.65 -27.074 14.998 -43.45ZM91.586 235.47a15.974 15.974 0 0 1 -4.092 -15.4c3.118 -11.11 13.644 -21.634 28.066 -26.898 -4.288 10.72 -2.728 28.458 3.898 38.6a18.238 18.238 0 0 1 -4.678 4.874 27.032 27.032 0 0 1 -10.718 -11.11c-0.586 -1.17 -1.756 -2.34 -2.534 -1.17 -1.754 2.534 1.752 10.72 8.186 15 -9.94 4.68 -15.008 -0.584 -18.128 -3.896Zm50.678 28.652c5.066 5.068 5.066 22.22 6.626 40.93 1.17 14.812 4.678 44.83 3.118 59.448 -0.4 3.898 -1.948 11.11 -16.372 10.72 -29.626 -0.78 -97.26 -16.762 -102.522 -30.016 -3.898 -6.432 -7.4 -25.34 -9.356 -41.906 -1.948 -15.788 -4.678 -43.27 -1.754 -50.482 1.17 -2.338 4.486 -3.678 14.618 -3.898 8.972 -0.2 42.296 3.314 61 5.848 38.208 5.068 41.132 5.652 44.642 9.356Zm-1.56 -71.522c-0.586 14.032 8.772 20.076 14.228 20.076a1.92 1.92 0 0 0 0.586 -3.704c-11.112 -4.482 -13.06 -22.6 -2.534 -20.27 8.576 1.754 16.76 16.176 11.694 36.254 -5.264 20.66 -28.066 28.844 -38.2 28.26a24.766 24.766 0 0 1 -18.126 -8.186 28 28 0 0 0 14.618 -8.966 13.68 13.68 0 0 0 8.966 3.51c11.308 -0.2 14.422 -8.772 12.862 -19.296 -1.364 -8.188 -5.846 -8.576 -5.262 -4.874 1.17 7.6 1.98 17.282 -4.482 18.712a8.902 8.902 0 0 1 -7.8 -1.17c-8.38 -4.872 -13.78 -32.886 -4.482 -41.906 3.266 -3.178 9.94 -5.468 17.932 1.56Zm206.02 -66.074c8.77 4.482 9.55 15 11.694 24.948a40.628 40.628 0 0 0 -17.542 4.288c-1.56 -3.898 -4.958 -11.556 -7.8 -16.958 -3 -5.724 3.324 -16.188 13.648 -12.288Zm-36.838 59.046c0.974 -5.066 11.382 -6.732 26.896 -0.584 3.098 1.226 6.628 -5.262 -12.864 -9.16 -4.092 -7.6 -10.134 -23.4 -9.744 -29.236 0.4 -5.068 5.262 -6.628 6.82 -7.018 3.12 -0.78 6.434 0 7.4 1.56A132.514 132.514 0 0 1 336 157.7a7.586 7.586 0 0 0 -4.678 5.848c0 0.976 0.586 3.118 2.924 1.364 9.942 -7.8 24.754 -10.524 35.084 -7.4 1.364 0.39 2.73 0.2 2.534 -1.364s-2.338 -4.288 -8.38 -5.068c-3.12 -15 -4.094 -19.686 1.364 -20.66 8.576 -1.754 12.474 6.238 17.736 23.584 4.288 13.838 3.118 35.278 -26.118 44.44 -28.454 8.756 -47.944 -6.444 -46.58 -12.872Zm64.32 81.278c-12.086 15.6 -74.066 -7.8 -63.346 -35.084 9.356 -23.974 23.974 1.56 35.864 11.5a38.152 38.152 0 0 1 -0.78 5.264c-0.4 1.558 0.6 3.338 1.754 2.728 3.55 -1.872 6.042 -14.034 -2.144 -45.61a58.632 58.632 0 0 0 23.584 -6.822c13.062 36.838 13.262 57.304 5.062 68.024Z" fill="#001434" stroke-width="1"></path><path d="M161.364 280.884c7.016 -0.39 7.4 -9.356 5.068 -9.552 -2.144 -0.2 -1.17 4.678 -6.238 6.044 -2.728 0.778 -3.312 3.702 1.17 3.508Z" fill="#001434" stroke-width="1"></path><path d="M247.124 247.164c-4.678 0.2 -13.254 19.296 -15.6 18.906 -1.56 -0.39 -3.314 -12.668 -7.8 -12.864 -5.068 -0.2 -8.768 7.578 -9.942 7.4 -1.554 -0.226 -3.508 -2.534 -4.872 -4.092 -1.364 -1.754 -3.118 0.4 -1.948 2.534 2.924 5.068 5.066 6.822 7.016 6.822 3.704 -0.2 6.432 -7.212 8.77 -7.016s2.144 13.448 8.382 13.836c5.846 0.2 15 -19.684 16.762 -19.684 2.338 0 3.314 5.848 4.484 10.33 0.39 1.364 1.364 2.338 2.532 1.948 2.742 -0.578 -0.572 -18.51 -7.784 -18.12Z" fill="#001434" stroke-width="1"></path><path d="M205.024 236.834c-5.848 2.73 -5.652 11.696 -6.042 19.102 -0.39 8.38 -0.78 17.346 4.872 21.438 8.966 6.238 28.458 8 42.296 8.382 18.126 0.586 20.32 -6.828 20.854 -25.144 0.24 -8.2 0 -15.6 -5.262 -19.88 -4.482 -3.702 -48.922 -7.602 -56.718 -3.898Zm53.8 40.932c-4.484 5.456 -43.856 1.168 -52.238 -4.678 -3.896 -2.73 -2.922 -28.848 1.17 -31 7.212 -3.898 47.558 1.17 49.898 2.534 5.648 3.322 4.868 28.466 1.166 33.144Z" fill="#001434" stroke-width="1"></path><path d="M218.278 66.288c17.542 0 15.788 -24.558 -0.584 -23.778 -15.204 0.584 -15.008 23.778 0.584 23.778Zm-0.39 -18.906c10.33 -0.4 10.33 12.864 1.17 13.644 -9.552 0.774 -10.526 -13.254 -1.17 -13.644Z" fill="#001434" stroke-width="1"></path><path d="M317.876 346.958c-1.558 5.262 -2.534 9.744 -4.288 14.228a4.104 4.104 0 0 1 -3.118 2.534c-8.186 0.2 -8.576 -0.4 -9.356 -2.144 -0.39 -1.364 -0.584 -3.704 -2.728 -4.092 -6.042 -1.17 -11.5 -3.314 -15 0.388 -2.728 2.73 -6.628 0.2 -7.4 -0.778s0.778 -3.51 3.702 -7.6c2.924 -3.898 0.78 -4.678 -3.312 -0.78 -4.094 4.094 -8 9.94 -3.12 12.474 6.042 3.118 7.8 3.118 12.668 -0.2 3.12 -2.142 7.212 -0.584 10.916 0.2 0 5.652 1.95 6.628 10.526 6.628 4.676 0 6.822 0.584 8.186 -0.976 1.754 -1.948 3.314 -13.448 4.092 -16.956 0.956 -3.316 -0.598 -6.434 -1.768 -2.926Z" fill="#001434" stroke-width="1"></path><path d="M169.356 345c22.024 -10.524 30.6 -13.254 37.422 -15.982 3.12 -1.168 3.704 -5.068 -16.958 3.118 -2.922 1.17 -10.914 4.29 -14.618 6.044 -9.16 4.1 -7.602 7.804 -5.846 6.82Z" fill="#001434" stroke-width="1"></path><path d="M299.75 206.622c-24.948 14.034 -69.388 23.39 -115.776 9.942 -1.364 -0.39 -1.56 0.974 -0.584 1.948 5.262 5.068 33.134 9.552 48.142 9.552 29.43 0.2 54.378 -8.382 68.6 -19.296 2.542 -1.95 2.542 -3.9 -0.382 -2.146Z" fill="#001434" stroke-width="1"></path><path d="M291.954 328.246c-11.5 1.366 -30.8 21.44 -33.524 32.356 -1.56 6.042 -0.976 10.524 1.558 13.838 6.626 9.162 43.076 13.254 54 11.5 12.28 -2.144 20.076 -41.71 15.982 -49.118 -3.906 -6.822 -28.076 -9.746 -38.016 -8.576Zm21.246 49.898c-6.042 1.558 -43.77 -1.092 -48.532 -8 -1.6 -2.314 -2.144 -4.092 -1.17 -8.576 2.146 -8.966 20.272 -30.016 32.16 -29.822 12.866 0.2 27.872 4.288 29.626 7.4 2.916 6.254 -5.458 37.254 -12.084 38.998Z" fill="#001434" stroke-width="1"></path><path d="M161.948 260.028c-0.6 -0.96 -2.178 -0.588 -2.338 1.17a8.168 8.168 0 0 1 -5.458 6.626c-1.948 0.78 -1.754 2.534 0.4 2.534a7.34 7.34 0 0 0 7.396 -10.33Z" fill="#001434" stroke-width="1"></path><path d="M58.258 257.494c-3.51 -0.388 -19.688 4.678 -21.83 10.526 -1.56 5.262 4.288 17.346 9.94 17.346 11.5 -1.558 28.456 -8 19.686 -21.44 -0.976 -1.56 -3.9 -6.042 -7.796 -6.432Zm6.042 16.178c-1.17 2.534 -15.4 8.576 -18.128 7.8 -2.532 -0.974 -6.762 -9.528 -5.846 -12.084 1.248 -3.48 15 -8.186 17.542 -8 2.932 0.012 7.992 10.334 6.432 12.284Z" fill="#001434" stroke-width="1"></path><path d="M88.078 315.968c-2.728 4.482 -15.4 13.254 -13.058 17.736 0.974 3.898 10.524 2.338 15.4 2.338 1.364 5.07 1.168 18.128 6.236 17.542 4.678 0.586 8 -11.498 10.332 -15.982 30.6 4.484 33.718 -0.39 9.744 -20.466 7.212 -19.1 6.238 -26.898 -12.864 -12.084 -15.4 -15.982 -18.13 -6.432 -15.79 10.916Zm10.33 -10.526c6.238 8.966 12.084 -2.144 18.908 -4.092 0.2 3.898 -5.264 13.838 -4.288 16.762 0.584 3.508 15.4 13.058 15.6 16.762 -3.12 1.948 -21.246 -2.534 -23.78 -0.78 -2.728 1.364 -5.456 12.67 -8 15.2 -2.73 -4.678 0.6 -17.54 -7.018 -17.346a86.706 86.706 0 0 1 -10.914 0.2c1.56 -3.9 12.864 -11.89 13.254 -15.4 0.976 -5.654 -5.066 -23.974 6.23 -11.306Z" fill="#001434" stroke-width="1"></path><path d="M362.12 217.928c3.9 -1.17 7.17 -4.65 6.042 -6.432 -0.6 -0.96 -2.142 -0.586 -2.924 0.2 -1.752 1.948 -6.43 3.702 -10.914 3.702 -3.312 -0.198 -2.924 5.648 7.796 2.53Z" fill="#001434" stroke-width="1"></path><path d="M336.588 241.902c-3.898 1.558 -6.822 11.11 -3.704 14.812 0.78 0.976 2.728 0.976 2.34 -2.728a17.866 17.866 0 0 1 3.118 -9.356c1.364 -1.364 0.974 -3.898 -1.754 -2.728Z" fill="#001434" stroke-width="1"></path><path d="M325.088 231.182c-8.576 2.338 -9.728 13.4 -7.018 14.228 2.356 0.728 1.56 -6.236 7.4 -9.94 4.686 -2.924 2.542 -5.07 -0.382 -4.288Z" fill="#001434" stroke-width="1"></path><path d="M171.694 140.744c-4.678 10.914 -3.704 53.21 7.8 63.15 20.466 17.738 106.616 8.966 116.556 -10.134 9.162 -17.738 4.874 -54.966 -2.924 -65.686 -13.452 -18.516 -111.686 -9.94 -121.432 12.67Zm20.272 23.584c-5.848 -0.78 -6.434 -16.568 6.236 -18.712 10.72 -1.754 19.686 8.772 17.542 14.23 -1.56 3.896 -17.932 5.262 -23.778 4.482Zm66.074 21.05a30.134 30.134 0 0 1 -23.2 8.772c-8.188 -0.4 -28.068 -2.73 -23.974 -13.254 3.508 -8.966 16.956 2.338 23.974 1.558 14.032 -1.558 17.446 -15.312 24.362 -8.966 3.764 3.45 5.752 5.558 -1.162 11.89Zm20.66 -27.872c-5.458 2.144 -21.246 4.288 -24.17 1.364 -4.482 -4.288 0.78 -16.762 11.5 -17.736 15.398 -1.56 18.126 14.228 12.67 16.372Z" fill="#001434" stroke-width="1"></path><path d="M189.042 289.46c15 10.526 40.54 17.932 69.582 18.126 29.626 0.2 55.744 -12.474 65.49 -28.456 3.704 -6.042 2.534 -7.4 -0.39 -3.704a68.238 68.238 0 0 1 -37.032 23.974c-32.55 8.77 -75.04 1.364 -102.328 -17.736 -3.704 -2.534 -2.73 2.536 4.678 7.796Z" fill="#001434" stroke-width="1"></path><path d="M360.952 264.512a13.4 13.4 0 0 1 -6.432 -8.188c-0.39 -1.558 -1.366 -3.702 -2.924 -2.142 -1.17 1.168 -1.364 6.042 1.364 9.354a11 11 0 0 0 7.6 4.288c2.342 0.196 3.314 -1.948 0.392 -3.312Z" fill="#001434" stroke-width="1"></path><path d="M357.638 229.232c-2.338 -0.39 -2.924 3.898 3.898 4.094 8.186 0.4 11.5 -3.898 11.11 -6.042 -0.2 -1.17 -1.754 -1.56 -2.924 -0.39 -1.948 2.338 -8.186 3.118 -12.084 2.338Z" fill="#001434" stroke-width="1"></path><path d="M42.664 307.976c-14.228 4.288 -9.746 23.974 3.508 24.168 19.102 0.196 14.628 -30.016 -3.508 -24.168Zm6.238 19.686c-10.526 2.924 -15.984 -12.474 -5.068 -15.788 10.724 -3.58 15.706 12.906 5.068 15.788Z" fill="#001434" stroke-width="1"></path><path d="M357.054 243.656c-0.976 -0.4 -2.094 1.508 0.2 3.898 2.2 2.292 5.654 3.118 10.136 3.118 5.848 0 9.354 -3.508 8.38 -5.262 -1.17 -2.144 -8.192 2.338 -18.716 -1.754Z" fill="#001434" stroke-width="1"></path></g></svg>