<svg xmlns="http://www.w3.org/2000/svg" fill="none" viewBox="0 0 400 400" id="Competitor-Analysis--Streamline-Manila.svg" height="400" width="400"><desc>Competitor Analysis Streamline Illustration: https://streamlinehq.com</desc><g id="competitor-analysis--business-competitor-analysis"><g id="group 4"><path id="vector" fill="#3d9cfb" d="M143.1352 56.2636c-3.68 0 -4 4 0 4 9.74 0.24 12.86 0.4 13.84 -2 0.98 -2.4 -4.68 -2 -13.84 -2Z" stroke-width="1"></path><path id="vector_2" fill="#3d9cfb" d="M118.2152 65.8036c-0.145 0.8452 -0.107 1.7118 0.1112 2.541 0.2182 0.8294 0.6118 1.6024 1.154 2.2668 0.5422 0.6646 1.2206 1.205 1.9894 1.585 0.7688 0.3802 1.6102 0.591 2.4672 0.6184 0.8572 0.0274 1.7104 -0.1292 2.5018 -0.4594 0.7916 -0.3302 1.503 -0.8262 2.0866 -1.4546 0.5836 -0.6284 1.0258 -1.3746 1.2966 -2.1884 0.2708 -0.8138 0.364 -1.676 0.2732 -2.5288 0.4 -8.88 -11.88 -8.36 -11.88 -0.38Z" stroke-width="1"></path><path id="vector_3" fill="#3d9cfb" d="M300.656 88.3836c0.2 -2 0.78 -7 -1.56 -7 -2.9 0 -3.322 9.02 -1.162 9.74 1.16 0.38 2.522 -0.78 2.722 -2.74Z" stroke-width="1"></path><path id="vector_4" fill="#3d9cfb" d="M304.756 93.6434c2.34 -0.34 2.72 -3.12 0.58 -4.66 -2.54 -1.68 -3.7 5.12 -0.58 4.66Z" stroke-width="1"></path><path id="vector_5" fill="#3d9cfb" d="M277.676 49.6434c-32.7 27.26 -37.18 84.7 5.84 112.14 3.08 2 4.92 -1.52 0.2 -4.66 -37.76 -25.52 -34 -79.64 -3.5 -104.36 23.76 -20.26 74.18 -16.94 92.48 11.1 25.12 32.9 5.34 96 -38 102.4 -1.18 0.18 -1.36 4 3.3 3.52 44.98 -5.08 64.26 -73.6 38 -108.26 -19.46 -29.8 -72.8 -33.68 -98.32 -11.88Z" stroke-width="1"></path><path id="vector_6" fill="#3d9cfb" d="M333.376 95.9836c12.68 -2 35.62 -5.26 38.74 -11.1 8.18 -16.54 -25.7 -41.66 -44.58 -38 -3.52 0.78 -3.52 10.9 -0.6 45.74 0.6 5.9 3.52 3.8 6.44 3.36Z" stroke-width="1"></path><path id="vector_7" fill="#3d9cfb" d="M32.9352 313.464c-10 -10.9 -14.59996 -30.38 -13.03996 -43.8 -13.62 9.34 -7.58002 44.96 13.03996 43.8Z" stroke-width="1"></path><path id="vector_8" fill="#3d9cfb" d="M148.5948 98.3234c-3.9 0.38 -2.14 2.92 -0.38 3.3 4.28 0.98 29 1.18 34.64 1.18 3.32 -0.2 2.92 -3.32 -3.3 -3.7 -4.28 -0.4 -22.98 -1.8 -30.96 -0.78Z" stroke-width="1"></path><path id="vector_9" fill="#3d9cfb" d="M134.5756 122.2636c3.12 0.98 2 -1.36 2.54 -37.38 0 -4.68 -3.9 -3.12 -4 -0.2 -0.18 1.56 0 16 0 25.7 -0.1 7.8 -0.48 11.3 1.46 11.88Z" stroke-width="1"></path><path id="vector_10" fill="#3d9cfb" d="M94.8548 55.3034c-3.9 0.1 -6 4.1 -0.2 4.1 12.28 0 23.38 0.38 24 -2.14 0.62 -2.52 -3.94 -2.48 -23.8 -1.96Z" stroke-width="1"></path><path id="vector_11" fill="#3d9cfb" d="M130.675 307.824c2.876 2.32 6.1878 4.04 9.74 5.06 44.96 9.64 34 -53.74 9.54 -71.46 -5.64 3.32 -14.6 3.32 -14.6 3.32s-0.58 0.58 -5.06 4.28c40.7 18.88 34.08 64.44 0.38 58.8Z" stroke-width="1"></path><path id="vector_12" fill="#3d9cfb" d="M132.4348 50.4234c0 2.14 0 4 2 3.5 2.36 -0.52 2 -5.26 2 -14.98 -0.2 -16 0.78 -18.5 -1.36 -18.9 -4 -0.57998 -2.64 21.04 -2.64 30.38Z" stroke-width="1"></path><path id="vector_13" fill="#3d9cfb" d="M232.516 58.6034c-3.5 -0.2 -25.6 -3.7 -25.7 0.96 0 0.5304 0.21 1.0392 0.586 1.4142 0.374 0.3752 0.882 0.5858 1.414 0.5858 8.18 0 22.78 1.16 26.1 1.36 3.32 0.2 1.16 -3.94 -2.4 -4.32Z" stroke-width="1"></path><path id="vector_14" fill="#3d9cfb" d="M295.214 73.9834c0 -1.18 -3.7 -2.34 -4.1 -0.4 -0.4 1.94 -2.52 13.44 0.78 14 3.3 0.56 3.32 -12.44 3.32 -13.6Z" stroke-width="1"></path><path id="vector_15" fill="#3d9cfb" d="M192.075 67.9434c9.539 0 10.519 -15.58 0 -15.38 -11.54 0 -9.6 15.38 0 15.38Z" stroke-width="1"></path><path id="vector_16" fill="#3d9cfb" d="M194.935 105.5234c0.2 -6.42 -1.26 -16.96 -0.38 -28.62 0.14 -2 -1.78 -2.36 -3.32 -0.58 -0.98 1.12 -0.58 6.7 -0.58 30.96 0 2.52 4.28 2.52 4.28 -1.76Z" stroke-width="1"></path><path id="vector_17" fill="#3d9cfb" d="M232.076 35.4234c0.098 -0.8576 0.012 -1.7266 -0.256 -2.5474 -0.266 -0.821 -0.708 -1.5746 -1.292 -2.2096 -0.586 -0.6348 -1.3 -1.136 -2.096 -1.4692 -0.798 -0.3332 -1.656 -0.4908 -2.52 -0.4616 -0.862 0.029 -1.708 0.244 -2.48 0.6302 -0.772 0.386 -1.452 0.9344 -1.994 1.6072 -0.54 0.6728 -0.93 1.4544 -1.14 2.2916 -0.212 0.837 -0.24 1.7098 -0.082 2.5588 -0.1 0.8576 -0.014 1.7264 0.254 2.5474 0.266 0.821 0.708 1.5746 1.292 2.2094 0.586 0.635 1.3 1.1362 2.098 1.4694 0.796 0.3332 1.654 0.4906 2.518 0.4616 0.862 -0.0292 1.708 -0.2442 2.48 -0.6302 0.774 -0.3862 1.452 -0.9344 1.994 -1.6072 0.54 -0.673 0.93 -1.4546 1.142 -2.2916 0.21 -0.8372 0.238 -1.71 0.082 -2.5588Z" stroke-width="1"></path><path id="vector_18" fill="#3d9cfb" d="M270.874 67.1634c-2.14 0.2 -2.34 3.7 -2.34 5.06 -0.112 0.7502 0.022 1.5166 0.384 2.1838 0.36 0.6674 0.928 1.1994 1.616 1.5162 1.9 0.98 2.48 -8.96 0.34 -8.76Z" stroke-width="1"></path><path id="vector_19" fill="#3d9cfb" d="M280.794 60.5434c0.2 -2.72 -3.7 -3.5 -4 -0.78 -0.3 2.72 -3.88 19.2 0.78 20.64 2.26 0.74 2.26 -1.1 3.22 -19.86Z" stroke-width="1"></path><path id="vector_20" fill="#3d9cfb" d="M194.5548 42.0436c0 -7.78 0 -19.26 -0.6 -22 -0.44 -2.3201 -3.58 -2.0001 -3.88 2.34 -0.3102 7.1382 -0.2502 14.2878 0.18 21.42 0.2 3.3 4.3 3.9 4.3 -1.76Z" stroke-width="1"></path><path id="vector_21" fill="#3d9cfb" d="M130.075 308.784c-16.54 -9.14 -22.58 -18.88 -25.12 -29.58 -3.3 -2.14 -6 -9.54 -6 -9.54s-10.14 7.2 -18 1.16c3.32 8.18 8.9602 39.34 8.9602 39.34s25.1998 1.14 40.1598 -1.38Z" stroke-width="1"></path><path id="vector_22" fill="#3d9cfb" d="M360.434 300.224c-0.39 0.148 -0.712 0.432 -0.908 0.8 -0.196 0.368 -0.252 0.796 -0.156 1.202 0.096 0.406 0.334 0.764 0.674 1.006s0.756 0.352 1.172 0.312c3.718 -0.544 7.216 -2.094 10.12 -4.48 4.68 -3.52 7.6 -10.14 5.64 -11.3 -0.24 -0.196 -0.522 -0.326 -0.826 -0.382 -0.302 -0.054 -0.614 -0.032 -0.906 0.066 -0.292 0.098 -0.554 0.268 -0.762 0.494 -0.208 0.226 -0.354 0.502 -0.428 0.802 -1.62 6.1 -7.86 9.14 -13.62 11.48Z" stroke-width="1"></path><path id="vector_23" fill="#3d9cfb" d="M359.456 294.004c-0.96 0.38 -2.34 1.36 -1.16 2.52s5.84 0.4 8.96 -2.34c8.64 -7.86 3.04 -11.14 1.16 -7.58 -0.914 1.776 -2.18 3.348 -3.72 4.62 -1.54 1.272 -3.324 2.218 -5.24 2.78Z" stroke-width="1"></path><path id="vector_24" fill="#3d9cfb" d="M287.416 70.8634c0.4 -5.64 1.18 -8.36 -1.36 -8.36 -1.16 0 -2.14 1.74 -2.34 4.66 -0.2 2.92 -2.5 14.74 0 15.78 3.16 1.28 3.52 -8.58 3.7 -12.08Z" stroke-width="1"></path><path id="vector_25" fill="#3d9cfb" d="M357.896 288.744c-1.74 0.78 -1.56 2.52 0.2 2.92 3.12 0.52 7.3 -3.28 8.38 -6.24 0.96 -2.52 -1.76 -3.88 -2.92 -1.56 -1.232 2.26 -3.244 3.994 -5.66 4.88Z" stroke-width="1"></path><path id="vector_26" fill="#3d9cfb" d="M325.576 106.1036c7.18 -1.3 46.54 -10.32 50.44 -12.26 2.72 -1.36 3.1 -4.48 0.96 -4 -4.28 1.18 -48 11.5 -53.74 12.46 -2.5 -56.42 -1.66 -59.14 -5.06 -58 -1.74 0.78 -1.36 2.92 -0.96 12.46 0.78 14.22 2.14 37.58 1.74 41.28 -19.68 -27.56 -21.4 -34.58 -29.78 -44.98 -2.14 -2.72 -4.28 0.4 -2.34 3.12 13.82 20.24 22.98 36 28.82 44.2 -50 -19.64 -48.66 -26 -51.8 -21.8 -0.78 1.16 0.58 2.14 1.56 2.72 16.56 10.12 41.86 20.24 51.4 24 2.8 1.0242 5.82 1.2998 8.76 0.8Z" stroke-width="1"></path><path id="vector_27" fill="#3d9cfb" d="M230.174 99.3034c-4.48 -0.18 -28 -0.96 -29 1.76 -0.78 2.34 5.06 2 10.5 2.14 6.16 0.4554 12.342 0.4554 18.5 0 4.3 -0.52 4.48 -3.72 0 -3.9Z" stroke-width="1"></path><path id="vector_28" fill="#3d9cfb" d="M309.036 269.664c-0.4 68.72 105.14 48.86 76 -16.76 -19.74 -36.2 -77.76 -18.48 -76 16.76Zm41.04 -9.16c21.42 2.54 9.34 32.72 -8.38 22 -8.92 -5.44 -3.46 -23.36 8.38 -22Zm-16.16 -20.64c2.14 6 4.86 8.76 8 18.5 -15.58 9.16 -9.74 32.12 8 30.76 1.56 6.62 2.54 12.86 3.9 19.28 -46 2.9 -54.48 -54.16 -19.86 -68.54h-0.04Zm23.76 68c-1.38 -6.42 -2.34 -12.66 -3.9 -19.28 2.2 -0.68 4.236 -1.81 5.978 -3.318s3.152 -3.362 4.142 -5.442c6.82 2.14 12.66 5.64 19.48 7.4 -2.06 5.404 -5.522 10.164 -10.032 13.784 -4.512 3.622 -9.906 5.974 -15.628 6.816l-0.04 0.04Zm7.78 -37.58c-0.508 -3.47 -2.23 -6.644 -4.86 -8.96 4 -4.48 8 -10.9 12.84 -16.16 6.484 5.742 10.698 13.618 11.88 22.2 -6.2 1.12 -13.24 1.7 -19.82 2.88l-0.04 0.04Z" stroke-width="1"></path></g><g id="group 3"><path id="vector_29" fill="#001434" d="M81.6156 145.6236c9.14 0.28 7.6 1.64 7.6 -13.82 0 -2.72 -2.14 -2.72 -6.82 -2.34 -2 0.2 -2.52 0.98 -2.52 2.54 0 11.1 -0.6 13.62 1.74 13.62Z" stroke-width="1"></path><path id="vector_30" fill="#001434" d="M113.5552 68.1436c-2.74 1.36 -13.24 6.62 -16.16 8s-3.5 6.42 -0.4 5.06c4.48 -2.14 16.76 -8.38 18.3 -9.34 1.54 -0.96 0.98 -5.08 -1.74 -3.72Z" stroke-width="1"></path><path id="vector_31" fill="#001434" d="M94.6554 101.4436c-0.3 3.7 -0.14 40.1 0 41.86 0.26 2.9 2.16 2.32 6.82 2.32 2 0 2.54 -0.96 2.54 -2.52 0 -44.44 1.26 -44.4 -1.76 -44.4 -3.5 0 -7.34 -0.18 -7.6 2.74Z" stroke-width="1"></path><path id="vector_32" fill="#001434" d="M57.2752 145.6234c1.76 0 2 -0.58 2 -3.3 0 -3.12 0 -30.38 -0.2 -32.9 -0.2 -2.92 -1.7602 -2.54 -7.0202 -2.54 -3.32 0 -2.32 0.14 -2.32 36 -0.04 3.34 2.1002 2.84 7.5402 2.74Z" stroke-width="1"></path><path id="vector_33" fill="#001434" d="M85.1154 94.4236c2 -0.98 2 -3.3 2 -7 0 -58 -0.98 -61.5 3.7 -66.4 6.82 -7.24008 20.24 -5.24008 66.78 -6.24008 29.4 -0.38 66.2006 -1.16 71.4606 -0.58 17.18 1.66 11.28 6.74008 11.28 69.90008 0 27.84 -1.16 30.38 2 30.76 3.16 0.38 1.16 -36.6 3.1 -84 0.6 -15.38008 -3.1 -19.46008 -16 -20.62008 -9.54 -1 -104.1806 1.42 -114.8806 1.16 -29.78 -0.58 -32.12 8.76008 -31.34 32.00008 1.5 35.58 -2.22 52.8 1.9 51.02Z" stroke-width="1"></path><path id="vector_34" fill="#001434" d="M37.6154 145.6234c4.88 0 7.2 0.4 7.2 -3.7 0.2 -16.54 1.18 -17.7 -2.52 -18.1 -3.7 -0.4 -7.02 0 -7.02 2.54 0.2 16.54 -0.38 19.22 2.34 19.26Z" stroke-width="1"></path><path id="vector_35" fill="#001434" d="M178.7756 61.1234c3.5 0.2 3.12 -3.46 -0.38 -3.7 -11.18 -0.74 -11.1 -0.9398 -13.64 0.6002 -26 15.74 -11.0398 12.4998 -29.3998 8.5598 -3.5 -0.78 -3.2802 2.88 -1.1602 4s10.5 4 13.24 4c2.34 0 16.3402 -10.5198 19.6602 -13.0398 1.14 -1.16 7.9198 -0.6402 11.6798 -0.4202Z" stroke-width="1"></path><path id="vector_36" fill="#001434" d="M125.4348 128.6834c-0.4 2 0.96 2 2 2 5.06 0 25.7 1.74 26.68 -1.18 0.78 -2 -1.56 -2 -16 -2.32 -6.04 -0.24 -12.04 -1.02 -12.68 1.5Z" stroke-width="1"></path><path id="vector_37" fill="#001434" d="M215.574 40.8834c-2.54 1.76 -11.84 8.82 -13.82 10.12 -1.54 1.02 -0.78 5.46 1.56 3.7 2.92 -2.14 12.26 -8.96 14 -10.12 1.74 -1.16 1.18 -5.84 -1.74 -3.7Z" stroke-width="1"></path><path id="vector_38" fill="#001434" d="M112.375 145.6234c6.62 0 7.8 1.18 7.4 -4.28 -0.18 -3.12 -0.38 -53.14 -0.38 -55.88 0.2 -3.7 -3.12 -2.52 -7.02 -2.52 -2.52 0 -2.92 0.18 -2.92 19.46 0 16.74 0.5002 36.6 0.4002 40.5 -0.06 2.54 0.9598 2.72 2.5198 2.72Z" stroke-width="1"></path><path id="vector_39" fill="#001434" d="M71.6952 145.6234c2 0 2.52 -0.96 2.52 -2.52 0 -24.66 1.12 -24.86 -1.74 -24.92 -3.9 0 -7.6 -0.4 -7.6 2.72 0 26.6 -2.24 24.88 6.82 24.72Z" stroke-width="1"></path><path id="vector_40" fill="#001434" d="M238.076 221.184c-1.28 27.22 -12.28 16.74 -28.82 7.2 -4.88 -2.72 -5.88 1.02 -3.7 2.52 21.3 14.86 35.62 19.48 35.62 -9.14 -0.1 -4.46 -3.1 -3.32 -3.1 -0.58Z" stroke-width="1"></path><path id="vector_41" fill="#001434" d="M322.076 156.7234c-6.032 -6.1988 -14.15 -9.9402 -22.78 -10.5 4.48 -22.6 -20 -25.32 -23.56 -2.74 -0.58 2.54 2.92 5.46 3.9 0.98 4.28 -19.28 19.08 -15.18 15.58 2 -18.3 13.64 8.56 42.64 26 40.12 -1.36 4.66 -3.12 10.5 -4.68 15.5806 -11.68 0 -33.68 -12.4606 -44.96 -25.1206 4.28 -8.58 -9.36 -13.24 -2.74 -21.04 1.38 -1.54 -0.58 -4.48 -2.72 -2.92 -5.64 4 -4 11.1 0.4 16.76 3.5 4.46 0.76 12.84 -2.16 15.38 2.16 -13.84 -14.4 -62.9 -47.3 -62.7 -30.181 -1.56 -80.6208 7.78 -89.5608 37.58 -19.08 -11.88 -93.66 -15.58 -100.86 25.3 -3.32 13.64 -0.4 27.4606 8.18 40.0006 -0.2 8 3.7 16.36 8.56 22.98 -13.24 0.38 -29.60008 0.78 -23.36 18.68 -16.74008 8.58 -12.26008 49.26 11.68 48.48 2.34 5.66 2.14 6.24 7 8 -0.76 6.62 -3.5 29.4 -4.66 39.72 -0.2 2.32 -6.8202 5.24 -9.7402 7.78 -1.5724 1.03 -2.7952 2.512 -3.5064 4.252 -0.7112 1.74 -0.87722 3.656 -0.4762 5.492 0.4012 1.836 1.3504 3.508 2.7224 4.792 1.3718 1.286 3.1016 2.124 4.9604 2.404 27.0598 0.38 49.4598 0 82.7398 0.38 33.7 0.4 52.58 1.36 53.56 -4.66 5.84 2 64.641 2.52 74.761 1.16 8 -0.2 21.02 2 24.54 -2.34 5.24 -6.62 -2.34 -10.7 -2.74 -16.16 24.14 -32.9 35.64 -33.28 12.28 -82.74 2.92 -7.8 -5.66 -14.42 -2.92 -22.2 36.98 -16.36 35.42 -13.04 48.86 -54.52 3.98 -19.2206 19 -32.9606 3 -50.1806Zm-152.6408 8.38c19.82 -14.5 56.5608 -25.02 59.3808 -22.2 -3.826 0.4684 -7.456 1.9456 -10.52 4.28 -0.266 0.226 -0.454 0.5298 -0.536 0.868 -0.084 0.3384 -0.058 0.6942 0.074 1.0172 0.13 0.323 0.358 0.5968 0.654 0.7824 0.294 0.1858 0.64 0.274 0.988 0.2524 3.02 -0.18 10.18 -6.74 15.56 -1.36 -10.7 0.58 -21.6 10 -16.16 21.04 -4 -0.6 -13.86 5.1 -10.7 8.36 2.5 2.58 7.2 -6 13.44 -4 2.72 0.98 3.3 6.48 6.42 6.82 2.14 0.24 2.54 -2.52 1.36 -3.88 6.24 0.76 15.2 -2.54 18.88 -7.02 10.52 23.24 4.88 37.2406 -23.16 47.2406 -9.34 3.3 -18.88 4.86 -34.001 4.86 -14.4602 -13.316 -23.1264 -31.7692 -24.1398 -51.4006 -0.1022 -1.0744 0.0698 -2.1572 0.5 -3.1472 0.4302 -0.9898 1.1046 -1.8544 1.96 -2.5128Zm65.0208 -12.46c-1.16 6.22 -2.14 13.82 -2.72 20.24 -16.36 -0.96 -11.1 -19.86 2.72 -20.24ZM35.8552 218.644C4.31514 154.7834 94.855 145.6234 127.175 164.3234c21.22 14.8 17.1402 30 20.6402 46.7206 2.54 10.92 9.34 10.52 10.32 18.32 0.58 6 -10.9 12 -18 13.04 9.74 -11.88 7.78 -34.28 -6.62 -37.2 -1.564 -0.29 -3.0422 -0.93 -4.3238 -1.872 -1.2816 -0.942 -2.3332 -2.162 -3.0764 -3.5686 -2 -3.7 -3.1198 -6.82 -13.0398 -7.6 -13.06 -1.16 -47.12 -5.26 -55.1 -23.36 -1.38 -2.92 -3.12 -1.18 -3.32 2.34 -20.58 6.62 -24.24 27.84 -18.58 46.1606 0 0.36 -0.22 0.76 -0.22 1.34Zm76.34 -8.76 -19.86 -15.1806c2.24 -2.24 0 -0.3 23.56 2 2.76 6.6006 0.58 11.3406 -3.7 13.1806Zm-72.82 11.42c20.64 7.6 28.82 -3.3 28.22 -13.42 -0.78 -13.0606 -17.12 -17.1406 -29.78 -7.8 0.0124 -3.1622 0.4702 -6.3066 1.3598 -9.3406 5.3882 -2.8452 11.6738 -3.4768 17.5202 -1.76 0.2296 0.1276 0.4824 0.2086 0.7434 0.2384 0.2612 0.0298 0.5256 0.0078 0.7782 -0.0646 0.2526 -0.0724 0.4884 -0.194 0.694 -0.3576 0.2056 -0.1636 0.377 -0.3662 0.5044 -0.5962 1.76 -5.24 -11.08 -4.66 -17.7 -2.92 3.5796 -5.01 8.711 -8.7006 14.6 -10.5 6.62 9.54 19.66 14.8 32.12 17.72 -5.46 5.64 -3.9 19.2606 3.7 22.5806 11.48 4.86 32.32 -1.36 28.22 -16.5606 2.74 4.3006 4.8798 10.9206 11.8798 11.1006 3.9 0.58 8.0002 1.36 9.5402 12.46 1.76 13.44 -9.54 22.98 -11.68 24.74 -16.54 -6.82 -40.1 -2.34 -50.62 12.26 -3.5 -12.86 -13.62 -10.32 -30.76 -10.9 -6.18 -7.36 -10.82 -17.18 -9.34 -26.88Zm2.14 -19.08c4 -3.3006 15.18 -4.4806 18.88 -0.96 3.32 3.5 5.4598 12 0.3998 15.56 -6.24 -4.8 -14.2198 -10.64 -19.2798 -14.54v-0.06Zm66.38 80.8c10.52 7.8 30.58 1.76 27.08 -10.12 -3.04 -9.7 -9.5602 -6.64 -6.2402 -3.3 7.4 8.36 -3.8998 15.38 -12.6598 12.46 -2.92 -4 -2.4 -10.54 -1.16 -13.82 0.36 -1 -0.2 -2.34 -1.16 -2.34 -3.52 -0.2 -4.68 9.14 -3.12 14.2 -7.4 -3.7 -11.68 -11.68 -8.18 -19.66 0.38 -0.98 0 -2.72 -0.98 -2.72 -2.52 0 -5.06 6 -4 11.1 -24.14 10.7 -19.86 -15.58 8.96 -20.44 23.16 -3.9 48.86 14.78 50.22 38.54 1.24 19.84 -32.08 32.12 -48.76 -3.84v-0.06Zm15.7798 24.34c-10.6348 1.008 -21.3232 1.336 -32 0.98 -1.9464 -11.266 -4.4832 -22.422 -7.5998 -33.42 2.52 0.96 7.4 1.54 14.4 -2 6.5 15.42 14.4998 28.66 25.1998 34.5v-0.06Zm-108.25986 -11.48c-2.92 -10.32 -0.96002 -17.52 2.53998 -21.8 -0.98 11.86 2.72008 29.4 11.48008 36.98 -7.2 -1.3 -11.48006 -6.16 -14.02006 -15.12v-0.06Zm12.86006 -29.02c1.347 0.01 2.6556 0.45 3.7348 1.256 1.0794 0.806 1.873 1.934 2.2652 3.224 2.72 6 14.5998 -2 21.3998 7.8 -6.88 2.42 -12.7798 0.94 -10.8998 4 1.56 2.54 8.96 0.4 13.06 -0.58 1.279 2.832 2.0638 5.862 2.32 8.96 -3.105 1.228 -6.3866 1.95 -9.72 2.14 -2.84 0 -2.2602 6 10.1198 2.14 -0.4 11.3 -13.8198 16.94 -24.9198 14.8 -9.32 -1.62 -22.56008 -42.5 -7.36 -43.68v-0.06Zm8.18 48.48c36.8 5.66 37.76 -49.64 1.74 -45.36 -0.4946 -1.36 -1.264 -2.604 -2.2606 -3.652 -0.9966 -1.048 -2.199 -1.88 -3.5316 -2.444 -1.3326 -0.564 -2.7672 -0.846 -4.2138 -0.828 -1.4468 0.016 -2.8746 0.33 -4.1942 0.924 -1.76 -7.2 -0.5798 -9.74 7.4002 -10.7 11.1894 -1.134 22.45 -1.394 33.68 -0.78 7.78 0.58 8.18 0.58 11.68 11.1s14.6 52.56 10.32 55.48c-2.92 2 -6.2402 2.54 -27.4602 1.76 -20.68 -0.78 -21.5398 -0.38 -23.1598 -5.44v-0.06Zm35.24 68.54c-17.14 0 -40.7002 0.4 -42.6402 0 -0.9408 -0.146 -1.8274 -0.536 -2.5722 -1.128 -0.745 -0.594 -1.3224 -1.37 -1.6758 -2.254 -0.3532 -0.884 -0.47 -1.846 -0.3388 -2.788 0.1312 -0.944 0.5058 -1.836 1.0868 -2.59 1.74 -2.52 8.1602 -5.46 10.7002 -7.6 12.9178 2.57 25.5762 6.304 37.82 11.16 0 6.04 6 5.26 -2.38 5.26v-0.06Zm3.12 -9.54c-11.856 -4.674 -24.1134 -8.254 -36.62 -10.7 1.18 -10.32 3.9 -32.72 4.68 -39.72 5.26 0.58 23.3598 1.16 30.1798 1.16 14.98 -0.38 19.6602 -0.58 18.8802 -12.84 12.2218 0.404 24.4568 -0.116 36.6 -1.56 9.74 5.44 22.2 6.82 32 1.36 0.2 23.16 1.16 35.62 1.16 61.32 -12.94 -6.84 -43.28 -6.42 -70.48 -11.86 -0.18 -5.46 -1.16 -25.52 -1.56 -29.8 -0.38 -4.66 -4.18 -1.36 -3.88 4.28 0.3 5.64 1.26 22.4 1.36 26.3 0.02 3.16 -10.78 7.84 -12.32 12.12v-0.06Zm85.8598 8.18c-6 3.7 -71.6598 1.16 -76.9198 1.36 -4.28 0.2 -6.42 -5.26 -4.28 -8.18 2.72 -3.7 8.96 -7.4 11.1 -10.32 21.8 5.46 53.7398 3.32 71.6598 12.46 -0.4 2.2 -0.6 3.96 -1.56 4.74v-0.06Zm-5.8398 -72.24c-6.0056 1.72 -12.391 1.588 -18.32 -0.38 39.34 -2.34 24 -50.62 -2.32 -61.14 0.564 -0.474 1.086 -0.996 1.56 -1.56 4.665 -0.498 9.2442 -1.608 13.62 -3.3 17.32 13.68 32.52 55.74 5.46 66.44v-0.06Zm85.8608 69.32c-6.62 4.86 -62.8808 0.2 -71.8408 0.98 -3.12 0.26 -2.9202 -2.14 -2.7402 -4.48 17.72 -5.26 46.141 -8.58 66.981 -7.8 4.48 4.36 9.74 7.28 7.6 11.36v-0.06Zm20.24 0.38c-0.96 1.18 -5.84 1.18 -16.34 0.98 2.52 -6.42 -2.54 -10 -8.58 -15.58v-1.36c6.704 3.086 14.042 4.552 21.42 4.28 0.64 3.96 6.24 8.64 3.5 11.74v-0.06Zm-3.3 -15.76c-7.478 0.258 -14.9 -1.394 -21.56 -4.8 -0.2 -4.3 0.78 -30.18 -0.98 -41.68 -1.16 -6.42 -4.66 -9.14 -3.88 -2.72 2.34 20.84 0.78 35.04 0.78 49.06 -22.252 -0.376 -44.451 2.246 -66.0008 7.8 0.18 -27.08 -1.18 -38 -1.18 -62.7 2.0498 -1.758 3.7642 -3.872 5.06 -6.24 1.4984 1.01 2.9282 2.12 4.28 3.32 0.98 29.78 46.5408 12.66 52.3808 -5.46 13.82 -0.78 35.82 -6.22 44.2 -13.82 21.74 45.56 9.1 46.74 -13.1 77.3v-0.06Zm-85.081 -87.42c1.7866 -5.61 4.715 -10.79 8.6012 -15.214 3.886 -4.422 8.6454 -7.992 13.979 -10.486 19.2408 10.12 18.2608 14.98 24.7208 14.98 7.8 -0.96 12 6 7.8 12 -1.18 -1.76 -3.12 -4.86 -5.84 -4.68 -1.18 0 -0.62 1.58 0 2.54 5.08 8 6.42 20.24 -4.88 31.74 -9.74 -2.14 -8.76 -13.44 -11.3 -13.44 -1.16 0 -1.76 1.36 -1.54 2.34 2 9 5.06 12 9.54 14 -4.252 3.382 -9.274 5.656 -14.6208 6.62 -7.78 -2.92 -4.46 -16.16 -8.36 -16.16 -3.12 0 -2.34 13.04 2.72 17.12 -11.88 0.98 -18.8402 -5.18 -13.8202 -18.68 0.36 -0.98 1.1602 -2.72 0.2002 -2.92 -2.74 -0.4 -4.48 3.3 -4.88 5.06 -1.36 -0.98 -2.52 -2 -3.3 -2.54 2.0566 -7.23 2.3922 -14.838 0.9798 -22.22v-0.06Zm100.001 -20.64c8.64 -15.04 -11.78 -43.22 -16.16 -39.34 -1.74 1.38 2.54 4.48 5.46 8.38 16.82 21.26 4 30.5 4.48 40.3 0.38 6.62 6 11.68 2.92 17.14 -3.32 6 -24.14 12.84 -40.5 14.22 1.616 -4.492 1.888 -9.358 0.78 -14 9.34 -10.32 2.34 -20.46 -9.34 -20.46 -4.34 0 -2.8 -2.96 -28.6208 -17.9 -1.76 -0.98 0.58 -3.7 1.74 -6.42 1.36 -2.14 -0.98 -3.52 -3.3 -0.4 -3.52 4.88 -5.26 8.56 0.96 11.3 -8.7504 4.77 -15.7552 12.202 -20 21.22 -3.0818 -10.71 -9.0046 -20.386 -17.14 -28 3.0852 -1.652 5.7004 -4.062 7.6 -7 10 1.16 25.8798 0 30.1798 -8.78 37.561 -0.96 60.941 -16.74 64.641 -29.0006 7 -4.68 12.26 -7.2 14.2 -15.38 11.3 11.68 31.54 23.7606 44.98 24.5206 -9.96 32.9 -11.98 37.16 -42.82 49.66l-0.06 -0.06Zm40.7 -75.1606c0.58 -2.72 2.16 -18.98 -2.54 -19.86 -2.68 -0.5 2 7.3 -1.16 18.3 -8.18 -2.52 -18 -15.76 -16 -24.52 3.42 -14.56 42.68 6.9 29.4 27.26 -3.256 0.5112 -6.59 0.124 -9.64 -1.12l-0.06 -0.06Z" stroke-width="1"></path><path id="vector_42" fill="#001434" d="M82.0754 234.604c-2 3.9 7.4 8.96 16.54 6.24 8.58 -2.54 7.2 -12.26 4.48 -13.64 -2.4 -1.16 -19.52 4.1 -21.02 7.4Z" stroke-width="1"></path><path id="vector_43" fill="#001434" d="M80.075 226.244c6.46 0 5.84 -5.18 2.34 -4.48 -11.1 3.3 -4.66 -11.88 -2 -15.78 0.3342 -0.414 0.4904 -0.944 0.434 -1.472 -0.0562 -0.53 -0.3202 -1.014 -0.734 -1.348 -0.4138 -0.334 -0.9432 -0.49 -1.4722 -0.434 -0.5288 0.056 -1.0136 0.32 -1.3478 0.734 -4.36 3.22 -12.22 22.78 2.78 22.78Z" stroke-width="1"></path><path id="vector_44" fill="#001434" d="M180.3348 192.3634c16.54 6.22 34.2592 -17.52 16.16 -26.68 -11.88 -6 -27.06 7.4 -22.98 19.28 0.5028 1.6692 1.3778 3.2024 2.5592 4.4842 1.1814 1.2818 2.6382 2.2788 4.2608 2.9158Zm-3.5 -14.42c1.16 -4.86 7.4 -9.14 12.84 -9.54 -1.3688 6.7578 -2.3438 13.5892 -2.92 20.46 -6.82 1.74 -11.1 -5.46 -9.92 -10.92Z" stroke-width="1"></path><path id="vector_45" fill="#001434" d="M226.076 202.884c-2.65 1.918 -5.904 2.814 -9.16 2.52 -2.54 -0.34 -2.34 3.7 2 4 1.574 0.22 3.178 0.088 4.696 -0.386 1.518 -0.472 2.914 -1.278 4.084 -2.354 2.68 -2.62 0.38 -5.74 -1.62 -3.78Z" stroke-width="1"></path><path id="vector_46" fill="#001434" d="M24.175 145.6236c4.48 0.2 6.96 0.4 7.02 -2.52 0.1 -5.84 0.78 -7.02 -2 -7.4 -2.78 -0.38 -7.78 -0.58 -7.58 2.92 0.04 2.34 -1.14 6.82 2.56 7Z" stroke-width="1"></path><path id="vector_47" fill="#001434" d="M213.234 191.0036c1.58 0.78 4.54 -3.48 10 -1.76 3.36 1.34 5.18 -6.8 -5.66 -4 -4.34 1.08 -7.06 4.98 -4.34 5.76Z" stroke-width="1"></path><path id="vector_48" fill="#001434" d="M174.8752 167.8236c2.54 0 6.82 -6 14.8 -6.22 0.2748 0.0006 0.547 -0.0554 0.7992 -0.1646 0.2522 -0.109 0.4792 -0.269 0.667 -0.4698 0.1876 -0.2008 0.332 -0.4382 0.4238 -0.6972 0.0918 -0.2592 0.1292 -0.5344 0.11 -0.8084 -0.4 -4.68 -13.32 0.12 -17.34 4.48 -1.82 1.92 -1.98 3.88 0.54 3.88Z" stroke-width="1"></path><path id="vector_49" fill="#001434" d="M221.216 198.4034c4.68 3.7006 10.52 -1.38 11.1 -4.68 0.4 -2.72 -1.36 -4.28 -2.52 -2 -0.526 1.0164 -1.304 1.8802 -2.26 2.5074 -0.958 0.6272 -2.06 0.9966 -3.2 1.0726 -0.396 -0.027 -0.774 -0.1708 -1.088 -0.4128 -0.312 -0.2422 -0.548 -0.5718 -0.672 -0.9472 -0.76 -2 -3.5 -1.76 -3.88 0.78 0 3.16 -7.28 2.8 -10.52 -0.6 -0.76 -0.78 -2 -1.14 -2.54 -0.38 -2.44 3.06 9.52 11.7406 15.58 4.66Z" stroke-width="1"></path></g></g></svg>