<?xml version="1.0" encoding="utf-8"?>
<!-- Generator: Adobe Illustrator 20.0.0, SVG Export Plug-In . SVG Version: 6.00 Build 0)  -->
<svg version="1.1" id="Laag_1" xmlns="http://www.w3.org/2000/svg" xmlns:xlink="http://www.w3.org/1999/xlink" x="0px" y="0px"
	 viewBox="0 0 1987.7 1675.7" style="enable-background:new 0 0 1987.7 1675.7;" xml:space="preserve">
<g>
	<path d="M724,960.4c-4.4-9.1-16.2-12.7-24.3-6.7c-78.3,58.4-200.6,58.8-251.3,34.7c-9.8-4.7-20.8,4.9-20.6,15.8
		c0.7,41,9.9,137.4,71.3,266.9c0,0,48.4,189.5,22.4,326.2c-19.4,101.6,165.6,73.3,245.3,67.9c33.3-2.2,59.7-28.4,57.2-61.7
		C812.6,1453.5,778.8,1073.6,724,960.4z"/>
	<path d="M1976.4,340.3c-43.1-102.1-231.3-466.7-658.6-289.6c-10.1,4.2-11.3,18.1-2,23.9c35.8,22.4,103.2,79.9,145.4,210.7
		c3.9,12.1-6.3,24.1-18.8,22c-5.8-1-10.5-4.8-12.8-10.2c-15.4-36.6-86.4-181-275.2-244.6c-103.9-35-217.1-35-321,0
		c-188.8,63.7-259.9,208-275.2,244.6c-2.3,5.4-7,9.2-12.8,10.2c-12.5,2.1-22.7-9.9-18.8-22C568.8,154.4,636.2,97,672,74.6
		c9.3-5.8,8.1-19.7-2-23.9C242.7-126.5,54.5,238.2,11.3,340.3c-7.2,17-8.8,35.7-4.8,53.7c39.4,177.6,224.7,505.5,409.9,528.3
		c154.3,19,256.2-81.9,292.2-125.3c12.9-15.5,36.8-14.7,49.1,1.3c97.3,126.4,109.2,807.2,130.9,839.9c28.9,43.2,180.5,45,210.5,0
		c21.7-32.6,33.6-713.4,130.9-839.8c12.3-16,36.2-16.8,49.1-1.3c36,43.4,137.9,144.3,292.2,125.3
		c185.2-22.8,370.5-350.7,409.9-528.3C1985.2,375.9,1983.6,357.2,1976.4,340.3z M769,612.4c-28.6,0-51.9-32-51.9-71.4
		c0-39.5,23.2-71.5,51.9-71.5c28.6,0,51.8,32,51.8,71.5C820.8,580.4,797.6,612.4,769,612.4z M1218.7,612.4
		c-28.6,0-51.8-32-51.8-71.4c0-39.5,23.2-71.5,51.8-71.5c28.6,0,51.9,32,51.9,71.5C1270.6,580.4,1247.4,612.4,1218.7,612.4z"/>
	<path d="M1539.3,988.4c-50.7,24-173,23.7-251.3-34.7c-8.1-6-19.9-2.4-24.3,6.7c-54.7,113.2-88.5,493.1-100,643.1
		c-2.5,33.3,23.9,59.4,57.2,61.7c79.8,5.4,264.7,33.7,245.3-67.9c-26.1-136.7,22.4-326.2,22.4-326.2
		c61.4-129.5,70.6-225.9,71.3-266.9C1560,993.4,1549.1,983.8,1539.3,988.4z"/>
</g>
</svg>
