<svg xmlns="http://www.w3.org/2000/svg" viewBox="0 0 400 400" id="Esports-Tournament-Players-1--Streamline-Manila.svg" height="400" width="400"><desc>Esports Tournament Players 1 Streamline Illustration: https://streamlinehq.com</desc><g><path d="M148.122 307.224c6.236 0 10.524 -4.092 10.524 -8.38a9.766 9.766 0 0 0 -9.55 -9.936c-7.2 -0.4 -30 -0.2 -39.75 0 -9.354 0.2 -8.38 17.926 -1.364 18.316s24.162 -0.194 40.14 0Z" fill="#3d9cfb" stroke-width="1"></path><path d="M131.364 326.906c3.314 -1.56 3.508 -4.288 3.898 -11.692 4.286 0.2 8.378 0 11.69 0 29.816 -0.78 25.138 -33.906 0.976 -34.686 -2.144 0 -9.354 -0.2 -13.446 -0.2a7.956 7.956 0 0 0 -2.338 -7.016c-3.118 -2.728 -8.77 -0.974 -13.056 -0.39 -5.65 -7.014 -10.132 -11.3 -13.64 -10.716 -5.846 1.168 -7.6 13.64 -8.964 14.224 -1.948 0.78 -12.276 -3.896 -15.4 -1.364 -0.974 0.78 -1.558 2.534 -0.974 5.262 -31.178 1.364 -54.366 -0.976 -54.366 17.342 0 21.63 21.044 19.096 59.042 17.926 -0.974 6.432 -0.584 9.94 0.976 11.304 4.48 3.506 12.47 -5.066 14.418 -4.678 2.924 0.78 4.288 13.056 10.524 13.25 4.482 0.2 6.624 -10.132 8.184 -11.106 1.76 -0.766 9.164 4.098 12.476 2.54Zm-45.986 -16.174c-34.882 0.584 -54.756 3.898 -54.756 -13.056 0 -13.446 15.588 -11.302 50.858 -12.666 0.4 1.364 1.364 3.702 0.4 5.262s-11.692 5.066 -11.692 10.132c0 6.43 13.25 6.43 14.42 7.2 0.964 0.596 0.964 1.958 0.77 3.128Zm44.038 12.08c-2.144 0.976 -7.8 -3.702 -11.888 -2.922s-5.066 10.132 -7.2 10.132 -4.092 -12.276 -9.16 -13.056c-3.702 -0.584 -10.716 7.2 -12.47 5.652 -1.754 -1.754 2.922 -13.444 0.974 -16.564s-14.614 -3.118 -14.614 -5.26 10.912 -6.04 11.886 -8.964c0.78 -2.144 -3.312 -10.912 -2.534 -12.666s10.134 3.312 13.25 2.144c5.068 -1.558 4.678 -12.862 7.8 -13.64 1.364 -0.2 3.702 1.364 7.6 6.236 2.922 3.702 4.87 4.286 8.378 3.702 6.236 -0.974 9.354 -1.754 7.4 4.87a2.358 2.358 0 0 0 2.34 2.73c4.286 0 13.64 0 16.368 0.2 18.316 0.778 21.24 26.11 -2.728 25.332 -6.82 0.39 -10.522 -0.4 -12.472 0.778s-0.786 10.324 -2.93 11.296Z" fill="#3d9cfb" stroke-width="1"></path><path d="M312.974 52.346c-12.08 -0.39 -50.662 -0.2 -67.226 0 -15.978 0.2 -14.224 17.928 -2.144 18.318s40.726 -0.4 68 0c18.908 0.194 15.396 -17.928 1.37 -18.318Z" fill="#3d9cfb" stroke-width="1"></path><path d="M248.866 279.75c-1.754 -1.754 -14.42 -6.238 -17.538 -5.652a13.98 13.98 0 0 0 -4.872 2.338 22.066 22.066 0 0 1 4.482 5.652 47.956 47.956 0 0 1 11.302 3.702c4.676 1.754 8.378 -4.288 6.626 -6.04Z" fill="#3d9cfb" stroke-width="1"></path><path d="M270.884 300.8a23.956 23.956 0 0 1 14.03 -1.56c-2.532 -2.726 -12.276 -9.936 -18.122 -11.302 -3.508 -0.974 -9.158 5.068 -4.872 7.6 3.704 2.334 5.458 3.306 8.964 5.262Z" fill="#3d9cfb" stroke-width="1"></path><path d="M342.6 79.238c24.942 -0.976 26.89 -35.272 -0.39 -35.076 -30.4 0.4 -79.308 -1.168 -101.912 0.586 -9.55 0.778 -15 9.548 -14.81 17.73 0.2 7.6 5.846 16.564 20.266 16.76 37.018 0.194 68.974 0.584 96.846 0Zm-96.652 -5.066c-19.29 0.584 -20.46 -22.02 -5.26 -24.944 22.6 -1.558 70.54 -0.2 100.742 -0.584 21.046 0.4 19.486 24.942 1.17 25.528 -13.258 0.388 -45.8 0.388 -96.658 0Z" fill="#3d9cfb" stroke-width="1"></path><path d="M154.358 176.668c-2.922 0.584 -2.144 7.6 1.17 7.6a65.088 65.088 0 0 1 15.2 1.56c3.118 0.584 5.26 -3.898 3.702 -5.652 -2.924 -3.12 -15.396 -4.482 -20.072 -3.508Z" fill="#3d9cfb" stroke-width="1"></path><path d="M112.658 180.564c-2.144 2.144 -0.4 8.38 3.118 7.016a53.28 53.28 0 0 1 15.784 -3.314c4.676 -0.2 3.508 -6.234 1.364 -7.4 -3.702 -2.148 -18.124 1.75 -20.266 3.698Z" fill="#3d9cfb" stroke-width="1"></path><path d="M195.668 166.534c3.702 -24.358 -6.624 -31.178 -6.624 -31.178 -6.042 2.73 -8.38 -2.142 -8.38 -2.142 -25.526 40.14 -95.678 15.2 -110.096 -28.84 6.82 25.332 -15 9.548 -19.876 2.728C15.812 127.562 23.6 147.438 23.6 147.438s32.542 -16.758 60.4 15.4c15.4 -5.26 28.644 2.924 25.136 12.276 20.864 -9.358 61.2 -4.292 61.2 -4.292 -2.736 -17.148 17.928 -15.004 25.332 -4.288Z" fill="#3d9cfb" stroke-width="1"></path><path d="M134.678 108.076a2.372 2.372 0 0 0 -0.78 4.678c3.506 0.584 3.312 2.336 3.118 2.922 -1.364 7.014 -7.6 1.948 -8.574 5.652 -1.17 4.092 10.328 6.234 13.054 -4.094 1.17 -3.896 0.196 -7.794 -6.818 -9.158Z" fill="#001434" stroke-width="1"></path><path d="M278.29 222.654c1.168 0.4 2.338 -0.778 2.532 -2.144 0.78 -4.676 5.652 -5.066 8.38 -2.142 1.948 2.338 4.286 -1.754 2.728 -3.702a8.246 8.246 0 0 0 -8.574 -2.534c-5.262 1.558 -8.378 9.744 -5.066 10.522Z" fill="#001434" stroke-width="1"></path><path d="M170.92 95.6c-18.9 -3.118 -35.464 10.132 -21.824 26.306 8 6.04 29.424 6.04 32.152 -7.21 1.952 -7.984 -0.974 -17.922 -10.328 -19.096ZM152.4 118.4c-14.4 -17.338 19.106 -23.964 23.586 -13.83 -7.208 3.702 -16.172 9.158 -23.586 13.83Z" fill="#001434" stroke-width="1"></path><path d="M364.028 230.644a22.264 22.264 0 0 0 1.364 -4.288c8.768 0 13.446 -4.092 14.81 -9.548 2.338 -9.548 -3.118 -14.8 -3.508 -18.706 -0.2 -2.924 6.82 -8.184 5.456 -16.758 -0.974 -5.846 -10.912 -10.328 -11.886 -13.836 -2.534 -8.962 -2.728 -16.368 -16.952 -20.264 -4.872 -32.736 -43.65 -34.102 -59.628 -10.524 -17.148 -4.676 -31.178 -1.364 -35.856 18.318 -15.2 -5.456 -33.126 12.276 -24.552 28.84 -29.034 4.676 -12.276 32.93 -26.112 31.762a4.122 4.122 0 0 0 -4.48 3.702c-0.586 8.768 17.146 21.63 26.5 3.898a22.124 22.124 0 0 0 5.846 7.6c-12.47 11.496 -28.45 3.702 -41.894 19.29 -10.912 11.498 -17.538 52.612 3.116 67.422 0.586 21.628 26.696 51.248 36.83 22.6 2.144 -5.456 3.508 -8.77 8.378 -8.184 13.642 1.754 23.774 30.788 36.634 36.828 11.498 6.82 25.722 0.584 26.308 -13.446 51.052 0.586 91.2 -37.022 84.958 -87.102 -1.56 -14.416 -11.886 -29.616 -25.332 -37.604ZM236.2 172.38c1.752 -10.912 12.666 -13.054 21.24 -11.692a4.45 4.45 0 0 0 4.872 -3.312c1.362 -5.846 4.674 -12.47 10.716 -15 6.82 -3.312 11.692 -0.974 16.954 0.39a7.944 7.944 0 0 0 8.182 -2.922c6.238 -7.8 13.642 -16.564 31.57 -13.836 15.2 2.338 17.732 15 19.094 22.018a5.05 5.05 0 0 0 3.118 3.704c7.6 1.948 11.108 7.4 12.862 13.446 1.364 5.066 1.558 7.8 6.82 11.3 2.338 1.56 5.456 3.508 6.04 6.236 1.17 4.872 -4.092 9.548 -5.456 14.224a8.78 8.78 0 0 0 1.754 7.4c4.482 6.04 1.364 18.902 -7.988 17.538 -0.782 -9.938 -10.328 -15.6 -19.876 -13.252 -1.17 -15.2 -15.98 -23.382 -29.62 -20.264 3.312 -7.016 2.144 -21.63 -6.624 -24.942a2.346 2.346 0 0 0 -1.56 2.338c1.17 8.768 -9.742 11.886 -13.25 10.522a2.372 2.372 0 0 0 -0.78 4.676c0.974 1.17 16.368 -1.168 17.538 -8.574 10.132 22.4 -23 30.6 -35.466 14.03 -6.624 -13.64 -30 -13.056 -38.582 -4.286a15.306 15.306 0 0 1 -1.558 -9.742Zm33.516 80.478c-5.262 -3.896 -6.82 9.158 -4.482 14.226 -13.64 -2.34 -21.24 -17.928 -23.578 -32.348 22.6 8.77 40.726 -19.096 37.218 -39.362a31.89 31.89 0 0 0 21.044 4.288c-26.306 48.714 44.234 70.928 46.378 13.834 11.302 -3.702 18.316 8.574 12.276 17.344 -4.092 8.182 -11.302 5.844 -15.588 13.834 -4.482 8.768 -21.826 31.568 -42.87 25.332a6.026 6.026 0 0 0 -3.702 0.2c-8.574 3.704 -18.902 5.262 -25.918 -1.558 -3.702 -4.872 -3.896 -10.522 -1.168 -13.252 0.974 -0.596 1.364 -1.954 0.39 -2.538Zm30.982 -43.648c2.728 -18.512 35.27 -24.358 39.752 -3.508 10.718 43.26 -50.274 52.418 -39.752 3.508Zm-72.488 -12.666c-3.896 9.546 1.948 19.29 -5.262 27.474a9.464 9.464 0 0 1 -15.784 -3.508c19.876 1.17 2.924 -27.474 24.554 -31.176a40.744 40.744 0 0 0 -3.508 7.21Zm4.482 1.558c3.702 -12.276 15 -19.68 27.67 -17.148 22.8 5.456 15 35.27 1.95 46.182 -16.37 13.64 -38.584 -5.65 -29.62 -29.034Zm-44.234 96.846c-0.778 -8.574 0 -15.2 3.702 -21.436 9.16 -15.588 29.034 -24.162 39.364 -7.4 -8.576 -0.584 -18.708 5.066 -11.108 11.498a23.296 23.296 0 0 1 9.548 21.628c-3.896 -1.168 -8.184 -5.65 -9.938 -2.922 -1.754 2.922 4.872 6.04 9.158 7.6a22.722 22.722 0 0 1 -5.846 10.328 65.126 65.126 0 0 1 -8.768 -5.456c-1.168 -0.78 -2.922 -0.586 -3.312 0.584 -1.17 3.312 4.286 5.846 7.8 7.988 -13.258 7.206 -29.04 -7.408 -30.6 -22.412Zm105.8 70.344c-23.384 10.132 -32.542 -35.66 -52.222 -38 -15.2 -1.754 -10.328 20.264 -21.63 18.51 -10.912 -2.142 -17.344 -15.784 -18.902 -25.136 28.84 14.8 46.378 -32.152 21.24 -47.546 19.096 -9.158 60.212 17.538 71.318 26.89 -55.338 -18.316 -44.818 54.756 5.846 55.146a13.264 13.264 0 0 1 -5.64 10.136Zm13.25 -14.614c-22.6 1.364 -32.736 -6.43 -40.14 -15.784 4.286 0.78 10.132 2.728 11.106 0 0.4 -1.168 -0.78 -2.532 -2.144 -2.728a55.4 55.4 0 0 1 -13.056 -4.092 22.67 22.67 0 0 1 -2.142 -10.522c4.286 2.144 14.8 5.26 16.174 1.558a2.388 2.388 0 0 0 -1.95 -2.728 45.4 45.4 0 0 1 -13.25 -3.702c5.846 -18.512 24.942 -5.846 36.048 -8 4.678 -0.974 2.73 -4.676 -5.26 -11.69 25.146 -13.826 48.724 55.74 14.624 57.688Zm15.978 -2.144c10.718 -13.64 5.456 -34.49 -4.48 -49.69 11.106 -2.142 19.486 -7.8 23.772 -15.978a2.44 2.44 0 0 0 -0.78 -3.312c-6.818 -2.534 -1.362 10.912 -26.11 15.2 -8.964 -10.33 -22.02 -11.498 -26.892 -4.678a158.482 158.482 0 0 0 -52.222 -23.382c-7.8 -22.6 -39.556 -15.4 -47.936 5.066 6.236 -35.854 30.788 -22.8 48.52 -36.44 1.754 15.4 13.056 37.22 29.814 36.44 7.8 7.4 21.824 9.158 31.178 2.534 17.732 8.378 43.648 -13.836 49.3 -27.476 3.702 -5.846 10.132 -4.872 14.224 -11.692 16.76 10.716 23 23.578 24.164 43.454 1.178 18.316 -15.19 62.16 -62.542 69.954Z" fill="#001434" stroke-width="1"></path><path d="M236.784 293a2.306 2.306 0 0 0 1.754 2.922c5.456 -0.2 15.2 9.548 19.29 6.43 3.118 -4.092 -20.654 -14.42 -21.044 -9.352Z" fill="#001434" stroke-width="1"></path><path d="M100.186 79.822c-6.82 1.558 -14.224 8.378 -10.132 19.876 3.508 9.742 17.538 15.4 26.89 12.86 6.042 -1.558 12.472 -6.626 10.524 -15.2 -3.118 -13.25 -17.538 -19.874 -27.282 -17.536Zm0.39 24.748c-17.926 -11.498 4.286 -32.152 19.096 -11.498 -6.04 3.508 -13.056 7.6 -19.096 11.498Z" fill="#001434" stroke-width="1"></path><path d="M69.6 231.228c7.6 28.45 41.7 8.184 53 -6.234 3.118 -4.094 15.978 -5.846 20.654 -2.924 -7.014 16.174 -3.116 22.6 4.678 23.968 14.42 2.338 32.152 -9.548 35.268 -18.318 9.55 -4.87 17.15 -12.47 20.266 -21.63A84.412 84.412 0 0 0 198.2 135.162c12.47 -11.108 8.574 -45.988 2.338 -62.94 -6.04 -12.47 -21.434 -18.902 -33.322 -23C149.876 35.4 130.2 27.21 100 28.574c-33.126 1.558 -79.698 39.166 -57.678 72.488C-22 141 21.658 214.276 69.6 231.228ZM15.422 156.012c17.342 -12.666 52.224 -13.446 66.838 8.38a2.362 2.362 0 0 0 2.532 0.584c11.888 -3.702 19.486 -0.974 21.63 3.118a4.85 4.85 0 0 1 -1.754 6.236c-20.46 14.42 21.046 22.214 7.016 39.752a28.726 28.726 0 0 1 -9.354 -5.652c-0.974 -0.78 -2.728 -0.974 -3.312 0.2 -1.948 3.314 5.066 7.016 9.548 9.354a33.83 33.83 0 0 1 -11.496 7.6 79.614 79.614 0 0 1 -10.134 -7.21c-2.338 -1.948 -4.286 1.948 -1.95 4.092 1.56 1.364 3.898 3.312 6.042 4.872a38.086 38.086 0 0 1 -21.24 -1.17C43.482 217.978 18.15 186.6 15.422 156.012Zm133.284 84.96c-7.988 -0.78 -3.896 -10.328 -1.558 -16.564 4.676 -12.47 -22.4 -9.742 -28.254 -2.728 -7.4 8.964 -34.88 31.178 -44.038 10.718C99.4 240 137.016 209.4 108.76 189.138c-5.456 -4.482 -6.04 -8.378 0.976 -11.886 17.146 -8.184 71.902 -10.522 68.98 7.014 -1.56 9.354 -23 6.822 -23.968 23.774 -2.924 13.64 5.652 25.526 19.876 22.02 -5.262 5.26 -14.024 12.08 -25.918 10.912Zm21.436 -15a10.26 10.26 0 0 1 -8.38 -2.922c2.924 -0.974 9.354 -0.78 8.574 -5.066a2.306 2.306 0 0 0 -3.118 -1.364 61.9 61.9 0 0 1 -7.6 1.948 27.108 27.108 0 0 1 -0.584 -5.846c2.728 -0.974 11.108 -0.778 10.134 -5.456 -1.95 -3.506 -6.626 0.78 -9.55 0.584 1.56 -7.21 6.432 -9.546 15.4 -13.054 11.69 -4.286 10.522 -17.538 0.584 -23.968a4.242 4.242 0 0 1 -1.56 -5.262c3.702 -9.548 21.24 2.338 24.748 9.744 12.468 20.258 -6.044 50.656 -28.648 50.656ZM41.924 78.262A58.068 58.068 0 0 1 59.656 50.2C84.8 26.82 128.636 27.21 160.4 50c11.106 7.6 29.812 8.964 36.048 24.358 6.236 15 13.056 61.77 -10.718 59.236 21.046 -53.78 -15.784 -38 -24.942 -62.354a2.45 2.45 0 0 0 -4.482 0c-4.092 14.42 -38 -6.82 -50.274 -6.43 -15.2 0.4 -36.632 23.382 -38.2 41.894A27.73 27.73 0 0 0 69.4 118.4c-19.682 -10.518 -31.374 -25.328 -27.476 -40.138Zm94.312 79.114c-55.73 -7.4 -73.074 -44.428 -56.9 -67.812 5.456 -7.8 12.472 -17.732 25.526 -19.68 13.642 -1.95 42.286 19.29 53.2 7.4 11.498 20.462 32.152 6.82 28.256 38.972 -2.34 18.906 -21.438 44.432 -50.082 41.12ZM45.04 104.958c6.042 7.8 15.2 14.616 27.282 20.072C86.936 157.376 158.84 182.124 182.8 138.474a37.886 37.886 0 0 0 11.496 -1.168c6.432 12.08 9.744 23.578 9.354 36.828 -4.288 -13.64 -34.49 -26.306 -34.49 -5.26 -13.252 -2.534 -40.142 -2.34 -57.484 2.922 0.2 -11.302 -10.718 -15.588 -26.698 -11.496 -14.224 -16.954 -40.334 -25.918 -69.564 -9.744 0.202 -22.604 15.012 -36.828 29.626 -45.598Z" fill="#001434" stroke-width="1"></path><path d="M102.72 117.624c-3.118 0.2 -3.314 3.508 -0.2 4.288 0.2 0 10.326 2.532 15.4 8.184a2.212 2.212 0 1 0 3.314 -2.922 27.036 27.036 0 0 0 -18.514 -9.55Z" fill="#001434" stroke-width="1"></path><path d="M146.952 94.632a28.91 28.91 0 0 0 13.836 -3.12c2.534 -1.362 0.2 -5.26 -2.532 -3.896a33.058 33.058 0 0 1 -11.498 2.728c-3.118 -0.194 -2.922 4.288 0.194 4.288Z" fill="#001434" stroke-width="1"></path><path d="M156.112 192.84c2.338 -4.676 -18.122 -4.676 -26.89 -1.948 -3.898 1.17 -2.144 5.262 0.39 4.872C141.496 194.2 145.4 193.036 153.2 194.8a2.584 2.584 0 0 0 2.912 -1.96Z" fill="#001434" stroke-width="1"></path><path d="M130.584 90.344c2.534 1.754 5.846 -1.17 3.314 -2.922a39.764 39.764 0 0 1 -8.38 -8.77c-1.754 -2.532 -4.676 -0.2 -3.506 2.728a30.8 30.8 0 0 0 8.572 8.964Z" fill="#001434" stroke-width="1"></path><path d="M257.244 200.634c-5.066 -0.584 -7.6 10.524 -1.364 11.694 5.846 1.168 6.432 -11.108 1.364 -11.694Z" fill="#001434" stroke-width="1"></path><path d="M308.882 208.43c6.626 0.974 18.122 -4.872 15.784 -9.744a2.242 2.242 0 0 0 -3.312 -0.388c-6.82 5.456 -10.132 5.26 -12.276 5.26 -3.314 0 -4.278 4.286 -0.196 4.872Z" fill="#001434" stroke-width="1"></path><path d="M276.536 237.074a24.948 24.948 0 0 1 -1.17 -4.092c-0.584 -2.142 -4.092 -0.78 -3.506 1.56 1.558 5.658 5.65 4.87 4.676 2.532Z" fill="#001434" stroke-width="1"></path><path d="M317.652 231.424c2.728 -0.584 2.532 -3.314 0.2 -3.118a14.324 14.324 0 0 1 -9.742 -2.34c-1.95 -1.558 -3.898 0.586 -2.34 2.34 1.944 2.338 7.594 3.894 11.882 3.118Z" fill="#001434" stroke-width="1"></path><path d="M273.612 246.038c7.6 6.82 1.95 4.482 1.56 8.574 -0.2 3.312 14.03 10.522 19.486 3.508a11.55 11.55 0 0 1 0.78 4.092c0 2.532 3.702 3.312 3.506 0.778 0.584 0 -5.066 -28.448 -9.742 -23.578 -6.042 6.43 -24.748 -1.558 -15.59 6.626Z" fill="#001434" stroke-width="1"></path><path d="M309.468 222.46c6.43 0.2 6.234 -10.912 1.168 -11.692 -5.066 -0.584 -7.6 11.496 -1.168 11.692Z" fill="#001434" stroke-width="1"></path><path d="M262.7 198.882a2.374 2.374 0 0 0 1.56 -4.482c-7.6 -4.092 -10.328 -10.912 -13.252 -8.184 -3.702 3.312 7.792 11.496 11.692 12.666Z" fill="#001434" stroke-width="1"></path><path d="M284.914 232.2c-0.388 0.78 -2.142 5.848 0.2 6.042 1.558 0 2.534 -1.948 3.506 -5.068 0.78 -3.114 -2.73 -2.92 -3.706 -0.974Z" fill="#001434" stroke-width="1"></path><path d="M255.296 219.342c4.092 0 4.676 -3.508 1.754 -3.508a20.954 20.954 0 0 1 -10.134 -3.506c-1.754 -1.754 -3.312 1.754 -1.558 3.506a17.728 17.728 0 0 0 9.938 3.508Z" fill="#001434" stroke-width="1"></path></g></svg>