<svg xmlns="http://www.w3.org/2000/svg" viewBox="0 0 400 400" id="Loading--Streamline-Manila.svg" height="400" width="400"><desc>Loading Streamline Illustration: https://streamlinehq.com</desc><g><path d="M360.32 203.72c-22.12 -40.76 -34.46 -20.78 -53.82 -1.7 0 -0.02 29.08 -11.38 53.82 1.7Z" fill="#3d9cfb" stroke-width="1"></path><path d="M156.1 236.24c3.3 -9.54 6.48 -22.84 8.76 -25.8 -12.62 74 25.76 70.78 83.1 72.7 -9.42 -27.72 18 -48 35.6 -70.46 -5.34 5.06 -106.66 6.18 -109.16 -23.2C164.82 192.2 152 185.1 152 185.1S129.1 194.46 120.34 210a126.56 126.56 0 0 1 35.76 26.24Z" fill="#3d9cfb" stroke-width="1"></path><path d="m253.52 295.6 0.24 0.34c0 -0.1 -0.08 -0.22 -0.24 -0.34Z" fill="#3d9cfb" stroke-width="1"></path><path d="M331.56 290c-9.04 26.22 -65.84 22.54 -77.8 6 -0.16 3.22 -87.4 -7.52 -83.3 -10.68 -7.08 5.36 -19.14 36.68 -22.32 51.04 -4 16.56 24 12.62 36.58 18.82 65.06 24.78 51.8 -39.34 69.26 -26.9 7 5.22 5.72 32.48 20.16 30.5 24.84 -4.22 82.38 -0.4 64 -42.58 -3.06 -10.36 -6.58 -26.2 -6.58 -26.2Z" fill="#3d9cfb" stroke-width="1"></path><path d="M202.42 181.04c8 3.46 21.16 0.6 28 -5.86a15.44 15.44 0 0 0 0.98 -20.94c-6.82 -8.44 -19.56 -7.5 -27.84 -3.56 -13.38 6.38 -14.52 24.5 -1.14 30.36Zm5.84 -26.7c7.88 -2.96 16.2 -1.28 20 4.34a84.96 84.96 0 0 0 -27.24 14.28c-5.68 -5.9 -2.08 -15.12 7.24 -18.62Z" fill="#001434" stroke-width="1"></path><path d="M388.88 371.28c-1.28 -4.56 -5.44 -10 -21.52 -20.98 -10 -21.12 -13.66 -51.1 -21.28 -73.62 56.5 -31.54 51.72 -79.52 3.5 -112.52 -0.2 -54.34 -34.6 -109.44 -128.18 -96C165.3 76 124 101.38 137.1 170.18c-40 19.72 -70.74 79.1 -14 102.7 -8 14 -2.1 31.84 15.16 38.94 -10.66 20.92 -7.28 26.12 -14.54 39.84 -18.34 10.56 -25.52 17.14 -25.4 25.78 0.26 17.06 44.92 11.88 72.68 11.76 45.12 -0.22 57.48 4.86 63.06 -15.4 2.3 -8.3 9.78 -27.4 13.84 -41.68 0.24 -0.8 1.08 -2.78 1.78 -0.18 4 14.74 -2.68 52.28 11 56.64 6.3 1.3 27.34 0 52 -0.58 10.46 -0.24 23.4 0.38 33.16 0.26 10.54 -0.14 22.7 -0.56 28.44 -0.56 14.52 0 16.7 -8.94 14.6 -16.42ZM346.44 270c-2.96 1.78 -6.12 3.52 -9.44 5.2a44 44 0 0 0 -14.16 -23.8 26.52 26.52 0 0 0 10.16 -12.96 41.08 41.08 0 0 1 13.44 31.56Zm-40.66 35.56c-13.84 3.52 -35.02 3.46 -34.42 -16a2.76 2.76 0 0 0 -2.76 -2.76c-5.8 1.52 -1.4 10 0 14.5 -32 -15 -19.22 -54.88 6.9 -72.74 -0.68 19.1 23.56 32.18 41.74 25.66 19.5 14.84 20.42 38.18 -5.36 49.14 -3.26 -1.64 -8.84 -8.92 -9.62 -12.8a2.78 2.78 0 0 0 -3.26 -2.18c-6.12 3.48 2.64 12.52 6.78 17.2ZM320 234c-11.02 8.9 -35.32 3.46 -38 -10 -1.36 -8 14.66 -15.48 23.02 -15.32 14.86 -0.08 30.2 13.84 14.98 25.32Zm4 10.74c-7.46 6.94 -21 8 -30.6 3.18 -2.76 -1.36 -3.04 -7.76 0 -6.88 8.5 2.58 19.72 2.34 27.24 -1.86 2.3 -1.18 5.36 3.82 3.36 5.64Zm28 21.7c-0.7 -15.58 -9.84 -28.52 -17.4 -33.86 0.16 -20.18 -10.12 -24.28 -22.94 -28.72 29.84 -9.34 64.74 1.1 68.74 26.6 -3.06 13.28 -12.7 25.54 -28.4 36.06Zm-28 -80.14c6.62 -1.58 19.06 -8.12 23.86 -16.74 19.04 12.62 31.24 29.78 33.36 46.64 -14.18 -16.9 -35.42 -24.76 -63.48 -19.66a31.38 31.38 0 0 0 6.26 -10.24Zm-140.38 -19.82c-3.28 -61.36 25.78 -33.36 67.68 -39.42 25 -3.62 14.44 -23.48 37.68 -16C307.48 118 326.3 156.7 318 183.22c-6.56 20.72 -36.56 26.44 -46 27.78 -36 5.06 -88 -1.18 -94.32 -19.88 6.32 -2.58 5.66 -11.46 5.94 -24.64ZM138.98 176.2c4.56 11.44 21.38 17.28 33.06 16 8.62 26.92 77.02 29.46 106.98 23.2a18.72 18.72 0 0 0 -2.5 5.5C250.96 238 234 268 250.32 293.3a182.18 182.18 0 0 1 -82.84 -14.62c-17.68 -7.68 -5.18 -55.82 -0.64 -70.6a2.66 2.66 0 0 0 -1.8 -3.46c-5.02 -1.08 -7.7 12.4 -9.58 26.78 -11.1 -17.4 -35.6 -25.36 -48.6 -26.38C116.42 190 130.56 179.08 138.98 176.2Zm-14 111.84a14.56 14.56 0 0 1 3.4 -12.94 59.28 59.28 0 0 0 12 3.74c5.02 0.92 5.84 -4.4 2.7 -4.84 -20.98 -3.68 -36.56 -14.8 -42.68 -28.46 -4.82 -10.72 -3.46 -22.9 3.4 -35.08 11.12 -0.26 42.7 9.04 50.18 30.4q-2.7 20.94 1.58 32c-7.66 15.3 -9.04 20.94 -14.96 34.28a25.36 25.36 0 0 1 -15.62 -19.14Zm89.34 96.5c-12.62 1.44 -25.44 -0.98 -39.88 -0.72 -21.68 0.36 -43.64 1.44 -55.18 -0.48 -12.98 -2.16 -17.04 -4.2 -14 -11.06 2.76 -6.12 18.98 -14.12 23.08 -18.48 24.34 8.14 72.86 18.8 99.6 21.1 -1.58 6.4 -5.94 8.74 -13.62 9.64Zm34.86 -60.86c-5.78 1.28 -7.44 10.62 -10.74 20.94 -2.2 6.92 -7.04 17.8 -8.94 25.16 -13.4 -2 -31.52 -3.7 -51.5 -8.28 -16.36 -3.72 -34.56 -7.7 -46.94 -12.58 4.98 -23.02 18.42 -44 27.8 -67.62 28.4 14.34 64 18.34 96 17.24 22 23.34 78 16.62 82.42 -17.3l3.82 -2c5.8 18.58 12.94 54.3 19.2 69.28 -25.3 12.68 -76.26 14 -102.82 21.52 -0.4 -5.04 1.02 -48.46 -8.3 -46.36Zm122.6 58.96c-18 -1.44 -74 0.3 -103.86 1.04 -9.58 0.24 -12.4 -7.3 -9.6 -8 29.3 -8.2 73.24 -8.2 104.54 -22 13.2 9.52 16.44 12.84 20.48 17.74 2.92 3.38 -0.56 11.22 -11.56 11.22Z" fill="#001434" stroke-width="1"></path><path d="m320.92 221.08 -10.12 -2.7c-2 -6.56 -17.38 -2.26 -12 4.96 -0.78 2.16 -3.82 6.4 -0.42 8s4.4 -3.44 5.4 -5.48a7.34 7.34 0 0 0 5.44 -2l10.24 2.72a2.76 2.76 0 0 0 1.46 -5.5Z" fill="#001434" stroke-width="1"></path><path d="M280.88 139.3c-13.12 6.16 -14.22 23.7 -1.14 29.38 7.72 3.34 20.68 0.58 27.4 -5.68a14.8 14.8 0 0 0 0.96 -20.26c-6.66 -8.16 -19.14 -7.26 -27.22 -3.44Zm24 7.74a83.32 83.32 0 0 0 -26.62 13.82c-5.48 -5.72 -2 -14.64 7.16 -18 7.72 -2.86 15.84 -1.26 19.48 4.18Z" fill="#001434" stroke-width="1"></path><path d="M265.3 180.24c2.88 -2.7 0.68 -6.5 -2.24 -5.34a50.34 50.34 0 0 1 -24 5.4 2.66 2.66 0 0 0 -2.54 2.98c1.24 7.44 25.48 0.14 28.78 -3.04Z" fill="#001434" stroke-width="1"></path><path d="M199.74 146.24c3.78 1.14 11.02 -4.12 18.28 -3a2.82 2.82 0 0 0 3.3 -2.1c1.18 -4.86 -10.44 -4.14 -17.78 -1.62 -5.84 2.02 -8.32 5.36 -3.8 6.72Z" fill="#001434" stroke-width="1"></path><path d="M247.58 168.2c0.96 -3.12 3.64 -6.48 6.9 -6.78s4.18 0.88 5.22 3.26a2.62 2.62 0 0 0 4.82 -1.7c-0.28 -4.7 -5.12 -7.8 -10.54 -7.06a12.76 12.76 0 0 0 -11.56 11.52 2.62 2.62 0 0 0 5.16 0.76Z" fill="#001434" stroke-width="1"></path><path d="M272 133.08c3.78 0.66 8.3 -6.96 20 -5.16a2.78 2.78 0 0 0 3.2 -2.26c-2.34 -10.72 -36.74 5.08 -23.2 7.42Z" fill="#001434" stroke-width="1"></path><path d="M43.52 19.04c-2.64 1.34 -5.32 2.62 -0.38 10.84 8 13.28 10.9 15.76 14.2 13.76S60.52 40 55.72 32c-3.6 -6 -8.58 -14.8 -12.2 -12.96Z" fill="#3d9cfb" stroke-width="1"></path><path d="M56.68 108.86c-3.22 -2 -4.78 -1.14 -9.68 6.8 -3.64 6 -9.22 14.34 -5.9 16.74 2.38 1.72 4.76 3.52 9.8 -4.6 8.18 -13.2 9.1 -16.92 5.78 -18.94Z" fill="#3d9cfb" stroke-width="1"></path><path d="M43.5 94.94c-1.86 -3.3 -3.64 -3.3 -11.76 1.24 -6 3.4 -15.02 8 -13.3 11.76 1.26 2.68 2.44 5.42 10.82 0.74 13.54 -7.54 16.12 -10.38 14.24 -13.74Z" fill="#3d9cfb" stroke-width="1"></path><path d="M109.84 57.84c1.86 3.36 5.62 2.64 19.16 -4.94 8.34 -4.7 6.86 -7.32 5.42 -9.88 -2 -3.5 -11.32 2 -17.38 5.44 -8.12 4.56 -9.04 6.06 -7.2 9.38Z" fill="#3d9cfb" stroke-width="1"></path><path d="M24.46 52.84c13.54 7.56 17.3 8.24 19.16 4.88s0.92 -4.82 -7.22 -9.34c-6 -3.38 -14.76 -8.54 -17 -5.14 -1.62 2.48 -3.3 4.92 5.06 9.6Z" fill="#3d9cfb" stroke-width="1"></path><path d="M38.72 76.26c0 -3.78 -1.54 -4.66 -10.86 -4.66 -6.94 0 -17.06 -0.28 -17.34 3.78 -0.22 2.94 -0.52 6 9.06 6 15.52 -0.04 19.14 -1.26 19.14 -5.12Z" fill="#3d9cfb" stroke-width="1"></path><path d="M77.12 114.26c-3.84 0 -5.06 3.62 -5.04 19.14 0 9.58 3.04 9.54 6 9.54 4 0 3.72 -10.88 3.72 -17.82 -0.02 -9.3 -0.88 -10.86 -4.68 -10.86Z" fill="#3d9cfb" stroke-width="1"></path><path d="M121.82 95.86c-8.14 -4.52 -10 -4.52 -11.76 -1.2s0.7 6.18 14.28 13.7c8.38 4.64 9.82 2 11.26 -0.58 1.94 -3.5 -7.6 -8.54 -13.78 -11.92Z" fill="#3d9cfb" stroke-width="1"></path><path d="M125.6 71.6c-9.32 0 -10.86 0.88 -10.86 4.66s3.62 5.08 19.14 5.04c9.58 0 9.54 -3.02 9.54 -6 0 -3.98 -10.88 -3.68 -17.82 -3.7Z" fill="#3d9cfb" stroke-width="1"></path><path d="M96.64 44.2c3.28 2 6.22 -0.42 14.36 -13.62 5.02 -8.16 2.44 -9.72 0 -11.28 -3.48 -2.1 -9 7.3 -12.6 13.22 -4.9 7.92 -4.98 9.68 -1.76 11.68Z" fill="#3d9cfb" stroke-width="1"></path><path d="M78 10c-2.94 -0.22 -6 -0.5 -6 9.06 0 15.52 1.2 19.14 5.04 19.14s4.66 -1.54 4.66 -10.86C81.78 20.44 82 10.32 78 10Z" fill="#3d9cfb" stroke-width="1"></path><path d="M96.64 108.72c-3.3 2 -2.46 5.72 5.58 18.98 4.96 8.2 7.54 6.62 10 5.08 3.42 -2 -2.44 -11.22 -6 -17.18 -4.78 -7.96 -6.34 -8.84 -9.58 -6.88Z" fill="#3d9cfb" stroke-width="1"></path></g></svg>