<svg xmlns="http://www.w3.org/2000/svg" viewBox="0 0 400 400" id="Online-Learning-2--Streamline-Manila.svg" height="400" width="400"><desc>Online Learning 2 Streamline Illustration: https://streamlinehq.com</desc><g><path d="M62.474 129.536a86.412 86.412 0 0 0 1.324 -9.49c0.546 -5.942 10.464 -22.854 10.464 -22.854s0.624 -1.4 -1.89 -4.444c-4.346 2.454 -7.892 9.334 -9.898 15.822s-6.45 8.962 -10.776 12.978 1.228 7 1.442 7.326Z" fill="#3d9cfb" stroke-width="1"></path><path d="M48.034 161.064a7.386 7.386 0 0 0 7.114 5.884c-1.774 -11.73 8.436 -16.952 11.67 -19.524s5.476 -18.062 8.67 -28.624 8.224 -15.568 17.46 -24.122c-0.546 -13.212 6.468 -17.168 22.35 -27.846 -14.672 0.662 -31.702 12.53 -34.022 17.83 -3.332 7.618 1.676 8.884 0.566 11.788s-5.788 5.066 -9.568 13.952c-2.4 5.63 -6.118 24.96 -7.56 28.916s-5.028 5.436 -9.958 8.106a13.274 13.274 0 0 0 -6.722 13.64Z" fill="#3d9cfb" stroke-width="1"></path><path d="M103.704 90.176c-1.656 8.652 13.698 8.6 13.698 8.6s-0.662 -1.364 0.682 -7.27 24.24 -15.684 24.24 -15.684c-17.79 0.85 -36.028 0.85 -38.62 14.354Z" fill="#3d9cfb" stroke-width="1"></path><path d="M96.708 64.572c-1.6 0.176 -12.43 -1.188 -16.212 1.112s-0.564 8.612 -0.564 8.612 18.374 -9.896 16.776 -9.724Z" fill="#3d9cfb" stroke-width="1"></path><path d="M256.214 292.784c2.026 1.48 3.976 -0.37 2.242 -3.176 -1.248 -2 -3.82 -3.06 -4.716 -4.19 9.956 -0.292 21.336 -0.214 9.432 -8.71 8.962 0.936 14.536 -3.098 5.124 -9.528 -2.046 -1.482 -4.442 0.506 -2.612 2.24 1.228 1.15 2.378 2.534 3.04 3.236 -9.84 0.916 -15.782 0.818 -5.3 8.106 -12.354 0.37 -21.024 1.638 -7.21 12.022Z" fill="#3d9cfb" stroke-width="1"></path><path d="M131.548 231.346c-8.728 8 -19 35.892 -11.458 49.532 0.526 0.936 4.248 0.896 3.1 -1.462 -6.412 -18.764 6.664 -38.172 11.066 -46.122 0.818 -1.518 -0.778 -3.72 -2.708 -1.948Z" fill="#3d9cfb" stroke-width="1"></path><path d="M120.384 231.638a1.78 1.78 0 0 0 0.506 -2.668c-3.912 -3.516 -35.076 25.73 -29.8 46.862 0.836 3.332 4.092 1.46 3.838 0.4 -1.346 -5.2 -0.352 -14.184 4.48 -22.134a71.732 71.732 0 0 1 20.976 -22.46Z" fill="#3d9cfb" stroke-width="1"></path><path d="M148.988 66.286c5.28 -2.104 22.544 -1.032 27.748 2.436 3.8 2.534 0.758 -11.146 -19.39 -13.308 -7.676 -0.818 -17 1.968 -19.076 5.612 -3.604 6.392 5.436 7.384 10.718 5.26Z" fill="#3d9cfb" stroke-width="1"></path><path d="M230.182 269.868c1.89 -1.44 -4.774 -17.2 -7.054 -16.346 -1.226 4.4 -1.674 5.844 -7.8 8.456 1.37 2.61 12.946 9.352 14.854 7.89Z" fill="#3d9cfb" stroke-width="1"></path><path d="M233.106 286.742c0.388 1.638 8.418 2.144 10.384 -0.74 1 -1.46 0.138 -4.11 -0.058 -6.078 1.872 -1.014 7.2 -0.566 6.88 -4.15 -0.098 -1.112 -4.17 0.038 -5.924 0.31 -5.456 0.838 -4.678 3.216 -4.092 7.366 -0.644 1.306 -7.912 0.312 -7.19 3.292Z" fill="#3d9cfb" stroke-width="1"></path><path d="M86.342 191.89c-2.416 0.506 -3.304 3.376 -0.818 3.8a93.176 93.176 0 0 1 21.708 7.56 1.848 1.848 0 0 0 2.648 -0.758c1.482 -4.816 -21.16 -11.128 -23.538 -10.602Z" fill="#3d9cfb" stroke-width="1"></path><path d="M96.8 137.6c-1 6.624 6 8.632 8.652 8.2 9.976 -1.578 12.86 -22 12.976 -26.986s5.418 -14.556 5.418 -14.556l-4.4 -2.026c-6.118 3.312 -9.372 13.484 -12 20.576S97.8 130.978 96.8 137.6Z" fill="#3d9cfb" stroke-width="1"></path><path d="M224 133.842c2.502 26.97 -17.484 51.4 -19.856 56.04a17.676 17.676 0 0 0 12.178 -0.234c4.814 -2.084 10.718 -11.672 8.632 -16.64a6.384 6.384 0 0 0 -1.052 -1.716c4.578 1.552 10.21 -2.228 9.412 -10.306 -0.742 -7.522 -3.936 -11.03 0.37 -22.312A43.366 43.366 0 0 1 224 133.842Z" fill="#3d9cfb" stroke-width="1"></path><path d="M190.062 76.692c-4.638 0 -7.832 9.918 -5.728 15.53 1.462 3.896 7.872 11.632 9.938 13.522 5.046 4.6 13 6.236 19.368 13.076s8.866 12.138 12.412 14.244c14.224 8.4 14.73 -9.686 8.262 -12.412 -15.958 -6.782 -11.906 -16.778 -27.65 -20.344 -15.432 -3.488 -3.526 -23.616 -16.602 -23.616Z" fill="#3d9cfb" stroke-width="1"></path><path d="M198 223.222s-17.262 -25.468 -24.258 -21.668c-6.274 3.39 8.828 21.96 8.828 21.96Z" fill="#3d9cfb" stroke-width="1"></path><path d="M178.702 83.746c3.722 -3.6 0.508 -13.698 -12.138 -9.938 -8.418 2.514 -8.75 8.672 -20.518 13.368 -6.976 2.786 -16.27 -1.578 -20.908 5.67 -8.2 12.84 18.2 8 25.4 1.89 15.442 -11.418 23.508 -6.47 28.164 -10.99Z" fill="#3d9cfb" stroke-width="1"></path><path d="M119.584 52.472c-5.4 1.48 -7.15 4.91 -5.066 6.566 1.656 1.326 12.218 -1.15 16.426 -3.76 1.636 -1.014 0 0 6.508 -4.092 -4.852 2.164 -9.548 -0.986 -17.868 1.286Z" fill="#3d9cfb" stroke-width="1"></path><path d="M67.676 244.442c2.4 -0.04 11.048 -10.6 28.272 -15.726 11.418 -3.37 16.68 -2.434 16.582 -4.754 -0.2 -4.696 -30.026 -0.662 -46.336 17.282a1.966 1.966 0 0 0 1.482 3.198Z" fill="#3d9cfb" stroke-width="1"></path><path d="M64.752 217.2c11.81 -7.93 30.866 -5.69 41.036 -3.274 4.034 0.956 4.482 -2.63 0.4 -3.818 -9.314 -2.708 -31.662 -4.578 -43.568 3.838a1.948 1.948 0 0 0 2.132 3.254Z" fill="#3d9cfb" stroke-width="1"></path><path d="M207.872 79.498c-4.15 0.02 -4.21 4.95 -3.02 6.86 4.93 7.852 11.3 10.52 30.632 20.926 1.304 -6.878 -5.34 -9.84 -13.836 -14.6s-8.924 -13.186 -13.776 -13.186Z" fill="#3d9cfb" stroke-width="1"></path><path d="M85.036 115.682c-5.28 7.346 -6.428 27.084 -9.548 35.054s-7.578 4.052 -11.69 10.97 2.476 14.2 7.618 13.29 7.95 -0.312 13.778 -4.248c5.07 -3.426 8.646 -18.528 9.49 -22.39a127.918 127.918 0 0 1 -3.178 14.362c-1.812 5.748 -9.918 12.256 -9.918 12.256s-2.8 2.688 5.34 2.688c12.138 0 16.328 -20.42 16.172 -30.24h-8.228a20.482 20.482 0 0 0 -4.612 -8.086c-3.586 -3.762 1.032 -9.276 4.734 -13.484s7.54 -19.252 7.54 -19.252 -8.768 -3.06 -17.498 9.08Z" fill="#3d9cfb" stroke-width="1"></path><path d="M309.566 153.386c-2.104 -1.344 -3.78 1.384 -2.104 3.274 0.778 0.876 13.464 3.526 12.236 -1.714a1.882 1.882 0 0 0 -2.474 -1.2 9.374 9.374 0 0 1 -7.658 -0.36Z" fill="#3d9cfb" stroke-width="1"></path><path d="M265.8 211.744c-4.21 1.658 -9.158 4.132 -10.834 4.424a81.25 81.25 0 0 0 -9.626 -1.928c-3.2 -0.45 -6.176 1.888 -3.858 2.882 0.878 0.37 4.482 0.702 8.164 1.676 -6.314 3.234 -9 4.502 -3.722 5.436 2.514 0.448 6.782 -3.058 9.4 -3.974 7.54 1.812 15.256 3.136 23.224 4.442 -5.124 3.312 -6.078 4.52 -3.116 4.892 2.8 0.35 4.638 -1.442 9.45 -3.858a52.02 52.02 0 0 0 12.256 1.09c6.138 -0.8 -3.702 -4.15 -6.566 -4.072 5.474 -2.748 8.4 -4.346 4.034 -4.58 -1.93 -0.116 -3.568 0.292 -10.386 3.526 -7.64 -1.246 -15.258 -2.474 -22.526 -4 4.462 -1.966 7.25 -3.466 9.276 -4.558 2.568 -1.398 -0.492 -3.23 -5.17 -1.398Z" fill="#3d9cfb" stroke-width="1"></path><path d="M251.89 233.372c17.458 3.06 59.974 11.186 65.08 12.822 -0.116 2.436 0.39 7.152 2.28 7.152 2.28 0 1.422 -5.554 1.616 -7.308 8.672 -2.416 34.452 -15.978 42.6 -20.83 2.61 -1.558 -1.228 -2.786 -3.47 -1.538 -18.588 10.2 -38.014 18.842 -41.054 18.842 -3.858 -0.234 -32.968 -7.034 -67.458 -12.334 -5.05 -0.778 -3.726 2.474 0.406 3.194Z" fill="#3d9cfb" stroke-width="1"></path><path d="M302.434 231.638c4.716 2.2 12.138 -5.8 18.336 -7.092 3.878 -0.838 14.906 4.19 18.882 1.4 3.292 -2.298 -8.828 -3.038 -11.712 -4.324 7.054 -3.352 4.502 -4.892 0.546 -4.366 -1.95 0.702 -4.95 1.872 -8.32 3.294 -5.242 -0.6 -10 -0.916 -15.082 -1.52a1.918 1.918 0 0 0 -2.164 1.696c-0.2 2.4 7.056 2 10.074 3 -3.506 2.612 -13.658 6.474 -10.56 7.912Z" fill="#3d9cfb" stroke-width="1"></path><path d="M344.444 196.04c21.356 2.104 24.63 -27.67 4.052 -28.936 -20.946 -1.286 -23.362 27.026 -4.052 28.936Zm-0.544 -22.758c2.318 -0.664 11.222 6.546 10.832 9.274s-11.476 7.054 -12.956 6.118 -0.196 -14.712 2.124 -15.392Z" fill="#3d9cfb" stroke-width="1"></path><path d="M276.052 106.018c-12.686 8.378 -14.692 33.416 -30.242 88.112 -2.066 1.4 -8.048 3.546 -12.14 5.728 -3.722 1.988 -3.39 5.4 0.234 3.722 10.132 -4.676 11.554 -5.2 13.738 -6 2.2 -0.838 3.468 -4.988 9.976 -31.118 19.174 -70.738 11.236 -63.368 76.576 -58.086a6.63 6.63 0 0 0 -1.226 7.816c-12.6 -1.034 -42.966 -3.332 -50.506 0.778 -3.762 2.358 -7.132 13.718 -11.828 30.786 -3.234 12.4 -13.8 42.712 -7.8 44.174 12.276 3.976 31.078 6.4 51.52 9.236 19.484 2.708 40.722 5.962 48.752 4.112 4.188 -0.954 9.586 -13.874 14.632 -28.6 7.326 -21.354 13.076 -47.29 6.2 -52.298 -4.016 -2.922 -22.04 -5.28 -39.83 -7.112a6.648 6.648 0 0 0 0.916 -7.812c9.354 0.836 27.242 3.4 37.294 3.954 5.438 0.294 7.562 -2.534 3.12 -2.96 -84.504 -8.116 -97.578 -12.25 -109.386 -4.432Zm28.448 14.476a33.356 33.356 0 0 1 24.142 1.4c7.326 3.878 13.094 19.116 4.482 25.916 4.442 -17.634 -34.626 -20.538 -32.482 -6.86 1.48 10.172 -14.77 1.19 -6.646 15.51 -14.438 -3.254 -9.274 -23.012 2.164 -27.182a11.42 11.42 0 0 1 8.34 -8.784Zm20.244 36.556c-7.774 7.268 -26.2 5.902 -28.856 -6.06 13.4 -2 5.046 -12.432 10.91 -13.68 18.784 -4.364 29.364 6.69 17.946 19.74Zm-59.566 31.78c-2.084 -5.222 6.8 -29.832 9.216 -40.042 7.464 -20.714 2.476 -31.898 25.488 -30.222a15.148 15.148 0 0 0 -5.944 7.4c-12.6 5.378 -16.484 22.4 -7.754 31.178 -12.8 10.6 -12.6 30.338 5.766 37.372 -13.95 -2.158 -24.922 -4.316 -26.772 -5.686Zm116.756 -61.144c8.048 9.956 -14.868 72.698 -19.68 73.79 -6.528 1.462 -26.268 -1 -48.13 -3.8 5.652 -4.988 6.276 -14.77 -1.5 -17.73 2.32 -4.328 -0.76 -7.386 -4.092 -7.874 -2.922 -0.428 -5 2.65 -7.15 2.866 -1.91 0.388 -5.4 -5.322 -7.482 -2.768 -2.574 3.138 5.144 6.2 6.78 6.6 3.664 1.266 5.086 -4.482 8.066 -3.254 2.046 0.838 -0.524 2.688 0.156 5.026 0.43 1.462 2.514 1.93 4.4 3.566 2.982 2.6 -0.486 10.27 -2.982 11.6 -7.812 3.312 -16.268 -3.566 -11.71 -12.762a1.84 1.84 0 0 0 -1 -2.574c-4.6 -1.284 -4.364 9.024 -4 10.7 -16.99 -6.216 -14.73 -24.164 -3.916 -31.626a13.862 13.862 0 0 0 7.384 0.838c7.2 7 22.214 6.684 29.678 0.176a14.4 14.4 0 0 1 5.456 5.066 1.934 1.934 0 0 0 2.668 0.624c2.144 -2.086 -4.034 -7.6 -5.338 -8.6a17.188 17.188 0 0 0 2.552 -4.8c13.738 -4.948 10.036 -25.312 0.78 -32.638 23.436 1.922 46.37 4.242 49.06 7.574Zm-42.518 -17.732a3 3 0 1 1 -0.838 5.942 3 3 0 1 1 0.838 -5.942Z" fill="#3d9cfb" stroke-width="1"></path><path d="M309.06 147.366c3.564 0 3.838 -5.828 0 -5.828s-3.568 5.828 0 5.828Z" fill="#3d9cfb" stroke-width="1"></path><path d="M313.384 145.124a6.946 6.946 0 0 1 0.508 2.708 1.836 1.836 0 0 0 -0.8 2.4 2.472 2.472 0 0 0 4.15 0c1.2 -1.56 0.82 -4.364 -0.214 -6.49a1.95 1.95 0 0 0 -3.644 1.382Z" fill="#3d9cfb" stroke-width="1"></path><path d="M321.978 147.462a3.022 3.022 0 1 0 0 -6.04 3.022 3.022 0 1 0 0 6.04Z" fill="#3d9cfb" stroke-width="1"></path><path d="M388.676 184.2a1.954 1.954 0 0 0 -2.476 1.2c-4.772 13.776 -11.632 29.092 -14.438 30.418 -14.73 -3.06 -39.146 -5.8 -59.644 -8.868 -28.468 -4.248 -52.298 -9.2 -54.656 -9.644 -2.846 -0.526 -5.6 1.4 -1.85 2.688 6.02 2.046 71.53 12.374 88.968 14.674 11.186 1.46 20.694 2.96 24.728 4.636 3.896 1.638 3.858 5.748 -0.488 9.686 -6.664 6.04 -21.454 12.976 -31.936 18.51 -2.982 1.578 -6.938 2.982 -6.4 5.436s4.754 -0.428 8 -2.066c15.2 -7.658 44.308 -19.134 36.36 -32.754 4.072 -3.8 9.118 -14.302 15.06 -31.45a1.976 1.976 0 0 0 -1.228 -2.466Z" fill="#3d9cfb" stroke-width="1"></path><path d="M147.098 69.346c4.52 -0.468 15.178 -5.086 29.226 1.93a2.314 2.314 0 0 0 3.294 -1c2.6 -8.828 -24.102 -8.846 -32.832 -5.632 -3.294 1.194 -1.968 4.936 0.312 4.702Z" fill="#001434" stroke-width="1"></path><path d="M163.094 159.29a2.43 2.43 0 0 0 0.2 4.852c8.884 1.17 9.4 4.95 12.276 5.6s3.37 -2.6 1.812 -4.54a19.984 19.984 0 0 0 -14.288 -5.912Z" fill="#001434" stroke-width="1"></path><path d="M178.722 135.538c-3.858 1.344 0.624 9.626 -1.462 13.036 -1.48 2.426 -9.26 0.604 -9.26 4.89 0 4.248 9.624 2.572 12.664 0.254 4.606 -3.546 2.404 -19.7 -1.942 -18.18Z" fill="#001434" stroke-width="1"></path><path d="M165.862 185.986a17.68 17.68 0 0 1 -11.438 -3.06 2.434 2.434 0 0 0 -3.546 3.332 15.818 15.818 0 0 0 12.274 4.832c5.71 -0.272 6.49 -5.222 2.71 -5.104Z" fill="#001434" stroke-width="1"></path><path d="M171.414 175.658c-5.728 1.636 -2.356 -9.586 -7.852 -5.768 -5.358 3.722 -9 1.248 -10.152 0.292a2.29 2.29 0 0 0 -3.214 3.2 10.8 10.8 0 0 0 13.132 2.418 6.588 6.588 0 0 0 7.58 4.716c3.586 -0.494 3.956 -5.852 0.506 -4.858Z" fill="#001434" stroke-width="1"></path><path d="M150.098 108.688c0.118 -0.02 12.158 -2.086 18.16 2.124 1.092 0.76 2.942 0.68 3.4 -0.6 2.98 -8.69 -17.85 -7.832 -21.4 -6.4s-3.276 5.46 -0.16 4.876Z" fill="#001434" stroke-width="1"></path><path d="M30.654 306.502c-9.374 14.926 42.692 -18.102 47.096 -19.056 8.086 4.656 31.43 7.8 52.824 9.234a62.35 62.35 0 0 0 -18.18 18.084c-6.664 2.064 -18.628 12.976 -17.322 16.756 1.558 4.482 47.426 12.646 61.456 15.842 21.064 4.812 51.54 10.698 59.412 8.846 10.092 -2.378 37.488 -20.382 44.348 -24.492 6.624 2.65 17.146 -7.482 16.2 -12.258 3.78 -9.8 48.674 -39.6 51.772 -42.126 2.748 -2.182 -6.47 -4.15 -11.458 -3.78 -4.462 -4.306 -18.666 -5.768 -33.6 -9.334 -29.91 -7.17 -40.938 -10.872 -43.16 -7.696 -0.78 1.11 0.6 2.6 1.93 2.844 12.84 2.476 33.6 7.95 49.102 11.886 -16.348 5.516 -27.338 33.378 -28.566 38.776 -8.494 -2.222 -16.874 -3.78 -25.8 -6.332 7.678 -10.424 6.722 1.968 11.478 -0.214 4.11 -1.89 -3.586 -11.556 -9.12 -8.126a9.4 9.4 0 0 0 -11.068 -3.04 9.42 9.42 0 0 0 -11.262 -2.766c-5.612 -6.782 -15.276 -3.158 -18.434 4.636 -3.332 -0.7 -6.78 -1.4 -10.366 -2.066 12.706 -4.928 20.4 -12.644 22.682 -22.894 14.438 9.626 23.44 11.068 26.908 8.066 4.696 -4.052 -2.902 -24.336 -14.146 -37.158 14.108 -11.2 4.678 -28.644 -21.376 -25.72 -3.428 -4.014 -7.248 -8.4 -10.4 -12.1a52 52 0 0 0 11.126 -8.086c16.738 12.722 27.864 -2.262 26.364 -18.8 19.29 -1.772 9.118 -23.188 8.534 -35.366 18.14 -4.052 9.4 -23.636 1.2 -30.28 7.346 -6.158 3.4 -16.482 -5.826 -19.348 -5.372 -1.672 -6.762 -4.678 -8.574 -8.34 -4.092 -10.892 -16.738 -16.388 -29.286 -13.036 -8.828 -15.568 -27.98 -28.682 -51.46 -22.584 -16.232 -5.4 -26.384 -3.214 -40.958 3.664a72.134 72.134 0 0 1 -23.052 6.84c-8.32 1.4 -10.112 14.574 -2.746 18.14A24.298 24.298 0 0 0 70.8 84.76c-11.952 5.44 -12.224 21.44 -22.882 27.784 -12.218 7.308 -1.482 23.306 10.638 20.422 -6.06 11.672 -25.856 13.874 -12.2 32.15 -61.302 0.818 -32.308 105.864 -5.574 136.104Zm90.274 -15.452c-21.666 -1.988 -37.566 -5.184 -41.502 -8.32 -26.734 -21.318 -33.378 -85.092 -6.704 -104.754a24.21 24.21 0 0 0 5.612 -0.74c4.968 5.164 15.88 6.6 22 2.124 13.094 16.24 37.866 27.474 64.34 29.13a44.2 44.2 0 0 0 6.74 12.49c-17.4 1.072 -36.514 -2.786 -42.4 -5.358 -0.976 -0.428 -1.852 -2.688 -2.3 -6.488 -0.37 -3.138 -4.852 -2.514 -4.4 1.48 0.682 6.254 2.69 8 3.4 8.632 1.774 1.6 13.25 4.286 19.564 5.612 -10.64 15.6 -16.036 41.25 -5.846 67.498 -5.954 -0.294 -12.248 -0.722 -18.504 -1.306ZM83.42 175.074c7.072 -4.268 10.8 -12.122 13.502 -25.468a12.896 12.896 0 0 0 6.14 -0.292c0.72 8.632 3.662 17.088 -4.054 24.882 -5.378 4.56 -10.774 3.39 -15.588 0.878Zm227.062 101.4c-10.912 7.094 -31.022 28.916 -42.75 37.938 0 -11.38 16.796 -48.596 42.75 -37.938ZM264.34 316.4c-18.082 14.36 -42.77 27.28 -51.986 30.358 6.586 -8.158 32.696 -42.536 51.986 -30.358Zm-29.34 -18.316a15.106 15.106 0 0 0 -3.118 4.364c-2.066 -0.544 -4.17 -1.11 -6.312 -1.676 2.18 -3.844 6.43 -5.854 9.43 -2.688Zm-11.088 -3.098a14.8 14.8 0 0 0 -3.2 4.5c-2 -0.506 -4.032 -1.032 -6.118 -1.538 2.134 -3.828 6.31 -5.922 9.314 -2.962Zm-11.166 -2.67a15.302 15.302 0 0 0 -3.038 4.442c-2.104 -0.506 -4.248 -1 -6.45 -1.48 2.098 -3.878 6.354 -6.096 9.484 -2.962Zm-15.684 6.586c-1.032 4.17 0.584 5.572 2.2 6.06s1.754 -0.954 2.61 -5c2.222 0.488 4.384 1 6.49 1.5 -1.092 4.23 0.506 5.748 2.124 6.276s1.87 -0.8 2.668 -5.106c2.104 0.526 4.152 1.032 6.158 1.558 -1.228 4.834 0.818 6.626 2.6 6.626 1.422 0.018 1.168 -1.4 2.162 -5.4 2.164 0.566 4.288 1.13 6.372 1.676 -1.266 4.93 0.838 6.78 2.63 6.742 1.4 -0.04 0.702 -1.13 2.124 -5.476 3.468 0.916 6.918 1.812 10.288 2.67 -14.262 5.71 -28.916 22.056 -35.8 30.612 -2.084 2.59 -8.4 4 -11.75 3.584 -17.166 -2.182 -60.774 -7.852 -82.306 -16.738 -2.824 -1.168 -1.928 -5.572 -0.252 -8.144 7.696 -11.768 17.264 -21.22 26.578 -23.83 11.968 0.17 26.254 -0.934 38.68 -0.252a65.122 65.122 0 0 1 16.42 2.642Zm28.858 -47.446c4.442 4.754 10.132 20.362 7.676 22.7 -1.754 1.656 -12.042 -3.878 -21.648 -9.84 7.576 0.818 13.286 -5.456 13.968 -12.86Zm-1.188 -23.246a7.07 7.07 0 0 1 -4.464 8.028c-4.656 -5.788 -9.6 -11.692 -14.302 -17.186 8.634 -0.272 17.416 1.422 18.762 9.158Zm-10.426 8.378a51.4 51.4 0 0 1 7.308 12.334c1.5 4.6 -4.034 14.712 -13.778 8.32 -2.064 -1.072 -14.088 -11.574 -15.976 -6.118 -2.242 6.47 24.218 9.334 8.456 26.578 -3.138 -5.71 -14.77 -11.028 -16.504 -7.6 -1.93 3.818 9.216 4.6 12.646 12 -16.524 10.638 -30.028 11.028 -51.676 10.502 -11.066 -26.364 -5.182 -52.2 5.846 -66.814 13.016 2.28 34.646 -1.852 49.96 1.48 6.524 1.388 10.052 4.584 13.714 9.318Zm-12.334 -14.75c-7.56 -2.65 -13.6 -1.052 -24.512 -1.052 -9.918 -12.276 -9.976 -19.954 -5.826 -22.31 4.676 -2.67 9.158 -2.456 17.888 8.534 3.054 3.858 9.478 11.36 12.446 14.828Zm-13.64 -23.306c-7.288 -9.43 -23.87 -7.636 -24.434 5 -24.902 -1.81 -47.954 -12.4 -59.976 -27.512 8.126 -9.898 4.306 -19.2 3.936 -28.8 14.946 -8.302 8.38 -30.574 19.486 -40.686 16.074 -4.91 17.36 -11.926 42.264 -11.712a21.446 21.446 0 0 0 12.47 -3.546c3.506 11.672 15.958 19.642 25.72 25.4 -3.274 -0.428 -8.982 -1.772 -8.8 2.63a2.666 2.666 0 0 0 2.866 1.892c10.014 0.232 15.354 5.22 19.758 11.554 -0.04 0.914 -0.098 2.454 -0.274 4.5C193.6 120.866 177.8 150.872 191.582 163.908c4.268 4.034 11.108 6.722 22.312 5.028 -4.852 11.652 -12.744 23.108 -25.566 29.596Zm32.108 -55.648a136.762 136.762 0 0 0 -28.274 12.958c-4.462 -17.042 17.908 -24.28 28.274 -12.958ZM206.138 190.8a70.612 70.612 0 0 0 12.218 -19.8 15.906 15.906 0 0 0 5.98 3.644 52.356 52.356 0 0 0 -0.428 5.222c1.052 12.646 -8.592 18.122 -17.77 10.934Zm29.306 -24.32c-3.8 7 -12.12 4.072 -15.082 -0.72a118.734 118.734 0 0 0 5.904 -28.8 17.102 17.102 0 0 0 6.528 3.06c-0.858 8.924 5.942 18.802 2.65 26.46ZM50.432 126.788a5.76 5.76 0 0 1 -0.06 -10.034c10.546 -5.56 11.654 -18.94 19.856 -26a13.02 13.02 0 0 0 1.636 4.852c-9.08 11.478 -9.898 21.55 -11.924 32.034a12.452 12.452 0 0 1 -9.508 -0.852Zm9.216 12.102c9.82 -12.666 2.98 -24.728 17.068 -41.504 2.534 -3.02 -2.046 -6.236 -1.382 -10.834 1.616 -11.438 26.382 -19.7 25.214 -23.09 -1.248 -3.624 -14.888 3.4 -19.4 7.91 -6.548 -0.778 -5.144 -9.8 0.8 -10.424 21.51 -2.318 31.234 -16.582 54.246 -11.516 -3.742 1.774 -12.158 3.976 -10.62 7.424 1.052 2.338 8.146 -0.858 10.484 -1.948 25.4 -11.828 44.562 1.012 55.22 16.056a6.082 6.082 0 0 0 5.904 2.552c24.746 -4.034 16.642 13.738 34.314 21.57 5.846 1.714 8.828 7.618 3.858 11.282 -3 -2.338 -15.86 -11.476 -22.33 -17.4a15.266 15.266 0 0 1 -3.702 -4.872c-1.422 -2.746 -5.242 -0.4 -3.722 2.786a39.424 39.424 0 0 0 14.73 14.6c11.946 7.658 30.068 21.94 20.674 31.818 -9.566 7.21 -17.282 -5.514 -23.148 -13.074 -10.074 -13.016 -27.728 -15.764 -31.916 -32.2A21.888 21.888 0 0 0 190 81.914a2.432 2.432 0 0 0 -4.502 -1.832A17.09 17.09 0 0 1 169.974 90c-26.87 -2.708 -40.4 19.018 -49.084 10.308 -8.4 -8.418 12.218 -16.542 25.078 -21.2 2.746 -1 1.48 -4.812 -2.184 -4.344 -11.436 1.46 -43.53 19.212 -22.68 31.332 -8.086 10.288 -3.974 28.778 -15.082 36.612 -4.93 3.528 -11.536 3.314 -13.172 -2.6 -1.11 -8.126 4.696 -9.874 6.47 -19.8 2.44 -13.65 8.71 -11.944 6.8 -17.614 -6.704 -5.748 -11.73 21.18 -15.86 27.278 -3.488 4.346 -3.664 13.836 2.104 17.674 -3.976 19.2 -8.768 28.04 -26.832 24.766a10.426 10.426 0 0 1 -8.2 -8.086c-0.758 -4.502 2.436 -8.418 8.048 -12.53 10.502 -7.676 8.068 -40.4 26.636 -53.6 1.716 4.658 9.684 4.384 5.728 -0.916a5.584 5.584 0 0 1 -2.4 -3.448c-2.494 -10.2 8.126 -19.33 29.872 -25.78a2.428 2.428 0 1 0 -1.384 -4.656c-31 9.138 -34.664 22.116 -33.514 29.948 -20.118 13.9 -19.154 49.092 -27.456 54.236 -7.034 4.344 -10.834 10.016 -10.502 16a9.454 9.454 0 0 1 -3.974 -3.896c-5.964 -9.24 6 -14.014 11.262 -20.794Zm-24.746 46.14c3.876 -3.896 6.584 -0.252 3.664 3.2 -6.51 7.678 -3.938 17.6 -8.088 17.946 -3.526 0.308 -2.878 -13.776 4.424 -21.146Zm5.28 67.068c-6.664 2 -11.478 -25.934 -11.438 -33.106 0.02 -3.156 4.2 -4.2 5.494 3.236 3.118 18.14 7.794 29.304 5.944 29.87Z" fill="#001434" stroke-width="1"></path><path d="M164 125.95c-6.35 -8.864 -19.66 -14.048 -31.4 -5.668 -11.534 9.4 -9.84 20.556 -2.18 27.142 6.332 5.476 17.2 8.476 26.2 5.046 13.802 -5.26 13.314 -18.218 7.38 -26.52Zm-31.264 16.582a8.234 8.234 0 0 1 -3.312 -6.118c-0.37 -16.886 23.986 -19.6 31.4 -7.696a161.076 161.076 0 0 0 -28.088 13.814Z" fill="#001434" stroke-width="1"></path></g></svg>