<svg xmlns="http://www.w3.org/2000/svg" viewBox="0 0 400 400" id="Searching--Streamline-Manila.svg" height="400" width="400"><desc>Searching Streamline Illustration: https://streamlinehq.com</desc><g><path d="M110 270.98c-0.26 -3.58 -0.66 -8.56 -1.02 -12.86 -8 0.44 -11.88 -1.44 -18 -2.78 -12.52 16 -44.24 36.26 -43.2 56.58 0.78 15.4 4.46 21.48 20.22 26.98a201.64 201.64 0 0 0 34 8.44c-2 -14.22 14.62 -24.84 14.62 -24.84A75.52 75.52 0 0 0 114 301.2c-1.46 -4.64 -3.4 -22.66 -4 -30.22Z" fill="#3d9cfb" stroke-width="1"></path><path d="M348.36 107.24c-11.02 -5.44 -19.78 5.7 -19.78 5.7s1.8 -32.76 -24.36 -37.64c-18.98 -3.54 -34.1 20.18 -34.1 20.18S265.52 66.6 244 68.66c-20 2 -20 28.24 -20 28.24s-14.92 -1.38 -23.42 6.32c-12.84 11.6 9.76 25.72 9.76 25.72s-20.68 11.24 -19.3 29.16c1.88 24.4 36.24 26.74 36.24 26.74 17.56 -10.98 8.72 -28.8 9.24 -39.72 0.34 -7.12 6.32 -12.72 14.72 -17.7 4 4 16.86 15.18 34 3.7 4.5 9.66 11.04 8.74 11.04 8.74s6.6 -11.62 23.76 -11.62c14.48 0 16.48 1.38 24.96 9.84 17.36 -6.96 14.68 -25.26 3.36 -30.84Z" fill="#3d9cfb" stroke-width="1"></path><path d="M209.8 272.4s-2 4.16 -19.2 -2.4 -28.38 -5.76 -28.38 -5.76 -16 0.36 -25.02 -4.92a38 38 0 0 1 -12.6 -11.72 36.84 36.84 0 0 0 -5.36 19.68c0 13.52 11 43.56 5.7 57.06 10.84 2 30.28 5.18 40.8 8.68 17.3 5.76 33.88 11.6 33.88 11.6s1.24 -45.44 6.78 -51.48 1.52 -10.16 14 -10c-8.7 -8.62 -10.6 -10.74 -10.6 -10.74Z" fill="#3d9cfb" stroke-width="1"></path><path d="M311.52 139.46c-12.74 4.56 -19.4 21.5 -6.98 30 14.94 10 51.08 2 39.48 -20.92 -6.02 -11.14 -21.58 -13.36 -32.5 -9.08Zm-4.34 25.8c-12.18 -9.34 2.26 -23.08 13.7 -22.88a62.14 62.14 0 0 0 1.36 26.54 26.78 26.78 0 0 1 -15.06 -3.66Z" fill="#001434" stroke-width="1"></path><path d="M124.68 146.74c1.14 3.54 8.6 8.96 10.58 3.78a2.46 2.46 0 0 0 -2 -2.74 5.18 5.18 0 0 1 -3.74 -8c1.82 -2.58 5.28 -1.54 6.92 1.06a2.44 2.44 0 0 0 3.38 0.68c3.72 -3.8 -4.18 -8.36 -7.38 -8 -6.72 -0.3 -10.44 7.4 -7.76 13.22Z" fill="#001434" stroke-width="1"></path><path d="M159.08 153.82C183.6 154 180.54 116 154.82 121.56 136 124.58 141.4 154.58 159.08 153.82Zm11.74 -19.22a11.18 11.18 0 0 1 -9.78 14.2A65.34 65.34 0 0 0 158.5 126a11.48 11.48 0 0 1 12.32 8.6Z" fill="#001434" stroke-width="1"></path><path d="M386.8 217.86c-4.64 -9.56 -15.78 -17.2 -30.76 -21.78 -3.88 -4.72 -7.54 -12.56 -14.4 -15.08a32 32 0 0 0 10.76 -34.32c26.54 -12.32 13.24 -56.82 -16.18 -53.4 -5.14 -24.28 -36.72 -37.8 -55.7 -22.78 -14 -19.82 -54.8 -16.62 -65.2 6.58a11.54 11.54 0 0 0 -9.76 -4.88c-0.52 0 -0.74 0 -1.34 -2.98a13.3 13.3 0 0 0 -3.58 -7.74c-2.6 -2.4 -5.78 -2 -8.32 -1.52 -9.7 3.2 -8 -10 -13 -14.2s-11.88 4 -16.4 3.04c-3.72 -5.76 -2.8 -17.66 -13.32 -18.48 -9.2 -0.74 -12.62 10.68 -18.18 14.28 -8.14 -2.88 -13.22 -18.6 -25.08 -13.3 -6 2.62 -6.44 7.82 -6.7 11.62 0.54 13.48 -16.86 -2.94 -26.92 4.56 -4.76 2.94 -4.6 7.84 -4.48 11.78 0.14 4.44 0 6.64 -3.54 7.8 -9.66 3.08 -12.38 15.74 -5.62 23.5C21.84 106 -4 167.18 18 193.1c13.12 14.74 28 24.2 41.46 33.18C69.72 233.12 81.4 238 84 252.16c-30.62 22 -57.8 41.12 -49.28 73.32 6.56 25.08 22.96 25.3 66.54 25.3 17.82 8.28 68.54 2.16 95.74 2.66 -1.46 24.9 14.14 17.54 32.54 3.3 10 -5 21.7 -1.1 33.24 -1.14 23.5 2.36 48.24 -0.5 71.3 0.26 19.26 -0.82 30 -9.5 33.76 -27.3 4.28 -20.22 -3.12 -38.88 -21.38 -71.64 28.56 3.26 52.68 -13.58 40.34 -39.06Zm-40.92 -49.34c-12.58 24.24 -52.32 16.18 -52.54 -9.84 -0.36 -43.46 71.56 -33.18 52.54 9.84Zm-15.6 25.86a38.72 38.72 0 0 0 -7.88 0.88c-0.12 -2.32 -0.4 -5.18 -0.68 -7.38a38 38 0 0 0 8.4 -1.28 22.1 22.1 0 0 0 0.16 7.78Zm4.64 60.96a103.16 103.16 0 0 1 -29.82 2.78 24.8 24.8 0 0 0 -5.4 -3.46c-2.28 -1.24 -4 -2 -4.12 -3.64 -0.34 -9.86 -7.2 -19.46 -17.22 -10.28 -12 11.04 -22.78 -13.8 -24.5 -22.42a2.44 2.44 0 0 0 -4.76 1.1 65.7 65.7 0 0 0 4 11.48c-18 -1.56 -43.42 14.14 -47.84 30.62 -13.2 -21.9 -17.46 -60 12.86 -69.08 2.96 9.72 13.26 10.66 27.26 12.68 9.4 12.24 19.32 21.44 29.62 8.38 1.6 -1.6 4 -4 5.06 -4 6 2.26 13.24 15.58 20.56 10 -2.62 20.5 11.72 31.4 34.3 35.84Zm-44 22.66a63.44 63.44 0 0 0 12.88 2.6 34.3 34.3 0 0 1 -3.28 8.76 43.72 43.72 0 0 1 -13.28 -1.6 2.44 2.44 0 0 0 -2.92 1.82c-0.5 4.86 10.74 4 12.86 4.68 -11.18 15.64 -64.56 3.12 -88.16 -26.94 -0.54 -16.5 33.68 -37.08 47.26 -30.56 21.22 31.28 30.9 -13.32 34.62 15.42 4.38 11.34 15.88 3.28 13.7 23.58a53.08 53.08 0 0 1 -12.28 -2.42 2.44 2.44 0 0 0 -1.48 4.66Zm-138 -31.82c-4.74 -2.26 -8.24 8.62 -9.14 13.16a32.42 32.42 0 0 1 -15.18 -9.8 24.56 24.56 0 0 1 7.4 -11.28 2.44 2.44 0 0 0 0.48 -3.42c-4.58 -3.6 -9.26 6.5 -11.18 9.82 -12 -32.6 44.12 -42.96 66.6 -31.62 -5.08 19.44 2.44 42.62 13.68 57.78 -13.3 -1.34 -15.3 -5.38 -27.32 -8.38 -10.12 -2.28 -18.78 0.78 -29.74 -1.82a21.4 21.4 0 0 1 4.9 -11.02 2.46 2.46 0 0 0 -0.54 -3.42ZM252 205.62a243.56 243.56 0 0 0 24.76 0c-11.7 9.2 -11.14 15.54 -24.76 0Zm44.54 10.38c-3.88 -1.16 -10 -9.22 -14 -10.66 9.24 -0.6 18.26 -1.56 26 -2.66 -3.54 3.32 -7.94 12.74 -12 13.32Zm-72.68 -22.34a3.86 3.86 0 0 1 -0.84 -3.74c14.64 -6 20.38 -21.06 16.14 -40.46 -1.4 -6.38 2 -11.7 11.78 -18.64a29.4 29.4 0 0 0 33.18 3.82 13.88 13.88 0 0 0 8.34 6.72 32.9 32.9 0 0 0 -2.8 24.64c-3.66 1.18 -12 -1.84 -12.8 2.42 0.52 5.14 10.78 2 14.56 2.36a29.3 29.3 0 0 0 25.4 16.96c0.28 2.22 0.64 6 0.76 8.48 -32.34 6.12 -85.12 7.52 -93.72 -2.56ZM200 128.52c-1.46 -3.14 -5.02 -0.48 -7.12 0.48 -8.24 -16.52 1.14 -38 21.42 -37.7a2.44 2.44 0 0 0 2.42 -2.12c1.86 -27.64 45.64 -36.1 60.24 -15.4 -1.74 2.46 -7.7 7.04 -4.18 10a2.44 2.44 0 0 0 3.34 -0.86c6.84 -11.72 18.8 -16.46 32 -12.68 12.32 3.54 24.56 15.14 24 30.46a2.44 2.44 0 0 0 2.44 2.52c2.76 0 2.56 -3.18 2.38 -5.16 23.68 -2.98 34.9 34 13.68 44 -7.78 -19.22 -42.96 -22 -55.12 -5.32a8.7 8.7 0 0 1 -7.32 -5.04c2.3 -2.36 8 -7.66 4 -10.38a2.46 2.46 0 0 0 -3.18 1.34c-6.34 15.06 -34.48 14.12 -40.1 -4.28a2.4 2.4 0 0 0 -3.04 -1.58c-4.14 2 0.68 7.8 2 10.22 -8.52 6 -15.52 13.16 -13.3 23.36 3.64 16.58 -0.56 28.78 -11.84 34.34C201.48 195.52 173.2 176.2 180 152.24c4 -18.04 21.62 -18.86 20 -23.72Zm-73.14 -13a15.06 15.06 0 0 0 2.5 -7.32c13.34 6.28 16 -19.66 23.32 -7.48a11.86 11.86 0 0 0 5.7 5.62c6 2.52 9.58 -4.18 14.72 -2.42 5.76 3.5 1.34 15.72 12.26 16.38a34.52 34.52 0 0 0 3.4 11.3c-17 11.38 -19.36 38 -4 51.62 -24.52 16.64 -100 3.24 -107.72 -24 -0.76 -5.74 1.7 -15.24 6.92 -26.78 1.1 -2.68 4.16 -2.5 6.54 -2.66 -4.18 17.88 12.2 23.8 24.74 18.68 9.34 -3.66 11.82 -19.54 3.64 -25.88a22.98 22.98 0 0 0 7.88 -7.06Zm-20 11.58a56.26 56.26 0 0 0 6.84 -2.14c10.78 6.32 4.14 20.8 -6 20.3a68.48 68.48 0 0 0 -0.92 -18.16ZM21.38 189.38c-7.3 -10 -10.64 -27.5 -0.16 -50.7 6.32 -15.16 22.58 -37.6 42.98 -44.94 19.08 -6.86 58 -7.04 60.22 14 -1.58 -2.72 -10 -10.82 -13.04 -5.84 -1.08 4.58 9.82 3.5 10.16 12.36a21.52 21.52 0 0 1 -6.16 4.58c-1.38 -4.32 -8 -16 -12.66 -11.52a2.42 2.42 0 0 0 0.88 3.32 18.24 18.24 0 0 1 7.3 10.14 84 84 0 0 1 -23.76 4.28 8.84 8.84 0 0 0 -7.66 5.3c-4.68 10.94 -11.1 24.88 -5.04 35.22 -4.84 9.4 -23.42 26.52 -53.06 23.8ZM79.52 234c-19.12 -13.7 -35.28 -21.74 -53.4 -39.38C52 195.46 71.3 180 77.5 170c19.46 24.18 86.5 34.1 111.4 16.4a38.42 38.42 0 0 0 17.86 6 34.22 34.22 0 0 0 -13.3 16c-24.9 -11.02 -73.02 -3.52 -75.24 28.54a33.08 33.08 0 0 0 -10.22 19.16c-7.56 0 -14.62 -1.8 -18.98 -4.7 -2.52 -6.08 -3.98 -13.52 -9.5 -17.4Zm19.72 112c-43.68 0 -54.46 -1.26 -59.82 -21.66 -7.74 -29.06 17.34 -46.74 47.64 -68.34a41.58 41.58 0 0 0 20.4 5c-0.3 19.16 4.16 37.26 6.86 55.48 0.42 2.66 0.68 4.5 -0.44 6 -11.32 8.44 -16.04 18.3 -14.64 23.52Zm97.82 2.66c-23.22 0.28 -84.78 3.82 -92.46 -1.18 -3.12 -6.16 4.24 -14.82 12.76 -21.5 24 0.36 54 11.32 79.76 20.44Zm2 -33.8c-0.12 0.96 -1.2 14 -1.78 26.46 -25.16 -8.9 -53.84 -19.26 -77.86 -20.16 -0.16 -24 -16.46 -57.24 -0.2 -78 9.88 26.36 37.9 22.74 57.78 24.18 13.84 3.7 14.84 8 32.78 8.82a74.38 74.38 0 0 0 5.38 5.28c-13.34 5.04 -13.86 13.74 -16.06 33.32Zm27.48 38.1c-12.28 8.78 -21.5 15.8 -24.16 10 -1.28 -4.1 -0.22 -27.5 1.52 -47.74 2.5 -17.44 2.18 -27.06 14.82 -29.62 -1.02 16.98 6.72 48 13.3 64.68a15.6 15.6 0 0 0 -5.44 2.58Zm136.5 -25.32c-3.5 23.06 -25.52 24.8 -45.76 23.46 28.36 -15.06 24.52 -40.82 8.32 -73.24a2.44 2.44 0 0 0 -4.3 2.28c17.62 34.34 18.86 61.42 -17.68 70.52 -21.42 3.76 -44.82 -1.52 -66.56 -0.88 -6.36 -15.52 -14 -45.44 -13.54 -62 24 14.74 47.44 20 65.44 17.66 16 -4.56 24.1 -27.36 19.18 -42.18 10.46 0.1 26.42 -1.32 33.24 -5.18 18.26 32.34 25.7 50.48 21.7 69.46Zm-56 -94c2.56 0.82 8.22 5.22 10 1.12a2.44 2.44 0 0 0 -1.68 -3 33.4 33.4 0 0 1 -10 -4.78 27.02 27.02 0 0 1 0.48 -10c2.58 1.18 10.56 6.84 12.64 2.18a2.44 2.44 0 0 0 -1.82 -2.92 24 24 0 0 1 -9.1 -4c4.2 -8.96 13.74 -13.28 23.6 -13a3.66 3.66 0 0 0 3.2 -0.94c2.34 -2.48 -1.64 -10.8 1.48 -12.26 6.86 -4.7 13 11.52 18.46 14.62 20.38 6.66 34.98 17.82 28.96 37.62 -10.9 24.7 -70.42 13.36 -76.2 -4.68Z" fill="#001434" stroke-width="1"></path><path d="M150.76 117.74c2.56 -1.74 11.46 -2.92 13.56 -1.86 2 6.16 8.16 -0.8 2.76 -4 -4.4 -2.72 -15.76 -0.36 -19.06 1.86a2.44 2.44 0 0 0 2.74 4Z" fill="#001434" stroke-width="1"></path><path d="M263.06 167.66c11.28 -0.86 19.22 -2.32 18.62 -13.4s-8.1 -12.78 -22.16 -10.96c-8.66 1.08 -16.36 2.94 -15.42 13.76 0.32 10.94 9.9 11.46 18.96 10.6Zm-14.12 -11c-0.96 -5.52 2.68 -7.76 12.18 -8.62a27.48 27.48 0 0 0 2.46 14.68c-11.82 1.28 -14.74 -0.72 -14.64 -6.06Z" fill="#001434" stroke-width="1"></path><path d="M281.2 180.46c-9.02 1.12 -16.42 -1.32 -19.8 -4.24a2.4 2.4 0 0 0 -3.42 0.24c-5.24 6.34 25.66 13.68 26 6.12a2.44 2.44 0 0 0 -2.78 -2.12Z" fill="#001434" stroke-width="1"></path><path d="M150 157.04c-8.42 3.72 -22.54 3.34 -30 0.7a2.4 2.4 0 0 0 -3.1 1.48c-2.48 7.74 39.08 7.08 36.26 -0.94a2.46 2.46 0 0 0 -3.16 -1.24Z" fill="#001434" stroke-width="1"></path></g></svg>