<svg xmlns="http://www.w3.org/2000/svg" viewBox="0 0 400 400" id="Treasure-Chest--Streamline-Manila.svg" height="400" width="400"><desc>Treasure Chest Streamline Illustration: https://streamlinehq.com</desc><g><path d="M82.748 147.356c-0.778 1.558 -4.87 3.118 -11.106 2.922 -2.532 0 -0.974 2.534 2.534 2.728 4.676 0.39 10.132 -0.584 12.276 -3.702 6.624 -9.938 -38 -57.092 -34.88 -60.21 3.314 -3.312 51.832 31.178 60.4 20.654 4.676 -4.48 -2.338 -26.11 -6.626 -32.93 -2.728 -4.286 -4.482 -3.118 -2.728 0 4.482 7.8 9.548 26.696 7.21 29.618 -3.896 4.872 -19.096 -3.508 -35.074 -11.496 -15.4 -8.184 -23.382 -12.276 -26.306 -8.184 -6.812 8.184 40.152 51.444 34.3 60.6Z" fill="#3d9cfb" stroke-width="1"></path><path d="M132.826 186.522c5.456 -7.016 27.476 -10.328 34.49 -4.678a1.726 1.726 0 0 0 2.728 -0.974c1.364 -7.988 -0.78 -19.486 -3.312 -19.094 -1.17 0.2 -2.924 5.454 -4.872 5.064s-4.482 -9.548 -6.43 -9.548c-2.728 0 -4.882 9.102 -7.4 9.548 -1.958 0.346 -8.574 -9.548 -10.718 -8.572 -2.532 0.974 -1.754 12.47 -4.092 13.64s-5.65 -3.898 -7.4 -2.924c-1.95 1.17 0.78 10.328 4.092 17.342a1.652 1.652 0 0 0 2.914 0.196Z" fill="#3d9cfb" stroke-width="1"></path><path d="M301.766 136.444c8.182 -1.56 23 -1.364 33.904 8.574 1.948 1.754 3.898 -0.2 0.974 -2.924 -16.172 -15.2 -38.2 -8.768 -39.166 -8.572a2.05 2.05 0 0 0 -1.364 2.532s6.82 22.8 8.768 28.448c1.56 4.872 5.456 9.744 2.728 -1.168 -2.142 -8.574 -5.26 -19.68 -6.43 -24.358 -0.38 -1.176 -0.58 -2.338 0.586 -2.532Z" fill="#3d9cfb" stroke-width="1"></path><path d="M182.32 56.36c7.8 2.726 12.08 -3.508 15.4 -11.692 4.094 -9.548 5.456 -19.876 6.626 -19.68 0.974 0.2 0.974 11.496 4.482 19.874 2.338 5.262 5.456 10.328 11.3 11.106 16.758 2.144 35.464 -37.02 37.218 -36.436 1.754 0.778 -12.08 44.426 0.39 51.246 7.2 3.898 14.224 -2.144 20.07 -8.184 1.754 -1.754 4.286 -4.872 4.872 -4.676 0.584 0.4 0.39 2.144 0.584 6.624 0.2 5.262 3.508 7.016 5.65 7.2 2.728 0.2 5.066 -1.754 0.78 -2.142 -6.702 -0.538 3.108 -28.224 -12.08 -12.278 -25.136 26.5 -21.824 -1.948 -17.928 -25.524 2.144 -11.302 1.966 -17.184 0 -18.122 -2.124 -1.014 -6.234 3.508 -12.08 12.666 -9.742 15.782 -19.29 26.694 -26.694 25.524 -5.262 -0.778 -9.354 -7.8 -11.888 -23.576 -0.974 -5.846 -1.356 -8.814 -3.896 -9.158 -3.306 -0.45 -4.676 4.092 -7.4 13.056 -2.34 7.4 -6.076 18.064 -9.354 20.07 -2.166 1.326 -3.678 1.076 -7.21 0.2 -3.498 -0.858 -2.162 2.542 1.158 3.902Z" fill="#3d9cfb" stroke-width="1"></path><path d="M133.41 73.116c12.862 -1.558 -0.972 -28.838 1.754 -30.788 2.534 -1.558 12.278 15.2 15.6 17.734 5.65 4.092 9.352 -2.534 9.548 -5.456 0.4 -2.534 -0.908 -3.092 -2.144 -0.2 -0.924 2.166 -3.088 3.86 -5.066 2.338 -4.418 -3.4 -13.836 -22.018 -19.876 -17.926 -5.456 3.506 2.652 19.684 2.338 27.086 -0.14 3.314 -2.724 4.188 -6.818 4.09 -2.746 -0.06 -1.57 3.902 4.664 3.122Z" fill="#3d9cfb" stroke-width="1"></path><path d="M169.264 83.444c4.092 1.17 99.57 32.15 109.312 35.658 4.678 1.558 5.652 0 23.578 -2.338 2.534 -0.4 -0.516 -3.742 -18.51 -0.4a6.916 6.916 0 0 1 -3.508 -0.2c-20.07 -6.624 -79.89 -26.304 -106.2 -34.294 -1.17 -0.4 -1.56 -0.778 -0.4 -1.364a82.06 82.06 0 0 1 9.758 -3.106c2.922 -0.78 2.338 -1.754 0.39 -1.56a79.458 79.458 0 0 0 -17.536 4.092c-1.366 0.978 -0.976 2.342 3.116 3.512Z" fill="#3d9cfb" stroke-width="1"></path><path d="M27.022 188.08c11.106 5.456 26.5 13.834 28.058 30.2 0.78 8.378 3.118 8.768 3.118 0.2 0 -17.732 -13.056 -25.722 -25.332 -31.956 -3.702 -1.948 -10.716 -4.678 -10.716 -5.456 0 -1.17 7.6 0.2 11.886 0.388 15.2 0.586 33.124 0.2 36.048 -17.536 0.778 -4.676 -0.974 -6.626 -2.534 -0.584 -3.898 14.224 -20.46 15 -37.8 14.03 -15.594 -2.284 -16.804 5.234 -2.728 10.714Z" fill="#3d9cfb" stroke-width="1"></path><path d="M358.662 313.566c-10.4 -4.094 -14.224 -7.4 -14.224 -9.742 0.39 -5.846 26.11 -7.8 25.332 -14.81 -0.586 -6.04 -20.266 -4.676 -28.84 -11.69 -3.312 -2.728 -4.676 -9.548 -3.116 -13.836 0.778 -2.142 -1.116 -2.498 -2.924 0.2 -1.324 1.974 -1.56 8.572 0.78 13.444 2.728 5.652 9.158 7.988 15.978 9.548 4.676 0.974 13.054 1.56 12.86 2.728 0 2.334 -24.746 5.316 -24.356 14.614 0.2 4.676 6.428 8.184 13.054 11.106 4.872 2.338 11.302 4.288 11.108 6.04 -0.2 1.17 -7.6 0.976 -13.056 1.17 -7.4 0.2 -14.224 1.56 -16.564 6.43 -2.922 5.066 2.144 14.614 7.2 23.578 2.534 4.676 7.016 12.08 6.236 12.47 -1.168 0.78 -9.158 -5.066 -14.224 -7.8 -10.718 -5.652 -22.214 -11.106 -27.474 -7.8 -5.066 3.312 -0.2 19.29 -1.56 20.07 -0.974 0.584 -5.65 -4.872 -9.158 -8 -7.4 -6.624 -15.782 -10.716 -19.874 -8.184 -4.288 2.73 -3.314 8.77 -1.948 17.734 0.584 3.702 1.948 9.352 1.168 9.936 -0.584 0.39 -5.066 -3.896 -7.6 -6.624 -9.938 -11.302 -20.46 -23.968 -30.6 -10.134 -0.584 0.976 -1.168 1.754 -0.2 2.338 1.754 0.976 4.872 -5.26 9.548 -5.064 9.158 0.4 22.212 24.55 30.4 25.136 7.4 0.388 -3.506 -27.086 0.78 -29.618 3.898 -2.338 12.86 5.066 18.902 10.716 5.65 5.262 8.182 6.82 10.52 5.652 3.702 -1.754 -1.12 -18.462 1.364 -20.85 3.776 -3.628 19.486 5.65 28.45 10.716 7.4 4.872 11.886 5.846 14.03 4.678 2.728 -1.56 0.956 -6.886 -4.678 -16.37 -6.282 -10.576 -9.44 -16.908 -7.8 -21.042 3.126 -7.85 29.242 -0.638 31.568 -8.184 0.61 -2.122 -2.762 -5.284 -11.082 -8.556Z" fill="#3d9cfb" stroke-width="1"></path><path d="M381.07 148.33c-16.66 -7.4 -13.756 -9.558 0 -19.876 6.236 -4.48 9.8 -7.23 8.768 -10.132 -1.472 -4.124 -26.694 3.312 -30.2 -2.728 -1.754 -2.922 7.266 -13.95 12.276 -19.874 7.4 -8.748 9.938 -13.056 8.768 -15 -3.896 -6.236 -44.036 15.2 -49.102 9.158 -2.144 -2.534 5.65 -14.224 3.116 -16.562 -2.336 -2.534 -15.4 5.65 -19.874 2.922 -2.144 -1.364 -1.558 1.754 0.78 2.924 5.262 2.726 15 -3.508 16.172 -2.34 0.974 0.974 -6.236 10.328 -2.728 15.6 5.456 7.8 46.542 -10.894 47.74 -9.16 0.952 1.38 -26.11 26.5 -20.46 34.49 3.312 4.872 11.886 4.286 19.68 3.702 4.872 -0.4 8.184 -1.168 8.574 -0.584s-3.118 2.728 -7.6 5.844c-7.6 5.458 -11.886 10.524 -11.3 14.616 0.778 6.234 18.706 11.106 18.706 13.25 0 1.754 -19.682 9.352 -19.292 14.028 0.2 2.534 4.678 9.354 6.43 10.718s3.312 1.364 1.56 -1.56c-1.948 -3.118 -4.092 -7.21 -3.898 -8.768 0.39 -3.118 19.876 -9.548 19.876 -14.614 -0.392 -2.546 -2.536 -4.106 -7.992 -6.054Z" fill="#3d9cfb" stroke-width="1"></path><path d="M308.584 292.326c0 -13.834 -0.2 -29.032 -0.584 -45.2 0 -5.844 -8.574 -11.69 -12.666 -10.912 -7.2 1.366 -18.9 4.092 -33.514 6.626 -14.224 2.532 -17.342 3.702 -31.176 6.43 -5.456 1.17 -14.42 12.86 -14.42 18.512 0.4 24.55 1.094 42.868 1.17 46.374 0.2 9.164 11.3 17.148 17.73 15.6 16.564 -3.898 46.766 -11.692 62.744 -16.564 7.99 -2.354 10.716 -10.148 10.716 -20.866Zm-72.874 33.126c-6.432 1.754 -14.614 -7.2 -14.8 -13.446 -0.2 -10.132 -0.586 -19.094 -0.976 -44.23 0 -3.898 7.6 -13.836 10.718 -14.42 20.654 -4.482 59.624 -13.056 65.08 -13.446 2.534 -0.388 8.184 4.288 8 7.21 0 1.17 0 19.29 0.778 47.156 0.39 12.276 -5.066 13.834 -15 16.756 -15.608 4.676 -36.458 10.132 -53.8 14.42Z" fill="#3d9cfb" stroke-width="1"></path><path d="M282.474 221.984c8.964 -2.338 7.8 -14.8 -1.168 -14.8 1.948 -7.4 -3.898 -12.86 -11.108 -10.522 0.2 -7.6 -8.378 -10.328 -14.03 -7.016a10.41 10.41 0 0 0 -14.028 -11.496c-1.754 -13.444 -18.318 -14.028 -21.824 -6.43 -7.8 -4.092 -15.2 -0.584 -15.978 5.456 -4.676 -2.728 -14.224 0.2 -13.834 8.378 -4.678 -4.48 -14.42 -1.948 -15 5.652 -1.754 -5.456 -9.938 -6.82 -14.614 -1.17 -1.56 -6.236 -13.64 -6.624 -15.2 0 -6.822 -5.844 -15.784 1.17 -12.666 7.6 14.42 7.6 63.522 29.812 75.6 35.658a15.156 15.156 0 0 0 10.134 1.364c15.394 -2.93 59.818 -11.7 63.716 -12.674Zm-15.2 -20.654c1.364 0.39 0.78 1.95 -1.754 2.338 -4.286 0.584 -5.066 4.482 -2.728 7.4 3.898 -0.976 9.742 -0.2 11.108 6.04a1.242 1.242 0 0 1 -2.144 1.168 7.576 7.576 0 0 0 -8.184 -3.702 6.024 6.024 0 0 0 -4.092 6.04c0 1.17 -0.2 1.56 -1.17 1.56 -2.728 -0.4 -3.118 -6.626 0.78 -9.354a7.452 7.452 0 0 1 8.186 -11.49Zm-101.322 -2.144a1.516 1.516 0 0 1 -2.338 -0.584c-3.156 -4.986 -11.342 -3.23 -12.082 1.948a1.8 1.8 0 0 1 -1.948 1.754c-2.924 -0.584 0 -8.378 5.652 -9.938 7.404 -1.948 13.054 5.458 10.716 6.82Zm22.4 15.978c-0.2 0.974 -2.728 0.78 -2.728 -0.388 -0.2 -7.6 -8.184 -11.108 -12.276 -5.456 -0.584 0.974 -0.974 1.168 -1.948 0.584 -2.728 -1.56 3.118 -7.6 9.548 -6.624 4.1 0.584 8.776 4.674 7.412 11.884Zm63.716 -14.418c0.78 1.558 -0.584 2.922 -2.532 1.364 -5.456 -4.286 -12.128 -2.32 -13.056 4.676 -0.336 2.54 -2.336 3.508 -2.728 0.974 -2.524 -12.08 13.648 -16.172 18.324 -7.014Zm-19.678 -22.4c7.2 -0.39 9.546 8.378 6.818 8.572 -1.168 0.2 -1.362 0 -1.558 -1.168a4.958 4.958 0 0 0 -5.05 -4.49c-1.948 0 -4.482 0.974 -5.262 5.262 -0.2 1.168 -2.532 0.974 -2.532 -0.2a7.466 7.466 0 0 1 7.594 -7.984Zm-24.358 0.584c3.508 -4.482 10.912 -2.728 10.912 -0.78 0 1.17 -1.356 1.728 -2.534 1.364a5.95 5.95 0 0 0 -5.65 1.56 6.884 6.884 0 0 0 -0.974 6.82c0.39 1.168 -0.4 1.948 -1.754 1.558 -2.134 -0.398 -3.11 -6.632 0.008 -10.53ZM195.57 206.2c-2.534 -1.362 0.4 -9.546 8.184 -10.52 7.6 -0.976 13.834 5.456 12.08 7.2a1.882 1.882 0 0 1 -2.728 -0.2c-5.456 -6.04 -12.86 -2.922 -15.4 2.144 -0.578 0.988 -1.162 1.776 -2.136 1.376Zm22.018 19.876c-2.226 -10.108 -14.116 -11.106 -17.146 -4.286 -0.976 2.338 -3.314 1.364 -2.534 -1.17 1.948 -6.82 10.716 -9.158 16.952 -5.26a9.754 9.754 0 0 1 16.172 4.676c0.39 1.558 -1.168 3.508 -2.142 1.168 -1.948 -4.674 -6.626 -6.818 -10.912 -3.312 1.364 1.558 4.092 9.158 1.558 9.744a1.758 1.758 0 0 1 -1.948 -1.56Z" fill="#3d9cfb" stroke-width="1"></path><path d="M176.084 358.576c-6.04 0.78 -11.106 10.524 -13.834 9.354 -1.948 -0.78 -2.924 -13.64 -11.886 -15s-22.386 12.028 -24.748 11.106c-2.124 -0.828 4.288 -18.9 -4.286 -22.8 -8.378 -3.704 -26.092 9.88 -40.92 20.46 -4.536 3.236 -11.69 8.962 -12.664 8.182 -1.17 -0.974 4.092 -8.378 6.82 -13.054 7.6 -13.64 16.54 -29.722 10.522 -39.556 -1.326 -2.166 -3.312 -1.754 -2.144 0.584 5.26 10.718 -7.8 30 -13.446 40.14 -4.87 8.77 -8.766 15.4 -2.338 16.174 7.8 0.78 44.234 -33.516 52.222 -29.228 7.4 4.092 -1.56 21.238 4.48 23.382 4.874 1.754 18.902 -14.03 26.696 -11.692 7.8 2.534 6.626 15.4 10.718 16.368 4.676 1.17 12.47 -10.522 15.2 -11.106 4.286 -0.78 7.4 3.702 8.378 2.532s-3.508 -6.422 -8.77 -5.846Z" fill="#3d9cfb" stroke-width="1"></path><path d="M188.556 244.782c-3.898 -1.948 -21.046 -9.938 -24.552 -11.496s-3.312 2.534 2.144 5.066c5.454 2.728 16.756 8.184 20.654 10.132 4.48 2.144 8.572 11.108 8.378 13.836 0 4.48 -0.584 34.684 -0.584 51.44 0 4.678 -8 8.964 -10.912 7.6 -1.56 -0.78 -65.862 -34.294 -79.306 -41.114 -3.118 -1.558 -6.04 -8.574 -6.236 -13.836 -0.2 -5.064 -0.974 -52.414 -0.974 -55.336a3.946 3.946 0 0 1 5.652 -3.508c5.65 2.726 14.418 6.624 18.9 8.572 5.456 2.34 8.414 -0.082 4.092 -1.948 -4.252 -1.836 -14.614 -7.014 -22.214 -10.132a8.02 8.02 0 0 0 -10.716 7.21c0.03 1.752 0 14.224 0.584 27.474 0.78 13.64 0.2 21.628 0.584 28.838 0.2 5.456 4.678 14.614 8.186 16.368 5.26 2.534 76.186 39.556 79.304 41.308 4.676 2.534 16.952 -1.168 16.952 -10.91 0 -10.912 0.4 -46.766 0.584 -51.248 0.196 -4.87 -4.276 -15.394 -10.52 -18.316Z" fill="#3d9cfb" stroke-width="1"></path><path d="M73 303.238c2.144 3.118 2.924 0 1.56 -2.338 -4.482 -7.99 -11.886 -7.2 -20.85 -3.506 -4.092 1.558 -10.912 5.26 -11.69 4.092 -0.4 -0.78 4.09 -5.652 6.818 -9.16 6.042 -7.6 12.472 -16.172 8.574 -21.434 -4.482 -6.234 -16.952 -3.116 -28.448 -0.388 -5.456 1.362 -14.03 3.506 -14.42 2.338s7.016 -5.456 10.912 -8.768c9.548 -8 19.096 -17.732 19.68 -28.06 0.39 -8.184 -3.506 -13.834 -9.158 -18.512 -4.676 -3.896 -5.846 -1.168 -3.896 0.39 6.43 5.262 9.156 12.666 8.962 17.148 -0.584 11.496 -14.1 23.158 -23.188 29.812 -16.922 12.4 -3.118 14.42 12.276 9.548 15.978 -3.898 22.6 -3.508 23.968 -0.974 3.312 6.04 -19.29 25.136 -16.368 30.4 2.144 3.896 7.21 1.364 11.692 -0.586 9.748 -4.288 17.932 -8.77 23.576 -0.002Z" fill="#3d9cfb" stroke-width="1"></path><path d="M133.6 245.172c1.17 2.144 10.912 6.04 13.64 5.652 2.728 -0.2 -1.17 -13.446 -1.17 -13.446 8.38 -1.558 7.8 -15.2 -1.558 -16.562 -10.328 -1.56 -11.692 10.522 -6.624 14.8 0.2 0.204 -5.45 7.414 -4.288 9.556Z" fill="#001434" stroke-width="1"></path><path d="M194.8 157.682c11.57 -6.458 19.096 -23.188 16.758 -41.308 20.654 6.43 47.738 16.562 59.624 20.85A11.764 11.764 0 0 1 278 144.042c6.236 15.98 21.044 55.144 20.46 59.042 -0.388 2.338 -7.2 -0.586 -10.912 -0.974 -1.558 -0.2 -2.726 1.558 -0.388 3.118a36.346 36.346 0 0 0 10.716 3.312c3.312 0.584 6.624 -0.39 4.87 -6.042 -2.726 -8.378 -21.238 -60.6 -22.4 -63.326s-1.754 -4.092 -13.444 -8.574c-7.4 -2.922 -107.364 -35.464 -111.066 -36.828 -4.482 -1.752 -8.878 -0.044 -6.626 4.482 1.824 3.668 24.552 49.882 27.474 54.56 2.144 3.508 4.288 2.726 1.948 -2.924 -3.116 -7.4 -17.924 -37.216 -23.966 -49.298 -0.4 -0.974 -3.118 -4.87 0 -3.702s52.8 17.928 52.8 17.928c3.312 14.028 -2.338 31.37 -14.614 40.138a1.678 1.678 0 1 0 1.948 2.728Z" fill="#001434" stroke-width="1"></path><path d="M155.43 262.124c3.896 1.56 16.952 6.04 19.68 7.4 3.118 0.974 7.8 -0.2 1.558 -3.314a82.968 82.968 0 0 0 -19.096 -7.014c-5.288 -1.246 -6.234 1.37 -2.142 2.928Z" fill="#001434" stroke-width="1"></path><path d="M175.5 293.106c-7.6 -2.922 -50.856 -20.07 -56.702 -20.654 -5.846 -0.78 0 3.118 4.092 4.872 21.628 9.158 49.882 19.094 53.388 19.68 3.508 0.778 6.822 -0.974 -0.778 -3.898Z" fill="#001434" stroke-width="1"></path><path d="M206.676 255.11c-0.686 48.214 -0.234 74.846 0.974 78.916 1.036 3.49 3.508 1.17 3.508 0 0 -15.784 0 -59.822 -0.78 -79.89 -0.194 -3.508 -3.604 -5.848 -3.702 0.974Z" fill="#001434" stroke-width="1"></path><path d="M110.8 188.08c5.066 1.948 18.706 7.99 22.018 9.548 -2.922 -6.43 5.846 -13.25 12.666 -7.4 1.754 -6.626 13.64 -6.432 15.2 0 4.674 -5.65 12.664 -4.288 14.612 1.168 0.586 -7.6 10.134 -10.132 15 -5.65a8.228 8.228 0 0 1 2.34 -6.236l-14.42 -5.26c-2.338 -0.974 -5.652 0 -8 0.2 -0.388 15 -1.364 1.754 -21.044 4.872 -14.8 2.338 -15.588 7.8 -17.926 7.6 -1.17 -0.2 -1.754 -1.558 -3.702 -5.844 -8.162 1.546 -29.596 2.322 -16.744 7.002Z" fill="#001434" stroke-width="1"></path><path d="M218.172 147.94c-4.286 -0.39 -5.846 1.754 0 3.702s29.814 9.352 38.388 12.666c4.286 1.754 7.4 -0.974 0.584 -4.676 -7.99 -4.288 -31.568 -10.912 -38.972 -11.692Z" fill="#001434" stroke-width="1"></path><path d="M261.624 101.954a295.14 295.14 0 0 0 -29.224 -11.496c-11.302 -3.702 -22.02 -6.82 -28.06 -8.184 -4.872 -0.974 -5.262 1.17 0.584 3.118 10.654 3.328 42.728 14.4 55.534 19.096 5.844 2.142 7.986 0.584 1.166 -2.534Z" fill="#001434" stroke-width="1"></path><path d="M126 253.55c-4.87 -2.142 -11.106 -4.286 -16.366 -6.04 -4.288 -1.558 -5.128 1.08 -0.78 3.508a52.106 52.106 0 0 0 14.03 4.872c4.682 0.974 6.436 -0.976 3.116 -2.34Z" fill="#001434" stroke-width="1"></path><path d="M326.512 150.474c3.896 12.08 5.846 17.536 7.4 18.706 2.728 2.532 1.948 -3.702 -0.974 -12.276 -3.894 -10.718 -8.18 -12.082 -6.426 -6.43Z" fill="#001434" stroke-width="1"></path><path d="M194.8 134.494c-1.478 -4.314 -2.534 -7.6 -5.65 -15.4 -3.314 -7.988 -8.184 -9.158 -4.872 -1.56s7.014 17.732 8.964 21.044c1.558 3.322 3.404 1.338 1.558 -4.084Z" fill="#001434" stroke-width="1"></path><path d="M278.772 270.504c-1.558 -1.17 -12.276 1.362 -24.162 3.312 -8.184 1.364 -16.952 3.118 -20.85 3.702 -1.752 0.4 -2.338 2.728 0.2 3.312 2.728 0.584 9.938 -0.78 20.07 -2.728 24.352 -4.286 26.3 -6.43 24.742 -7.598Z" fill="#001434" stroke-width="1"></path><path d="M351.064 149.694c-7.4 -32.152 -22.02 -43.258 -147.506 -79.112 -18.706 -5.456 -47.544 0.976 -63.716 9.938 -4.288 2.34 -5.066 7.6 -1.948 14.03 8.572 17.342 35.268 69.174 35.268 69.174 1.752 3.506 3.506 5.26 8.574 7.4s10.52 4.676 12.86 2.144c3.312 -3.508 -13.836 -3.898 -16.952 -11.692 -1.95 -4.872 -31.874 -58.746 -36.634 -72.292 -0.552 -1.57 0.2 -3.352 1.754 -3.116 27.4 4.16 126.46 39.164 136.2 43.062a12.514 12.514 0 0 1 7.014 7.4c20.668 63.22 24.676 71.184 25.916 80.476 0.2 1.168 -1.17 1.364 -2.338 0.974 -3.314 -1.364 -9.158 -3.702 -11.692 -4.678s-4.288 -0.2 -3.702 1.17c1.168 2.922 10.132 5.652 13.25 7.8 -12.472 1.364 -60.6 13.446 -87.1 17.342a29.758 29.758 0 0 1 -18.902 -2.532c-29.028 -13.054 -82.222 -38.382 -107.554 -50.66 -1.95 -0.976 -3.312 -2.73 -1.754 -3.314 3.896 -1.558 11.886 -2.922 26.696 -4.48 3.312 -0.4 4.092 -3.508 -0.78 -3.508 -7.016 0 -27.864 1.948 -32.54 7.21 -1.95 2.142 -2.73 4.48 -2.924 10.132 -0.4 13.444 0.586 73.848 1.17 82.228 0.388 7.014 0.778 13.834 9.352 19.29 8 5.066 91.2 47.74 108.144 53 18.122 5.652 24.746 0.974 63.718 -9.548 26.694 -7.2 39.554 -11.3 42.672 -12.47 7.016 -2.532 10.718 -3.898 10.522 -13.834 -0.2 -9.354 -1.168 -80.864 -2.144 -87.49 27.866 -13.444 39.75 -54.938 35.076 -74.044ZM285 128.454c-14.218 -9.158 -100.778 -34.254 -134.636 -44.622 -1.18 -0.36 -2.728 -2.142 -1.364 -2.532 15.588 -6.43 37.412 -10.522 52.026 -6.43 92.166 26.11 123.926 39.75 136.4 55.144 -15.006 -9.548 -37.226 -9.158 -52.426 -1.56Zm20.46 192.322q-5.848 2.046 -43.258 12.86c-48.13 13.834 -52.8 10.326 -60.6 7.988 -17.342 -5.65 -97.622 -46.764 -106.2 -52.026 -6.428 -3.896 -6.428 -9.156 -7.014 -15.588 -0.4 -4.092 -1.12 -33.316 -1.168 -54.754 -0.034 -14.226 0.2 -20.46 0.2 -26.694 0 -1.754 0.4 -4.092 1.948 -3.314 24.746 13.25 59.236 27.67 111.262 53.586 5.65 2.922 10.716 2.338 14.42 2.338 8.766 0.2 78.914 -14.8 94.308 -18.316 1.17 -0.2 2.144 0.4 2.144 1.558 0.4 14.81 1.754 75.02 1.754 81.644 0.2 6.626 -1.748 8.574 -7.788 10.718Zm10.326 -102.494c-0.974 -10.912 -5.65 -20.458 -10.326 -35.462 -4.288 -11.302 -9.938 -32.152 -17.732 -51.052 17.926 -7.6 44.622 -7.99 56.506 11.106 8.192 21.824 -2.134 58.456 -28.434 75.408Z" fill="#001434" stroke-width="1"></path><path d="M287.54 287.846c-5.26 0.2 -33.904 5.846 -41.114 9.936 -2.532 1.364 -0.79 2.854 2.534 2.338 5.828 -0.902 36.6 -7.88 40.334 -9.158 3.674 -1.256 3.506 -3.312 -1.754 -3.116Z" fill="#001434" stroke-width="1"></path><path d="M268.64 148.134c-1.364 -2.142 -3.314 -3.702 -18.706 -9.352 -15.978 -6.04 -23.578 -4.092 -16.368 -1.364s4.676 1.948 18.51 7.014c10.324 3.898 18.512 6.82 16.564 3.702Z" fill="#001434" stroke-width="1"></path><path d="M319.302 158.852c-3.702 -10.912 -7.21 -11.302 -6.82 -7.014 0.39 3.896 8.962 29.812 11.692 37.216 1.752 4.872 3.506 -0.584 1.948 -7.4 -2.144 -8.578 -3.122 -11.5 -6.82 -22.802Z" fill="#001434" stroke-width="1"></path><path d="M130.294 179.506c3.118 -0.78 0.584 -5.65 -1.364 -4.87 -1.754 0.584 -0.39 5.454 1.364 4.87Z" fill="#001434" stroke-width="1"></path><path d="M155.43 170.932c3.118 -0.378 2.338 -6.43 0 -6.234 -3.118 0 -3.312 6.636 0 6.234Z" fill="#001434" stroke-width="1"></path><path d="M141.984 173.466c3.118 -1.17 0.2 -6.626 -1.948 -6.04 -1.948 0.774 -1.168 7.21 1.948 6.04Z" fill="#001434" stroke-width="1"></path><path d="M167.316 166.646c-2.338 0 -2.924 6.42 0.39 6.04 1.752 -0.2 1.364 -5.846 -0.39 -6.04Z" fill="#001434" stroke-width="1"></path></g></svg>