<svg width="98" height="30" viewBox="0 0 98 30" fill="none" xmlns="http://www.w3.org/2000/svg">
<path d="M5.11873 10.3984C5.04161 10.3984 4.89219 10.4177 4.67048 10.4563C4.4584 10.4852 4.20777 10.5238 3.91857 10.572C3.62938 10.6202 3.32573 10.678 3.00761 10.7455C2.6895 10.8033 2.39067 10.8563 2.11111 10.9045C1.83156 10.9527 1.59056 10.9961 1.38813 11.0347C1.17605 11.0636 1.03628 11.078 0.968798 11.078C0.322933 11.078 0 10.7407 0 10.0659C0 9.88271 0.0192796 9.70437 0.0578387 9.53086C0.0867581 9.3477 0.144597 9.18382 0.231355 9.03923C0.318113 8.88499 0.43379 8.75485 0.578387 8.64882C0.722984 8.54278 0.90614 8.47048 1.12785 8.43192C2.25571 8.25841 3.37874 8.07525 4.49696 7.88245C5.61518 7.68966 6.74303 7.48722 7.88053 7.27515C8.13116 7.22695 8.35769 7.18357 8.56013 7.14501C8.76257 7.09681 8.9891 7.03415 9.23973 6.95703C9.50965 6.87992 9.80366 6.80762 10.1218 6.74014C10.4399 6.66302 10.758 6.59554 11.0761 6.5377C11.4039 6.47986 11.7172 6.43167 12.016 6.39311C12.3245 6.35455 12.604 6.33527 12.8547 6.33527C13.1631 6.33527 13.3945 6.43649 13.5487 6.63892C13.7126 6.83172 13.7945 7.10645 13.7945 7.46312C13.7945 7.64628 13.7801 7.82461 13.7512 7.99813C13.7222 8.16201 13.6692 8.31142 13.5921 8.44638C13.515 8.58134 13.4089 8.69219 13.274 8.77895C13.139 8.86571 12.9655 8.91873 12.7534 8.93801C12.204 9.01513 11.6159 9.11153 10.9894 9.2272C10.3628 9.33324 9.81812 9.45374 9.35541 9.5887C9.16262 9.64653 9.01802 9.74293 8.92162 9.87789C8.82522 10.0032 8.76257 10.1623 8.73365 10.3551C8.70473 10.5382 8.68545 10.7262 8.67581 10.919C8.67581 11.1021 8.67581 11.2805 8.67581 11.454C8.67581 11.8589 8.69027 12.2637 8.71919 12.6686C8.75775 13.0735 8.79148 13.4783 8.8204 13.8832C8.90716 15.2713 9.0373 16.645 9.21082 18.0042C9.39397 19.3634 9.59159 20.7371 9.80366 22.1252C9.82294 22.1734 9.83258 22.2216 9.83258 22.2698C9.83258 22.318 9.83258 22.3662 9.83258 22.4144C9.83258 22.9446 9.53375 23.3206 8.93608 23.5423L8.2854 23.7447C8.11188 23.8026 7.94318 23.8315 7.77931 23.8315C7.52867 23.8315 7.32624 23.7495 7.172 23.5857C7.01776 23.4314 6.91655 23.2001 6.86835 22.8916C6.59843 21.2336 6.36226 19.5852 6.15982 17.9464C5.95739 16.298 5.82725 14.6399 5.76941 12.9723C5.75013 12.7023 5.73567 12.4083 5.72603 12.0902C5.71639 11.7721 5.71157 11.4444 5.71157 11.107C5.71157 10.6346 5.51396 10.3984 5.11873 10.3984Z" fill="#21201C"/>
<path d="M23.1789 16.2257C23.1789 14.7026 23.362 13.5314 23.7283 12.712C24.0946 11.8926 24.62 11.4829 25.3044 11.4829C26.3937 11.4829 26.9384 12.4228 26.9384 14.3026C26.9384 14.9677 26.8998 15.5943 26.8227 16.1823C26.7552 16.7703 26.654 17.3391 26.5191 17.8885C26.4998 17.9657 26.4853 18.038 26.4757 18.1054C26.466 18.1729 26.4612 18.2356 26.4612 18.2934C26.4612 18.4959 26.4998 18.6742 26.5769 18.8284C27.0589 20.0527 27.9506 20.6648 29.2519 20.6648C29.7146 20.6648 30.1484 20.5636 30.5533 20.3612C30.9582 20.1587 31.31 19.884 31.6089 19.537C31.9077 19.1803 32.139 18.7658 32.3029 18.2934C32.4764 17.8211 32.5632 17.3102 32.5632 16.7607C32.5632 16.1437 32.4909 15.6328 32.3463 15.228C32.2017 14.8135 32.0426 14.4616 31.8691 14.1724C31.6956 13.8736 31.5366 13.6037 31.392 13.3627C31.2474 13.112 31.1751 12.8325 31.1751 12.524C31.1751 12.3794 31.2377 12.23 31.363 12.0758C31.498 11.9119 31.6619 11.7625 31.8547 11.6275C32.0571 11.4926 32.274 11.3817 32.5054 11.2949C32.7464 11.2082 32.9729 11.1648 33.185 11.1648C33.4645 11.1648 33.7393 11.319 34.0092 11.6275C34.2887 11.936 34.5345 12.3409 34.7466 12.8421C34.9683 13.3338 35.1418 13.8977 35.2672 14.5339C35.4021 15.1701 35.4696 15.8112 35.4696 16.457C35.4696 17.3921 35.2961 18.2741 34.949 19.1032C34.602 19.9322 34.1297 20.66 33.532 21.2866C32.9343 21.9132 32.2354 22.4096 31.4353 22.7759C30.6449 23.1422 29.8062 23.3254 28.9194 23.3254C28.1675 23.3254 27.4975 23.1904 26.9095 22.9205C26.3311 22.6602 25.7961 22.1975 25.3044 21.5324C25.2273 21.4071 25.1502 21.3203 25.0731 21.2721C24.996 21.2239 24.9188 21.1998 24.8417 21.1998C24.7453 21.1998 24.6586 21.2239 24.5815 21.2721C24.5043 21.3203 24.4224 21.4071 24.3356 21.5324C23.6801 22.3903 22.9764 23.0025 22.2245 23.3688C21.4823 23.7351 20.6629 23.9182 19.7664 23.9182C18.7735 23.9182 17.877 23.6435 17.0769 23.094C16.2864 22.5542 15.6116 21.783 15.0525 20.7805C14.4934 19.7779 14.0644 18.5633 13.7656 17.1366C13.4668 15.7003 13.3174 14.0953 13.3174 12.3216C13.3174 11.5986 13.3463 11.0009 13.4041 10.5286C13.462 10.0466 13.568 9.67063 13.7222 9.40072C13.8765 9.12117 14.0789 8.92837 14.3295 8.82233C14.5802 8.70666 14.9031 8.64882 15.2983 8.64882C15.7129 8.64882 16.0117 8.73075 16.1948 8.89463C16.3876 9.04887 16.484 9.31878 16.484 9.70437C16.484 10.0032 16.4551 10.3406 16.3973 10.7165C16.3394 11.0829 16.3105 11.401 16.3105 11.6709C16.3105 13.0687 16.4069 14.3556 16.5997 15.5316C16.8021 16.7077 17.0769 17.7199 17.4239 18.5682C17.7806 19.4165 18.1999 20.0768 18.6819 20.5491C19.1735 21.0215 19.7134 21.2577 20.3014 21.2577C21.6124 21.2577 22.5812 20.5877 23.2078 19.2478C23.2656 19.1417 23.3042 19.0453 23.3235 18.9586C23.3427 18.8622 23.3524 18.761 23.3524 18.6549C23.3524 18.5971 23.3524 18.5392 23.3524 18.4814C23.3524 18.4139 23.3427 18.3416 23.3235 18.2645C23.2753 17.8982 23.2367 17.5512 23.2078 17.2234C23.1885 16.886 23.1789 16.5534 23.1789 16.2257Z" fill="#21201C"/>
<path d="M39.1134 7.66556C38.8339 7.66556 38.5688 7.627 38.3181 7.54988C38.0772 7.46312 37.8651 7.34745 37.6819 7.20285C37.5084 7.04861 37.3686 6.87028 37.2626 6.66784C37.1566 6.4654 37.1035 6.24369 37.1035 6.0027C37.1035 5.59782 37.2626 5.27007 37.5807 5.01944C37.9085 4.7688 38.3422 4.64349 38.8821 4.64349C39.1327 4.64349 39.3737 4.69168 39.6051 4.78808C39.8364 4.87484 40.0389 4.99534 40.2124 5.14957C40.3955 5.30381 40.5401 5.48697 40.6462 5.69904C40.7522 5.90148 40.8052 6.11355 40.8052 6.33527C40.8052 6.74978 40.651 7.07753 40.3425 7.31853C40.0437 7.54988 39.634 7.66556 39.1134 7.66556ZM37.1325 12.0758C37.1325 11.7384 37.2771 11.4636 37.5662 11.2516C37.8651 11.0298 38.2555 10.919 38.7375 10.919C39.6051 10.919 40.0678 11.2178 40.1256 11.8155C40.1642 12.23 40.2027 12.6975 40.2413 13.2181C40.2895 13.7386 40.3329 14.2929 40.3714 14.8809C40.4196 15.4593 40.4582 16.0618 40.4871 16.6884C40.5257 17.3053 40.5594 17.9175 40.5883 18.5248C40.6172 19.1224 40.6413 19.7008 40.6606 20.2599C40.6799 20.819 40.6895 21.33 40.6895 21.7927C40.6895 22.2747 40.516 22.6361 40.169 22.8771C39.8316 23.1181 39.3351 23.2386 38.6796 23.2386C38.3808 23.2386 38.1446 23.1663 37.9711 23.0217C37.8072 22.8868 37.7253 22.6843 37.7253 22.4144C37.7253 21.0841 37.6916 19.8406 37.6241 18.6838C37.5662 17.5174 37.4988 16.4811 37.4216 15.575C37.3542 14.6689 37.2867 13.917 37.2192 13.3193C37.1614 12.712 37.1325 12.2975 37.1325 12.0758Z" fill="#21201C"/>
<path d="M49.4232 18.8284C49.0954 18.8284 48.7773 18.8525 48.4688 18.9007C48.17 18.9489 47.8905 19.0019 47.6302 19.0598C47.3699 19.108 47.1386 19.1562 46.9361 19.2044C46.7337 19.2526 46.5746 19.2767 46.459 19.2767C46.3529 19.2767 46.2421 19.2333 46.1264 19.1465C46.0203 19.0501 45.9239 18.9296 45.8372 18.7851C45.7504 18.6405 45.6781 18.4814 45.6203 18.3079C45.5624 18.1344 45.5335 17.9657 45.5335 17.8018C45.5335 17.6572 45.6347 17.4548 45.8372 17.1945C46.0493 16.9342 46.3047 16.6402 46.6035 16.3124C46.912 15.9847 47.2446 15.6328 47.6013 15.2569C47.9676 14.8809 48.3001 14.505 48.599 14.129C48.9075 13.7531 49.1629 13.3916 49.3653 13.0446C49.5774 12.6879 49.6835 12.365 49.6835 12.0758C49.6835 11.748 49.563 11.507 49.322 11.3528C49.081 11.1889 48.7677 11.107 48.3821 11.107C47.8519 11.107 47.3217 11.1696 46.7915 11.2949C46.271 11.4203 45.7842 11.56 45.3311 11.7143C44.878 11.8685 44.4683 12.0083 44.102 12.1336C43.7453 12.2589 43.4658 12.3216 43.2634 12.3216C43.1284 12.3216 42.9983 12.283 42.8729 12.2059C42.7573 12.1288 42.6512 12.0276 42.5548 11.9022C42.4584 11.7673 42.3813 11.6131 42.3235 11.4395C42.2753 11.266 42.2512 11.0829 42.2512 10.8901C42.2512 10.5527 42.3042 10.2587 42.4102 10.008C42.5259 9.74775 42.6802 9.57906 42.8729 9.50194C43.2393 9.36698 43.673 9.24166 44.1743 9.12599C44.6852 9.00067 45.2154 8.88981 45.7649 8.79341C46.3144 8.69701 46.859 8.62472 47.3988 8.57652C47.9483 8.51868 48.4447 8.48976 48.8882 8.48976C50.0835 8.48976 50.9945 8.73075 51.6211 9.21274C52.2476 9.68509 52.5609 10.3743 52.5609 11.2805C52.5609 11.6853 52.5079 12.0661 52.4019 12.4228C52.3055 12.7795 52.1464 13.1361 51.9247 13.4928C51.7126 13.8495 51.4427 14.2206 51.115 14.6062C50.7872 14.9822 50.392 15.3918 49.9293 15.8353C49.7461 16.0184 49.6545 16.1678 49.6545 16.2835C49.6545 16.4474 49.8329 16.5486 50.1895 16.5872C51.1246 16.6354 51.9488 16.7993 52.6622 17.0788C53.3851 17.3584 53.9924 17.7391 54.4841 18.2211C54.9757 18.7031 55.3468 19.2767 55.5975 19.9418C55.8577 20.5973 55.9879 21.3348 55.9879 22.1542C55.9879 23.1663 55.7999 24.111 55.424 24.9883C55.0576 25.8751 54.5467 26.6415 53.8912 27.2873C53.2454 27.9428 52.4838 28.4586 51.6066 28.8345C50.7294 29.2105 49.7847 29.3985 48.7725 29.3985C47.876 29.3985 47.0373 29.2587 46.2565 28.9791C45.4757 28.7092 44.7961 28.3333 44.2177 27.8513C43.649 27.3789 43.1959 26.8198 42.8585 26.1739C42.5307 25.5377 42.3669 24.8485 42.3669 24.1062C42.3669 23.7592 42.4054 23.4073 42.4825 23.0507C42.5597 22.7036 42.6609 22.3903 42.7862 22.1108C42.9115 21.8312 43.0513 21.6047 43.2055 21.4312C43.3598 21.2577 43.514 21.1709 43.6682 21.1709C43.9092 21.1709 44.1406 21.1998 44.3623 21.2577C44.5937 21.3059 44.7961 21.3782 44.9696 21.4746C45.1528 21.5613 45.2974 21.6625 45.4034 21.7782C45.5191 21.8939 45.5769 22.0096 45.5769 22.1252C45.5769 22.2216 45.5576 22.318 45.5191 22.4144C45.4902 22.5205 45.4564 22.6313 45.4179 22.747C45.3889 22.8723 45.3552 23.0025 45.3166 23.1374C45.2877 23.2724 45.2733 23.417 45.2733 23.5712C45.2733 24.005 45.3697 24.4147 45.5624 24.8003C45.7649 25.1955 46.0348 25.5377 46.3722 25.8269C46.7096 26.1161 47.1048 26.3426 47.5579 26.5065C48.011 26.68 48.4929 26.7668 49.0039 26.7668C49.6208 26.7668 50.1799 26.6608 50.6812 26.4487C51.1921 26.2462 51.6259 25.9522 51.9825 25.5666C52.3489 25.1907 52.6284 24.7376 52.8212 24.2074C53.0236 23.6869 53.1249 23.1085 53.1249 22.4723C53.1249 21.9517 53.0285 21.4697 52.8357 21.0263C52.6525 20.5829 52.3971 20.2021 52.0693 19.884C51.7416 19.5562 51.3511 19.3008 50.8981 19.1176C50.445 18.9248 49.9534 18.8284 49.4232 18.8284Z" fill="#21201C"/>
<path d="M62.4947 18.8284C62.167 18.8284 61.8489 18.8525 61.5404 18.9007C61.2416 18.9489 60.962 19.0019 60.7017 19.0598C60.4415 19.108 60.2101 19.1562 60.0077 19.2044C59.8052 19.2526 59.6462 19.2767 59.5305 19.2767C59.4245 19.2767 59.3136 19.2333 59.1979 19.1465C59.0919 19.0501 58.9955 18.9296 58.9087 18.7851C58.822 18.6405 58.7497 18.4814 58.6918 18.3079C58.634 18.1344 58.6051 17.9657 58.6051 17.8018C58.6051 17.6572 58.7063 17.4548 58.9087 17.1945C59.1208 16.9342 59.3763 16.6402 59.6751 16.3124C59.9836 15.9847 60.3161 15.6328 60.6728 15.2569C61.0391 14.8809 61.3717 14.505 61.6705 14.129C61.979 13.7531 62.2345 13.3916 62.4369 13.0446C62.649 12.6879 62.755 12.365 62.755 12.0758C62.755 11.748 62.6345 11.507 62.3935 11.3528C62.1525 11.1889 61.8392 11.107 61.4536 11.107C60.9234 11.107 60.3933 11.1696 59.8631 11.2949C59.3425 11.4203 58.8557 11.56 58.4026 11.7143C57.9496 11.8685 57.5399 12.0083 57.1736 12.1336C56.8169 12.2589 56.5373 12.3216 56.3349 12.3216C56.2 12.3216 56.0698 12.283 55.9445 12.2059C55.8288 12.1288 55.7228 12.0276 55.6264 11.9022C55.53 11.7673 55.4529 11.6131 55.395 11.4395C55.3468 11.266 55.3227 11.0829 55.3227 10.8901C55.3227 10.5527 55.3758 10.2587 55.4818 10.008C55.5975 9.74775 55.7517 9.57906 55.9445 9.50194C56.3108 9.36698 56.7446 9.24166 57.2459 9.12599C57.7568 9.00067 58.287 8.88981 58.8364 8.79341C59.3859 8.69701 59.9305 8.62472 60.4704 8.57652C61.0198 8.51868 61.5163 8.48976 61.9597 8.48976C63.1551 8.48976 64.066 8.73075 64.6926 9.21274C65.3192 9.68509 65.6325 10.3743 65.6325 11.2805C65.6325 11.6853 65.5795 12.0661 65.4734 12.4228C65.377 12.7795 65.218 13.1361 64.9963 13.4928C64.7842 13.8495 64.5143 14.2206 64.1865 14.6062C63.8588 14.9822 63.4635 15.3918 63.0008 15.8353C62.8177 16.0184 62.7261 16.1678 62.7261 16.2835C62.7261 16.4474 62.9044 16.5486 63.2611 16.5872C64.1962 16.6354 65.0204 16.7993 65.7337 17.0788C66.4567 17.3584 67.064 17.7391 67.5556 18.2211C68.0472 18.7031 68.4184 19.2767 68.669 19.9418C68.9293 20.5973 69.0594 21.3348 69.0594 22.1542C69.0594 23.1663 68.8715 24.111 68.4955 24.9883C68.1292 25.8751 67.6183 26.6415 66.9628 27.2873C66.3169 27.9428 65.5554 28.4586 64.6781 28.8345C63.8009 29.2105 62.8562 29.3985 61.844 29.3985C60.9475 29.3985 60.1089 29.2587 59.3281 28.9791C58.5472 28.7092 57.8676 28.3333 57.2892 27.8513C56.7205 27.3789 56.2674 26.8198 55.93 26.1739C55.6023 25.5377 55.4384 24.8485 55.4384 24.1062C55.4384 23.7592 55.477 23.4073 55.5541 23.0507C55.6312 22.7036 55.7324 22.3903 55.8577 22.1108C55.9831 21.8312 56.1228 21.6047 56.2771 21.4312C56.4313 21.2577 56.5855 21.1709 56.7398 21.1709C56.9808 21.1709 57.2121 21.1998 57.4338 21.2577C57.6652 21.3059 57.8676 21.3782 58.0412 21.4746C58.2243 21.5613 58.3689 21.6625 58.4749 21.7782C58.5906 21.8939 58.6485 22.0096 58.6485 22.1252C58.6485 22.2216 58.6292 22.318 58.5906 22.4144C58.5617 22.5205 58.528 22.6313 58.4894 22.747C58.4605 22.8723 58.4267 23.0025 58.3882 23.1374C58.3593 23.2724 58.3448 23.417 58.3448 23.5712C58.3448 24.005 58.4412 24.4147 58.634 24.8003C58.8364 25.1955 59.1063 25.5377 59.4437 25.8269C59.7811 26.1161 60.1764 26.3426 60.6294 26.5065C61.0825 26.68 61.5645 26.7668 62.0754 26.7668C62.6923 26.7668 63.2515 26.6608 63.7527 26.4487C64.2636 26.2462 64.6974 25.9522 65.0541 25.5666C65.4204 25.1907 65.7 24.7376 65.8928 24.2074C66.0952 23.6869 66.1964 23.1085 66.1964 22.4723C66.1964 21.9517 66.1 21.4697 65.9072 21.0263C65.7241 20.5829 65.4686 20.2021 65.1409 19.884C64.8131 19.5562 64.4227 19.3008 63.9696 19.1176C63.5165 18.9248 63.0249 18.8284 62.4947 18.8284Z" fill="#21201C"/>
<path d="M71.6766 7.66556C71.3971 7.66556 71.132 7.627 70.8813 7.54988C70.6404 7.46312 70.4283 7.34745 70.2451 7.20285C70.0716 7.04861 69.9318 6.87028 69.8258 6.66784C69.7197 6.4654 69.6667 6.24369 69.6667 6.0027C69.6667 5.59782 69.8258 5.27007 70.1439 5.01944C70.4717 4.7688 70.9054 4.64349 71.4453 4.64349C71.6959 4.64349 71.9369 4.69168 72.1683 4.78808C72.3996 4.87484 72.6021 4.99534 72.7756 5.14957C72.9587 5.30381 73.1033 5.48697 73.2094 5.69904C73.3154 5.90148 73.3684 6.11355 73.3684 6.33527C73.3684 6.74978 73.2142 7.07753 72.9057 7.31853C72.6069 7.54988 72.1972 7.66556 71.6766 7.66556ZM69.6957 12.0758C69.6957 11.7384 69.8402 11.4636 70.1294 11.2516C70.4283 11.0298 70.8187 10.919 71.3007 10.919C72.1683 10.919 72.631 11.2178 72.6888 11.8155C72.7274 12.23 72.7659 12.6975 72.8045 13.2181C72.8527 13.7386 72.8961 14.2929 72.9346 14.8809C72.9828 15.4593 73.0214 16.0618 73.0503 16.6884C73.0889 17.3053 73.1226 17.9175 73.1515 18.5248C73.1804 19.1224 73.2045 19.7008 73.2238 20.2599C73.2431 20.819 73.2527 21.33 73.2527 21.7927C73.2527 22.2747 73.0792 22.6361 72.7322 22.8771C72.3948 23.1181 71.8983 23.2386 71.2428 23.2386C70.944 23.2386 70.7078 23.1663 70.5343 23.0217C70.3704 22.8868 70.2885 22.6843 70.2885 22.4144C70.2885 21.0841 70.2548 19.8406 70.1873 18.6838C70.1294 17.5174 70.062 16.4811 69.9848 15.575C69.9174 14.6689 69.8499 13.917 69.7824 13.3193C69.7246 12.712 69.6957 12.2975 69.6957 12.0758Z" fill="#21201C"/>
<path d="M76.1736 10.7455C76.1736 10.6009 76.2362 10.4611 76.3616 10.3261C76.4869 10.1815 76.6508 10.0562 76.8532 9.95019C77.0556 9.83451 77.2822 9.74293 77.5328 9.67545C77.7931 9.59834 78.0533 9.55978 78.3136 9.55978C78.4582 9.55978 78.5787 9.59834 78.6751 9.67545C78.7812 9.75257 78.8727 9.90199 78.9498 10.1237C79.027 10.3358 79.0944 10.6394 79.1523 11.0347C79.2198 11.4203 79.2824 11.9263 79.3403 12.5529C79.3788 12.7457 79.4126 12.8951 79.4415 13.0012C79.48 13.0976 79.5282 13.1458 79.5861 13.1458C79.6728 13.1458 79.7596 12.9964 79.8463 12.6975C80.55 10.6635 81.567 9.64653 82.8973 9.64653C83.5143 9.64653 84.0734 9.83933 84.5747 10.2249C85.0856 10.6105 85.5579 11.2419 85.9917 12.1191C86.4351 12.9867 86.8545 14.1339 87.2497 15.5605C87.6449 16.9776 88.0402 18.7272 88.4354 20.8094C88.4547 20.9154 88.4691 21.0118 88.4788 21.0986C88.4884 21.1854 88.4932 21.2673 88.4932 21.3444C88.4932 21.5661 88.4402 21.7589 88.3342 21.9228C88.2378 22.077 88.1076 22.2072 87.9438 22.3132C87.7799 22.4096 87.5967 22.4819 87.3943 22.5301C87.1919 22.5879 86.9894 22.6169 86.787 22.6169C86.3821 22.6169 86.0881 22.5735 85.905 22.4867C85.7314 22.4 85.6206 22.2361 85.5724 21.9951C85.2928 20.5299 85.0181 19.2285 84.7482 18.091C84.4879 16.9535 84.2276 15.9992 83.9674 15.228C83.7167 14.4471 83.4661 13.8543 83.2155 13.4494C82.9648 13.0446 82.7142 12.8421 82.4635 12.8421C82.2129 12.8421 81.9767 13.0012 81.755 13.3193C81.5429 13.6278 81.3357 14.1146 81.1333 14.7797C80.9308 15.4449 80.7332 16.2883 80.5404 17.3102C80.3573 18.332 80.1789 19.5514 80.0054 20.9685C79.9572 21.3541 79.7644 21.6625 79.427 21.8939C79.0896 22.1252 78.6607 22.2409 78.1401 22.2409C77.7931 22.2409 77.528 22.1686 77.3448 22.024C77.1617 21.8794 77.0604 21.6818 77.0412 21.4312C76.9544 19.4261 76.858 17.7777 76.752 16.486C76.6556 15.1846 76.564 14.1435 76.4772 13.3627C76.3905 12.5722 76.3182 11.9842 76.2603 11.5986C76.2025 11.213 76.1736 10.9286 76.1736 10.7455Z" fill="#21201C"/>
<path d="M92.8456 8.89463C92.2672 8.89463 91.7346 8.79582 91.2478 8.59821C90.761 8.40541 90.3417 8.13309 89.9898 7.78124C89.6428 7.42938 89.3705 7.00764 89.1728 6.51601C88.98 6.02438 88.8836 5.48456 88.8836 4.89653C88.8836 4.57842 88.9102 4.27476 88.9632 3.98557C89.021 3.69156 89.0981 3.41923 89.1945 3.1686C89.2234 3.10594 89.2427 3.06015 89.2524 3.03123C89.262 3.00231 89.2668 2.97339 89.2668 2.94447C89.2668 2.89145 89.2524 2.84085 89.2234 2.79265C89.1945 2.74445 89.1632 2.69625 89.1295 2.64805C89.1005 2.59503 89.0716 2.5396 89.0427 2.48176C89.0138 2.41911 88.9993 2.35163 88.9993 2.27933C88.9993 2.12991 89.0572 1.9829 89.1728 1.83831C89.2933 1.69371 89.4548 1.55393 89.6572 1.41898C89.8645 1.28402 90.1079 1.16111 90.3875 1.05026C90.6718 0.934578 90.9779 0.83577 91.3056 0.753832C91.6334 0.671894 91.978 0.606825 92.3395 0.558627C92.7058 0.510428 93.0721 0.486328 93.4384 0.486328C94.1229 0.486328 94.7398 0.575496 95.2893 0.753832C95.8388 0.927348 96.3063 1.17798 96.6919 1.50574C97.0823 1.82867 97.3811 2.2239 97.5884 2.69143C97.7956 3.15896 97.8993 3.68192 97.8993 4.2603C97.8993 4.69409 97.839 5.11102 97.7185 5.51107C97.6028 5.9063 97.4365 6.27743 97.2197 6.62446C97.0028 6.96667 96.7425 7.27756 96.4388 7.55711C96.1352 7.83666 95.7954 8.07525 95.4194 8.27286C95.0483 8.47048 94.6434 8.62231 94.2048 8.72834C93.771 8.8392 93.3179 8.89463 92.8456 8.89463ZM96.7714 4.55673C96.7714 4.07474 96.6895 3.64336 96.5256 3.26259C96.3617 2.88181 96.1279 2.55888 95.8243 2.29379C95.5255 2.02869 95.1616 1.82626 94.7326 1.68648C94.3036 1.5467 93.824 1.47682 93.2938 1.47682C92.7444 1.47682 92.2648 1.55152 91.8551 1.70094C91.4454 1.85036 91.1032 2.06002 90.8285 2.32994C90.5537 2.59985 90.3465 2.92519 90.2067 3.30597C90.0717 3.68192 90.0043 4.09884 90.0043 4.55673C90.0043 5.05318 90.0814 5.50866 90.2356 5.92317C90.3899 6.33286 90.6043 6.68471 90.8791 6.97872C91.1586 7.27274 91.4912 7.49927 91.8768 7.65833C92.2672 7.8222 92.6962 7.90414 93.1637 7.90414C93.6891 7.90414 94.1735 7.8222 94.6169 7.65833C95.0603 7.49445 95.4411 7.26551 95.7592 6.97149C96.0773 6.67266 96.3256 6.3184 96.5039 5.90871C96.6822 5.49902 96.7714 5.04836 96.7714 4.55673ZM91.7973 3.04569C91.8407 3.04569 91.8648 3.03605 91.8696 3.01677C91.8792 2.99267 91.8888 2.94447 91.8985 2.87217C91.9081 2.7806 91.9491 2.69866 92.0214 2.62636C92.0985 2.54924 92.1973 2.48176 92.3178 2.42392C92.4383 2.36609 92.5709 2.31548 92.7155 2.2721C92.8649 2.22872 93.0143 2.19498 93.1637 2.17088C93.3179 2.14196 93.465 2.12027 93.6047 2.10581C93.7493 2.09135 93.8771 2.08412 93.9879 2.08412C94.1325 2.08412 94.2795 2.1034 94.4289 2.14196C94.5783 2.1757 94.7133 2.23595 94.8338 2.32271C94.9591 2.40465 95.0603 2.5155 95.1375 2.65528C95.2194 2.79506 95.2604 2.96616 95.2604 3.1686C95.2604 3.33729 95.2218 3.49876 95.1447 3.653C95.0724 3.80241 94.9784 3.94219 94.8627 4.07233C94.747 4.20247 94.6169 4.32296 94.4723 4.43382C94.3277 4.53986 94.1855 4.63626 94.0458 4.72301C93.9397 4.78567 93.8867 4.85315 93.8867 4.92545C93.8867 5.00257 93.9566 5.06282 94.0964 5.1062L95.3977 5.54722C95.5953 5.62915 95.6942 5.76411 95.6942 5.95209C95.6942 6.02438 95.6749 6.09668 95.6363 6.16898C95.6026 6.24128 95.5568 6.30635 95.4989 6.36419C95.4411 6.42203 95.376 6.47022 95.3037 6.50878C95.2363 6.54252 95.1688 6.55939 95.1013 6.55939C95.0917 6.55939 95.0772 6.55939 95.0579 6.55939C95.0435 6.55457 95.0194 6.54734 94.9856 6.5377C94.9519 6.52806 94.9061 6.5136 94.8483 6.49432C94.7952 6.47504 94.7254 6.44613 94.6386 6.40757C94.5711 6.38347 94.4771 6.34973 94.3566 6.30635C94.2361 6.26297 94.1012 6.21718 93.9518 6.16898C93.8023 6.11596 93.6433 6.06294 93.4746 6.00992C93.3107 5.95209 93.1517 5.89666 92.9974 5.84364C92.9685 5.834 92.9396 5.82677 92.9107 5.82195C92.8817 5.81713 92.8552 5.81472 92.8311 5.81472C92.7251 5.81472 92.6721 5.86533 92.6721 5.96655C92.6721 6.02438 92.6793 6.10873 92.6938 6.21959C92.7082 6.33045 92.7155 6.42203 92.7155 6.49432C92.7155 6.55216 92.6938 6.61 92.6504 6.66784C92.607 6.72086 92.5516 6.76906 92.4841 6.81244C92.4214 6.851 92.3492 6.88233 92.2672 6.90642C92.1853 6.93052 92.1082 6.94257 92.0359 6.94257C91.9395 6.94257 91.8479 6.90642 91.7611 6.83413C91.6744 6.75701 91.6213 6.66061 91.6021 6.54493C91.5346 6.06294 91.4527 5.58818 91.3563 5.12066C91.2647 4.65313 91.1562 4.18801 91.0309 3.7253C91.0213 3.7012 91.0116 3.67951 91.002 3.66023C90.9972 3.63613 90.9948 3.60962 90.9948 3.5807C90.9948 3.47466 91.0261 3.3879 91.0887 3.32043C91.1562 3.24813 91.2333 3.1927 91.3201 3.15414C91.4117 3.11558 91.5008 3.08907 91.5876 3.07461C91.6792 3.05533 91.7491 3.04569 91.7973 3.04569ZM92.3323 3.42887C92.2889 3.42887 92.2528 3.44092 92.2238 3.46502C92.1949 3.48912 92.1805 3.52286 92.1805 3.56624C92.1805 3.57588 92.1805 3.59034 92.1805 3.60962C92.1853 3.62408 92.1925 3.65059 92.2021 3.68915C92.2118 3.72771 92.2262 3.78072 92.2455 3.8482C92.2648 3.91568 92.2889 4.00485 92.3178 4.11571C92.3564 4.25548 92.3949 4.34706 92.4335 4.39044C92.4721 4.43382 92.5178 4.45551 92.5709 4.45551C92.6191 4.45551 92.6721 4.44105 92.7299 4.41213C92.8745 4.33501 93.0288 4.24825 93.1926 4.15186C93.3565 4.05064 93.5083 3.94701 93.6481 3.84097C93.7927 3.73494 93.9108 3.63131 94.0024 3.53009C94.0939 3.42887 94.1397 3.33729 94.1397 3.25536C94.1397 3.17824 94.1036 3.13245 94.0313 3.11799C93.9638 3.09871 93.8746 3.08907 93.7638 3.08907C93.571 3.08907 93.3661 3.1204 93.1493 3.18306C92.9372 3.24572 92.7323 3.3132 92.5347 3.38549C92.4624 3.41441 92.3949 3.42887 92.3323 3.42887Z" fill="#21201C"/>
</svg>
